<svg width="30" height="30" viewBox="0 0 30 30" fill="none" xmlns="http://www.w3.org/2000/svg">
<path d="M2 15H28" stroke="#434035" stroke-width="4" stroke-linecap="round"/>
<path d="M2 25H28" stroke="#434035" stroke-width="4" stroke-linecap="round"/>
<path d="M1 7.88V2.12H1.93065L3.74617 5.944L5.56169 2.12H6.49234V7.88H5.52355V4.44L3.92925 7.88H3.56309L1.96879 4.44V7.88H1Z" fill="#434035"/>
<path d="M9.1649 7.88V2.12H12.7502V3.136H10.2023V4.368H12.2925V5.384H10.2023V6.864H12.7502V7.88H9.1649Z" fill="#434035"/>
<path d="M15.2663 7.88V2.12H16.3037V4.488H18.76V2.12H19.7975V7.88H18.76V5.504H16.3037V7.88H15.2663Z" fill="#434035"/>
<path d="M22.4702 7.88V2.12H23.5077V4.456H24.4231V5.544H23.5077V7.88H22.4702ZM26.6505 8C26.2869 8 25.9601 7.932 25.6703 7.796C25.3804 7.66 25.1338 7.46267 24.9303 7.204C24.7269 6.94267 24.5705 6.62667 24.4612 6.256C24.3544 5.88533 24.301 5.46667 24.301 5C24.301 4.53067 24.3544 4.112 24.4612 3.744C24.5705 3.37333 24.7269 3.05867 24.9303 2.8C25.1338 2.53867 25.3804 2.34 25.6703 2.204C25.9601 2.068 26.2869 2 26.6505 2C27.0141 2 27.3409 2.068 27.6307 2.204C27.9206 2.34 28.1673 2.53867 28.3707 2.8C28.5741 3.05867 28.7292 3.37333 28.836 3.744C28.9453 4.112 29 4.53067 29 5C29 5.46667 28.9453 5.88533 28.836 6.256C28.7292 6.62667 28.5741 6.94267 28.3707 7.204C28.1673 7.46267 27.9206 7.66 27.6307 7.796C27.3409 7.932 27.0141 8 26.6505 8ZM26.6505 6.976C26.8641 6.976 27.0497 6.92933 27.2074 6.836C27.365 6.74 27.4947 6.60533 27.5964 6.432C27.6981 6.256 27.7744 6.04667 27.8253 5.804C27.8761 5.56133 27.9015 5.29333 27.9015 5C27.9015 4.70667 27.8761 4.43867 27.8253 4.196C27.7744 3.95333 27.6981 3.74533 27.5964 3.572C27.4947 3.396 27.365 3.26133 27.2074 3.168C27.0497 3.072 26.8641 3.024 26.6505 3.024C26.4369 3.024 26.2513 3.072 26.0936 3.168C25.936 3.26133 25.8063 3.396 25.7046 3.572C25.6029 3.74533 25.5266 3.95333 25.4758 4.196C25.4249 4.43867 25.3995 4.70667 25.3995 5C25.3995 5.29333 25.4249 5.56133 25.4758 5.804C25.5266 6.04667 25.6029 6.256 25.7046 6.432C25.8063 6.60533 25.936 6.74 26.0936 6.836C26.2513 6.92933 26.4369 6.976 26.6505 6.976Z" fill="#434035"/>
</svg>
