<svg width="64" height="64" fill="none" xmlns="http://www.w3.org/2000/svg"><g clip-path="url(#a)" fill="#434035"><path d="M32 0C14.327 0 0 14.327 0 32c0 17.673 14.327 32 32 32 17.673 0 32-14.327 32-32C63.98 14.335 49.665.02 32 0Zm0 61.867C15.505 61.867 2.133 48.495 2.133 32S15.505 2.133 32 2.133 61.867 15.505 61.867 32C61.847 48.487 48.487 61.848 32 61.867Z"/><path d="M32 4.267a27.694 27.694 0 0 0-17.895 6.578c-.014.011-.02.028-.031.04a.29.29 0 0 0-.033.02c-.03.04-.058.082-.083.125-.05.06-.093.126-.13.195-.022.06-.04.12-.05.183-.021.07-.035.14-.041.213 0 .067.008.134.022.2a.972.972 0 0 0 .039.198c.028.068.064.132.106.192.023.05.048.097.078.142.01.01.024.015.033.026.01.01.015.027.027.039l11.44 11.437c-.272.689-.55 1.424-.83 2.19L12.52 13.913c-.009-.01-.023-.012-.032-.022-.01-.01-.015-.024-.026-.034a.99.99 0 0 0-.163-.09.939.939 0 0 0-.168-.096 1.038 1.038 0 0 0-.222-.043.986.986 0 0 0-.178-.021c-.075.006-.15.02-.223.043-.059.01-.117.027-.172.047a1.07 1.07 0 0 0-.195.13 1.003 1.003 0 0 0-.13.086c-.008.01-.011.021-.02.03-.008.01-.024.016-.034.027-9.43 10.992-8.803 27.392 1.437 37.633 10.241 10.24 26.64 10.867 37.633 1.438.01-.008.014-.02.022-.029.009-.008.025-.013.036-.023a1.05 1.05 0 0 0 .1-.152c.041-.052.077-.109.108-.167.04-.13.07-.263.093-.397a1.228 1.228 0 0 0-.024-.198 1.112 1.112 0 0 0-.04-.204 1.122 1.122 0 0 0-.099-.175 1.051 1.051 0 0 0-.09-.16c-.01-.01-.023-.015-.033-.026-.009-.01-.011-.02-.02-.03L37.59 38.983c.765-.282 1.493-.56 2.186-.835L51.598 49.97c.012.012.028.016.04.027.011.01.015.022.025.03a.997.997 0 0 0 .177.107.712.712 0 0 0 .444.139c.023 0 .045.013.068.013.147-.001.293-.033.427-.093l.33-.22c.013-.012.017-.029.029-.041.011-.013.022-.013.031-.024A27.722 27.722 0 0 0 32 4.267Zm15.067 19.136A3.99 3.99 0 0 0 46 25.429a4.979 4.979 0 0 0-5.128 6.1 3.973 3.973 0 0 0-2.472 4.865c-.966.373-2.005.755-3.116 1.146-.025.01-.05.016-.076.028-2.32.814-4.96 1.664-7.883 2.543a4.875 4.875 0 0 0-3.803-3.804c4.028-13.383 6.632-18.013 8.118-19.497 4.196-4.318 11.094-4.426 15.425-.244a10.468 10.468 0 0 1 2.91 5.666 3.996 3.996 0 0 0-2.908 1.17ZM22.547 43.75a.97.97 0 0 0-.084.124 1.064 1.064 0 0 0-.12.18 1.012 1.012 0 0 0-.059.192.981.981 0 0 0-.039.199.993.993 0 0 0 .017.202.963.963 0 0 0 .038.197c.026.067.059.132.098.192.02.046.043.09.07.133.52.773.55 1.776.08 2.58a2.484 2.484 0 0 1-1.445 1.24 1.56 1.56 0 0 1-1.215-.117 2.225 2.225 0 0 1-.52-2.977c.075-.147.166-.284.272-.41A1.057 1.057 0 0 0 19.589 44a1.075 1.075 0 0 0-1.387-.08c-.108.078-.22.148-.339.208a2.19 2.19 0 0 1-2.967-.522 1.559 1.559 0 0 1-.114-1.217 2.474 2.474 0 0 1 1.24-1.444 2.419 2.419 0 0 1 2.585.076c.045.026.09.05.138.07.114.08.248.127.388.135.046.012.092.02.139.026.02 0 .04-.01.06-.01.067-.007.133-.02.198-.04a.93.93 0 0 0 .193-.06l.303-.202 2.548-2.547a2.57 2.57 0 0 1 2.667 2.666l-2.695 2.692Zm25.182 8.389c-10.168 7.988-24.701 7.118-33.845-2.025C4.741 40.97 3.872 26.438 11.861 16.27L23.86 28.267c-.865 2.5-1.767 5.333-2.713 8.533l-2.053 2.056a4.688 4.688 0 0 0-4.08.214 4.617 4.617 0 0 0-2.28 2.726 3.68 3.68 0 0 0 .303 2.861 3.993 3.993 0 0 0 3.542 1.942c.12 0 .24-.013.36-.023a4.088 4.088 0 0 0 1.9 4.16 3.606 3.606 0 0 0 1.776.464 3.893 3.893 0 0 0 1.086-.157 4.619 4.619 0 0 0 2.727-2.282 4.686 4.686 0 0 0 .203-4.073l2.195-2.195c3.214-.95 6.04-1.85 8.538-2.714L47.73 52.14Zm4.52-4.535L40.46 35.816a1.859 1.859 0 0 1 .465-1.863c.353-.36.84-.557 1.343-.544h.039c.116-.002.23-.023.337-.062.028-.01.055-.021.083-.033a.86.86 0 0 0 .106-.043c.033-.025.064-.052.094-.08a.954.954 0 0 0 .282-.307.943.943 0 0 0 .137-.39.895.895 0 0 0 .028-.113c0-.027-.011-.05-.013-.076a1.413 1.413 0 0 0-.1-.415c-.012-.023-.01-.05-.024-.073a2.867 2.867 0 0 1 .472-3.428 2.835 2.835 0 0 1 2.942-.682c.033.01.065 0 .098.012.08.025.162.04.245.044H47.166a.87.87 0 0 0 .128-.05.964.964 0 0 0 .214-.081.995.995 0 0 0 .155-.118c.055-.043.106-.09.152-.142.042-.06.077-.125.106-.192a.924.924 0 0 0 .08-.14c0-.015 0-.03.006-.046.025-.139.036-.28.035-.421v-.048a1.875 1.875 0 0 1 2.675-1.97c.026.012.053.01.08.02a.976.976 0 0 0 .17.048c.07.02.14.031.213.036.018 0 .035.01.053.008a1 1 0 0 0 .141-.034c.073-.009.144-.026.214-.05a1 1 0 0 0 .18-.101c.057-.034.11-.072.16-.116a.992.992 0 0 0 .136-.173.892.892 0 0 0 .089-.112c.008-.017.006-.035.014-.053.024-.065.043-.131.054-.199a.985.985 0 0 0 .035-.213c0-.018.01-.033.009-.051a12.635 12.635 0 0 0-3.691-8.504c-5.164-5.015-13.412-4.906-18.441.243a21.875 21.875 0 0 0-3.768 6.42l-9.962-9.962c10.171-7.877 24.613-6.964 33.71 2.133 9.098 9.097 10.013 23.54 2.137 33.712Z"/><path d="M39.266 14.765a14.615 14.615 0 0 0-6.803 3.77c-2.949 2.948-5.05 10.585-5.144 10.905a1.068 1.068 0 0 0 2.059.56c.559-2.05 2.476-7.839 4.593-9.956a12.644 12.644 0 0 1 5.715-3.19 1.067 1.067 0 0 0-.42-2.092v.003Z"/></g><defs><clipPath id="a"><path fill="#fff" d="M0 0h64v64H0z"/></clipPath></defs></svg>