<svg width="30" height="30" fill="none" xmlns="http://www.w3.org/2000/svg"><path d="M2 15h26M2 25h26" stroke="#434035" stroke-width="4" stroke-linecap="round"/><path d="M1 7.88V2.12h.93l1.816 3.824L5.562 2.12h.93v5.76h-.968V4.44L3.929 7.88h-.366L1.97 4.44v3.44H1ZM9.165 7.88V2.12h3.585v1.016h-2.548v1.232h2.09v1.016h-2.09v1.48h2.548V7.88H9.165ZM15.266 7.88V2.12h1.038v2.368h2.456V2.12h1.037v5.76H18.76V5.504h-2.456V7.88h-1.038ZM22.47 7.88V2.12h1.038v2.336h.915v1.088h-.915V7.88H22.47Zm4.18.12a2.28 2.28 0 0 1-.98-.204 2.027 2.027 0 0 1-.74-.592 2.828 2.828 0 0 1-.469-.948c-.107-.37-.16-.79-.16-1.256 0-.47.053-.888.16-1.256.11-.37.266-.685.47-.944.203-.261.45-.46.74-.596A2.28 2.28 0 0 1 26.65 2c.363 0 .69.068.98.204.29.136.536.335.74.596.203.259.358.573.465.944.11.368.164.787.164 1.256 0 .467-.055.885-.164 1.256-.107.37-.262.687-.465.948-.204.259-.45.456-.74.592a2.28 2.28 0 0 1-.98.204Zm0-1.024c.214 0 .4-.047.557-.14.158-.096.288-.23.39-.404.101-.176.177-.385.228-.628.051-.243.076-.51.076-.804 0-.293-.025-.561-.076-.804a2.065 2.065 0 0 0-.229-.624 1.092 1.092 0 0 0-.389-.404 1.05 1.05 0 0 0-.556-.144c-.214 0-.4.048-.557.144a1.092 1.092 0 0 0-.39.404 2.062 2.062 0 0 0-.228.624c-.051.243-.076.51-.076.804 0 .293.025.561.076.804.05.243.127.452.229.628.101.173.231.308.389.404.157.093.343.14.556.14Z" fill="#434035"/></svg>