<svg width="64" height="64" viewBox="0 0 64 64" fill="none" xmlns="http://www.w3.org/2000/svg">
<g clip-path="url(#clip0_324_4192)">
<path d="M28.3486 64H28.8501C30.0801 63.9961 31.2476 63.458 32.0498 62.5259C32.8521 63.458 34.02 63.9961 35.25 64H35.7515C49.5977 63.9932 60.8252 52.7793 60.8501 38.9331V30.9331C60.8359 22.6479 54.8779 15.5674 46.7168 14.1377C47.3931 13.6465 47.9873 13.0513 48.4766 12.3735C50.9888 8.85986 49.9976 4.23242 49.9551 4.03711C49.8691 3.65088 49.5767 3.34375 49.1943 3.23926C42.4746 1.40479 38.3315 4.1001 35.9253 7.00586L36.1631 3.41357C36.2222 2.52979 35.9121 1.66113 35.3071 1.01416C34.7021 0.367188 33.8564 0 32.9707 0H31.1294C30.2437 0 29.3979 0.367188 28.793 1.01416C28.1875 1.66113 27.8779 2.52979 27.937 3.41357L28.1748 7.00488C25.7695 4.09912 21.6245 1.40479 14.9053 3.23828C14.5234 3.34277 14.231 3.6499 14.145 4.03613C14.1021 4.23145 13.1113 8.85889 15.6235 12.3721C16.1123 13.0508 16.7065 13.647 17.3833 14.1387C9.22266 15.5684 3.26416 22.6484 3.25 30.9331V38.9331C3.2749 52.7793 14.5024 63.9932 28.3486 64ZM47.9688 5.12939C48.2812 7.21582 47.8442 9.3457 46.7349 11.1401C45.4258 12.7808 43.4712 13.7749 41.375 13.8667H39.4399C38.0288 13.8657 36.6396 14.2202 35.4014 14.897L35.6274 11.4839C37.0933 8.26904 40.5835 3.43994 47.9688 5.12939ZM30.3506 2.47021C30.5518 2.25439 30.8345 2.13184 31.1294 2.1333H32.9707C33.2661 2.13281 33.5488 2.25488 33.751 2.47021C33.9531 2.68555 34.0566 2.97559 34.0371 3.27051L33.1455 16.6987C32.7251 17.1641 32.3579 17.6743 32.0498 18.2207C31.7432 17.6748 31.377 17.1641 30.9575 16.6987L30.0659 3.27051C30.0449 2.97559 30.1484 2.68555 30.3506 2.47021ZM16.1309 5.12939C23.52 3.43994 27.0112 8.26904 28.4722 11.4839L28.6987 14.897C27.46 14.2202 26.0713 13.8657 24.6602 13.8667H22.7251C20.6284 13.7749 18.6743 12.7808 17.3652 11.1401C16.2559 9.3457 15.8188 7.21582 16.1309 5.12939ZM5.3833 30.9331C5.39209 22.6895 12.0728 16.0088 20.3169 16H24.6538C28.1445 16.0005 30.9761 18.8271 30.9834 22.3179V24.1641C30.9834 24.7534 31.4609 25.231 32.0498 25.231C32.6392 25.231 33.1167 24.7534 33.1167 24.1641V22.3179C33.1235 18.8271 35.9556 16.0005 39.4463 16H43.7832C52.0273 16.0088 58.708 22.6895 58.7168 30.9331V38.9331C58.6938 51.6021 48.4199 61.8613 35.7515 61.8667H35.25C34.0718 61.8667 33.1167 60.9116 33.1167 59.7334C33.1167 59.144 32.6392 58.6665 32.0498 58.6665C31.4609 58.6665 30.9834 59.144 30.9834 59.7334C30.9834 60.9116 30.0283 61.8667 28.8501 61.8667H28.3486C15.6802 61.8613 5.40625 51.6021 5.3833 38.9331V30.9331Z" fill="#434035"/>
<path d="M29.8932 53.0689C31.0563 54.2163 32.9254 54.2163 34.0885 53.0689L45.2096 42.0371C47.028 40.2354 48.0504 37.7813 48.049 35.2212C48.048 32.6617 47.0241 30.208 45.2042 28.4073C41.5871 24.8448 35.8434 24.649 31.9914 27.9561C28.1686 24.6739 22.4752 24.8389 18.8493 28.3379C17.0465 30.1045 16.0363 32.5259 16.049 35.0498C16.0348 37.7603 17.1046 40.3638 19.0197 42.2818L29.8932 53.0689ZM20.3351 29.8667C23.3136 26.9971 28.0368 27.0244 30.9826 29.9273L31.2418 30.1846C31.6574 30.5967 32.3278 30.5967 32.7438 30.1846L33.0016 29.9287C35.9708 27.003 40.7389 27.003 43.7077 29.9287C45.1207 31.3291 45.9157 33.2364 45.9157 35.2261C45.9157 37.2159 45.1207 39.1231 43.7077 40.524L32.5827 51.5542C32.2511 51.8765 31.7233 51.8765 31.3922 51.5542L20.5216 40.7671C19.0123 39.253 18.1701 37.1993 18.1823 35.0616C18.1676 33.1099 18.9445 31.2359 20.3351 29.8667Z" fill="#434035"/>
<path d="M32.0508 46.9331C32.6401 46.9331 33.1177 46.4556 33.1177 45.8667V34.1333C33.1177 33.5444 32.6401 33.0669 32.0508 33.0669C31.4619 33.0669 30.9844 33.5444 30.9844 34.1333V45.8667C30.9844 46.4556 31.4619 46.9331 32.0508 46.9331Z" fill="#434035"/>
<path d="M26.2388 40.4268C26.4922 40.5533 26.7852 40.5743 27.0538 40.4844C27.3223 40.3946 27.544 40.2022 27.6705 39.9488L28.7369 37.8155C29.0005 37.2881 28.7867 36.6475 28.2593 36.3838C27.732 36.1207 27.0909 36.3345 26.8277 36.8619L25.7613 38.9952C25.6343 39.2486 25.6138 39.5416 25.7032 39.8101C25.793 40.0787 25.9859 40.3003 26.2388 40.4268Z" fill="#434035"/>
<path d="M36.4236 39.9435C36.6868 40.4708 37.3279 40.6847 37.8553 40.4215C38.3821 40.1583 38.5965 39.5172 38.3328 38.9899L37.2664 36.8566C37.0027 36.3292 36.3621 36.1154 35.8348 36.379C35.3074 36.6422 35.0936 37.2828 35.3567 37.8102L36.4236 39.9435Z" fill="#434035"/>
</g>
<defs>
<clipPath id="clip0_324_4192">
<rect width="64" height="64" fill="white"/>
</clipPath>
</defs>
</svg>
