<svg width="64" height="64" viewBox="0 0 64 64" fill="none" xmlns="http://www.w3.org/2000/svg">
<g clip-path="url(#clip0_324_4114)">
<path d="M10.1337 22.9331C2.4857 36.0532 13.8671 62.2539 14.349 63.3599C14.5189 63.7485 14.9022 64 15.326 64H48.6747C49.0985 64 49.4818 63.7485 49.6517 63.3599C50.139 62.2539 61.515 36.0532 53.8671 22.9331C46.7206 10.689 48.6297 1.38672 48.6488 1.29834C48.7191 0.982422 48.642 0.651855 48.4398 0.399414C48.2372 0.146973 47.9315 0 47.6078 0H16.3929C16.0697 0 15.764 0.146484 15.5619 0.397949C15.3592 0.649414 15.2816 0.979492 15.3509 1.29492C15.371 1.38672 17.2801 10.689 10.1337 22.9331ZM16.0336 61.8667C14.7674 58.8032 9.47984 45.312 9.64 34.062C14.0677 33.7856 21.4374 33.9478 25.0531 36.1162C26.0687 36.7222 26.9794 37.2417 27.8148 37.7002C27.8265 37.731 27.8246 37.7642 27.8392 37.7954C29.1351 40.7163 30.1761 43.7437 30.952 46.8438C30.9442 46.873 30.9379 46.9033 30.9335 46.9331V61.8667H16.0336ZM32.0004 42.7842C31.4979 41.2031 31.0189 39.8955 30.6341 38.9194C31.5331 39.1221 32.4662 39.1221 33.3656 38.9194C32.9808 39.8936 32.5018 41.2041 32.0004 42.7842ZM47.9671 61.8667H33.0672V46.9331C33.0629 46.9033 33.0565 46.873 33.0487 46.8438C33.8241 43.7437 34.8651 40.7163 36.1605 37.7954C36.1752 37.7642 36.1732 37.7324 36.1849 37.7012C36.9828 37.2661 37.9037 36.7373 38.9476 36.1152C42.9847 33.6929 51.2142 33.8838 54.3578 34.0586C54.5189 45.3066 49.2333 58.8022 47.9671 61.8667ZM54.2499 31.9155C50.4632 31.7129 42.2704 31.6353 37.8534 34.2837C36.5672 35.0518 35.4652 35.6768 34.5462 36.1587L34.4696 36.2007L34.2211 36.3286C34.12 36.3809 34.0238 36.4351 33.9066 36.4873C32.7035 37.0903 31.2865 37.0903 30.0834 36.4873L29.9056 36.3989C29.7274 36.3105 29.5331 36.2144 29.3324 36.1064C28.4066 35.6084 27.3338 34.9961 26.1444 34.2871C21.6166 31.5732 13.036 31.7407 9.7484 31.9224C9.89586 29.1484 10.6581 26.4429 11.9798 24C12.0731 23.8413 12.1507 23.6885 12.2406 23.5308C13.6986 23.7788 15.119 24.2114 16.4676 24.8193C16.8856 24.9888 17.3006 25.1562 17.7113 25.312C18.4452 25.5913 19.1791 25.8882 19.9159 26.1855C21.4896 26.8257 23.1161 27.4805 24.7704 27.9692C27.1273 28.5771 29.557 28.8564 31.9906 28.7998H32.0101C34.4427 28.8579 36.8724 28.5796 39.2294 27.9731C40.8846 27.4849 42.5111 26.8267 44.0848 26.1899C44.8216 25.8921 45.5555 25.5957 46.2894 25.3164C46.7001 25.1606 47.1151 24.9961 47.534 24.8232C48.8817 24.2158 50.3016 23.7827 51.7591 23.5352C51.849 23.6929 51.9266 23.8452 52.0194 24.0044C53.3387 26.4438 54.1009 29.146 54.2499 31.9155ZM17.6283 2.1333H46.3724C46.0697 4.98877 45.9681 12.2666 50.6786 21.5308C49.3255 21.8472 48.0047 22.2876 46.7323 22.8457C46.328 23.0093 45.9266 23.166 45.5311 23.3218C44.7845 23.6055 44.0375 23.9092 43.2826 24.2124C41.7562 24.8301 40.1786 25.4678 38.6224 25.9272C36.4588 26.4731 34.2308 26.7222 32.0004 26.6665C29.7689 26.7222 27.5399 26.4736 25.3754 25.9272C23.8202 25.4678 22.2425 24.8301 20.7162 24.2124C19.9696 23.9092 19.2162 23.6055 18.4676 23.3218C18.0716 23.1714 17.6708 23.0093 17.2665 22.8457C15.994 22.2876 14.6727 21.8472 13.3197 21.5298C18.0326 12.2666 17.931 4.98877 17.6283 2.1333Z" fill="#434035"/>
<path d="M31.999 20.2666C33.7661 20.2666 35.1992 18.834 35.1992 17.0669C35.1992 16.4775 34.7217 16 34.1323 16C33.5435 16 33.0659 16.4775 33.0659 17.0669C33.0659 17.6558 32.5879 18.1333 31.999 18.1333C31.4102 18.1333 30.9321 17.6558 30.9321 17.0669C30.9321 16.4775 30.4546 16 29.8657 16C29.2764 16 28.7988 16.4775 28.7988 17.0669C28.7988 18.834 30.2319 20.2666 31.999 20.2666Z" fill="#434035"/>
<path d="M1.06689 11.7333H5.3335V13.8666C5.3335 14.2802 5.57275 14.6567 5.94775 14.832C6.32227 15.0078 6.76465 14.9506 7.08252 14.686L13.4829 9.35249C13.7256 9.14985 13.8662 8.84956 13.8662 8.53315C13.8662 8.21674 13.7256 7.91694 13.4829 7.7143L7.08252 2.38081C6.76465 2.11616 6.32227 2.05903 5.94775 2.23432C5.57275 2.40961 5.3335 2.78608 5.3335 3.20014V5.33344H1.06689C0.477539 5.33344 0 5.81098 0 6.39985V10.6665C0 11.2558 0.477539 11.7333 1.06689 11.7333ZM2.1333 7.46674H6.3999C6.98926 7.46674 7.4668 6.9892 7.4668 6.39985V5.47749L11.1338 8.53315L7.4668 11.5893V10.6665C7.4668 10.0776 6.98926 9.60004 6.3999 9.60004H2.1333V7.46674Z" fill="#434035"/>
<path d="M62.9331 5.3336H58.6665V3.2003C58.667 2.78575 58.4272 2.40928 58.0522 2.2335C57.6772 2.05772 57.2344 2.11534 56.9165 2.38096L50.5161 7.71446C50.2734 7.9171 50.1328 8.2169 50.1328 8.53331C50.1328 8.84971 50.2734 9.15001 50.5161 9.35264L56.9165 14.6861C57.2344 14.9513 57.6772 15.0089 58.0522 14.8336C58.4272 14.6578 58.667 14.2809 58.6665 13.8668V11.7335H62.9331C63.5225 11.7335 64 11.256 64 10.6666V6.40001C64 5.81114 63.5225 5.3336 62.9331 5.3336ZM61.8667 9.6002H57.6001C57.0107 9.6002 56.5332 10.0777 56.5332 10.6666V11.5895L52.8672 8.53331L56.5332 5.47764V6.40001C56.5332 6.98936 57.0107 7.4669 57.6001 7.4669H61.8667V9.6002Z" fill="#434035"/>
</g>
<defs>
<clipPath id="clip0_324_4114">
<rect width="64" height="64" fill="white"/>
</clipPath>
</defs>
</svg>
