<svg width="32" height="32" fill="none" xmlns="http://www.w3.org/2000/svg"><path d="M14.051 1.665a3 3 0 0 1 3.898 0l1.175 1.004a3 3 0 0 0 2.184.71l1.541-.122a3 3 0 0 1 3.154 2.291l.36 1.503a3 3 0 0 0 1.35 1.858l1.318.808a3 3 0 0 1 1.205 3.707l-.592 1.428a3 3 0 0 0 0 2.296l.592 1.428a3 3 0 0 1-1.205 3.707l-1.318.808a3 3 0 0 0-1.35 1.858l-.36 1.503a3 3 0 0 1-3.154 2.29l-1.54-.12a3 3 0 0 0-2.185.71l-1.175 1.003a3 3 0 0 1-3.898 0l-1.175-1.004a3 3 0 0 0-2.184-.71l-1.541.122a3 3 0 0 1-3.154-2.291l-.36-1.503a3 3 0 0 0-1.35-1.858l-1.318-.808a3 3 0 0 1-1.205-3.707l.592-1.428a3 3 0 0 0 0-2.296l-.592-1.428A3 3 0 0 1 2.97 9.716l1.318-.808a3 3 0 0 0 1.35-1.858l.36-1.503a3 3 0 0 1 3.154-2.29l1.54.12a3 3 0 0 0 2.185-.71l1.175-1.003Z" fill="#23AB7D"/><path d="m11 16 4.889 5L22 12" stroke="#fff" stroke-width="2" stroke-linecap="round" stroke-linejoin="round"/></svg>