<svg width="72" height="72" viewBox="0 0 72 72" fill="none" xmlns="http://www.w3.org/2000/svg">
<path d="M56.5006 19.2854H15.5008C14.9178 19.2854 14.4453 19.7579 14.4453 20.3409C14.4453 20.924 14.9178 21.3965 15.5008 21.3965H56.5006C57.0837 21.3965 57.5562 20.924 57.5562 20.3409C57.5562 19.7579 57.0837 19.2854 56.5006 19.2854Z" fill="#434035"/>
<path d="M56.5006 30.7783H15.5008C14.9178 30.7783 14.4453 31.2508 14.4453 31.8339C14.4453 32.4167 14.9178 32.8894 15.5008 32.8894H56.5006C57.0837 32.8894 57.5562 32.4169 57.5562 31.8339C57.5562 31.2508 57.0837 30.7783 56.5006 30.7783Z" fill="#434035"/>
<path d="M43.059 38.2373H28.9423C28.3592 38.2373 27.8867 38.7098 27.8867 39.2928C27.8867 39.8757 28.3592 40.3484 28.9423 40.3484H43.059C43.6421 40.3484 44.1146 39.8759 44.1146 39.2928C44.1146 38.7098 43.6421 38.2373 43.059 38.2373Z" fill="#434035"/>
<path d="M56.4991 25.0083H25.9169C25.3338 25.0083 24.8613 25.4808 24.8613 26.0638C24.8613 26.6467 25.3338 27.1194 25.9169 27.1194H56.4991C57.0822 27.1194 57.5547 26.6469 57.5547 26.0638C57.5547 25.4808 57.0822 25.0083 56.4991 25.0083Z" fill="#434035"/>
<path d="M21.0074 25.0083H15.5008C14.9178 25.0083 14.4453 25.4808 14.4453 26.0638C14.4453 26.6469 14.9178 27.1194 15.5008 27.1194H21.0074C21.5905 27.1194 22.063 26.6469 22.063 26.0638C22.063 25.4809 21.5905 25.0083 21.0074 25.0083Z" fill="#434035"/>
<path d="M66.551 17.5015C66.3054 17.2603 65.9804 17.1276 65.6338 17.1276C65.6335 17.1276 65.6334 17.1276 65.6331 17.1276C63.4938 17.1276 61.7428 15.4553 61.6465 13.3197C61.6149 12.6253 61.0442 12.0815 60.3474 12.0815H11.4015C10.7046 12.0815 10.1338 12.6255 10.1023 13.3204C10.0104 15.3611 8.33994 17.0317 6.29919 17.1235C5.6045 17.1547 5.06042 17.7255 5.06042 18.4227V45.707C5.06042 46.4042 5.6045 46.9748 6.29919 47.006C8.33994 47.098 10.0104 48.7685 10.1023 50.8098C10.1339 51.5042 10.7047 52.048 11.4015 52.048H42.5608C43.1438 52.048 43.6163 51.5755 43.6163 50.9925C43.6163 50.4096 43.1438 49.937 42.5608 49.937H12.1274C11.691 47.3946 9.71371 45.4173 7.17135 44.9808V19.1485C9.71371 18.7122 11.691 16.7344 12.1274 14.1925H59.6219C60.0762 16.8151 62.1876 18.8396 64.8287 19.1861V37.1114C64.8287 37.6943 65.3012 38.1669 65.8843 38.1669C66.4673 38.1669 66.9398 37.6944 66.9398 37.1114V18.4287C66.9398 18.0772 66.8017 17.7479 66.551 17.5015Z" fill="#434035"/>
<path d="M69.0701 6.8125H2.92992C1.31442 6.8125 0 8.12692 0 9.74242V54.3866C0 56.0023 1.31442 57.3166 2.92992 57.3166H47.2335L45.665 60.6034C45.4635 61.0254 45.5126 61.5203 45.7927 61.8946C46.073 62.2691 46.5341 62.4551 46.9955 62.3813L49.9157 61.9119L51.5445 64.5856C51.7729 64.9608 52.1788 65.1872 52.6148 65.1872C52.6361 65.1872 52.6575 65.1866 52.6788 65.1855C53.139 65.1622 53.548 64.8894 53.7467 64.4734L56.577 58.5428L59.4069 64.473C59.6052 64.8889 60.0142 65.162 60.4745 65.1857C60.496 65.1868 60.5177 65.1873 60.5391 65.1873C60.9751 65.1873 61.381 64.9609 61.6094 64.5859L63.2382 61.9122L66.1584 62.3817C66.6212 62.4557 67.0815 62.2691 67.3615 61.8945C67.6416 61.5198 67.6903 61.0251 67.4888 60.6038L65.9202 57.317H69.0701C70.6856 57.317 72 56.0027 72 54.3871V9.74242C72 8.12692 70.6856 6.8125 69.0701 6.8125ZM52.5236 62.1351L51.4187 60.3217C51.1526 59.8849 50.6545 59.6552 50.1491 59.7363L48.274 60.0378L50.2493 55.8989C51.0278 56.6933 52.1369 57.1225 53.2882 57.0141C53.6818 56.9764 54.0764 57.0824 54.3988 57.3115C54.5051 57.3872 54.6155 57.4542 54.7273 57.5175L52.5236 62.1351ZM56.8287 55.8761C56.8254 55.8766 56.8222 55.8768 56.8188 55.8774C56.6588 55.901 56.4961 55.901 56.3361 55.8775C56.332 55.877 56.3279 55.8766 56.324 55.876C56.076 55.8376 55.835 55.7427 55.6215 55.591C54.9831 55.137 54.2208 54.8957 53.4431 54.8957C53.3253 54.8957 53.2072 54.9013 53.089 54.9124C52.3903 54.9784 51.7264 54.5946 51.4347 53.9573C51.3052 53.6744 51.14 53.4125 50.9482 53.173C50.9397 53.1611 50.9304 53.1498 50.9216 53.1383C50.9109 53.1254 50.9009 53.112 50.8902 53.0992C50.878 53.0849 50.8652 53.0712 50.8521 53.0576C50.5031 52.656 50.0718 52.328 49.5806 52.1033C48.9431 51.8117 48.5594 51.1468 48.6255 50.4489C48.7104 49.5508 48.4695 48.6514 47.9469 47.9163C47.5407 47.345 47.5407 46.5773 47.9468 46.006C48.4695 45.2709 48.7104 44.3715 48.6255 43.4734C48.5594 42.7755 48.9433 42.1106 49.5806 41.819C50.4008 41.4437 51.0592 40.7853 51.4346 39.965C51.7264 39.3275 52.3927 38.9436 53.089 39.0099C53.988 39.0947 54.8866 38.8538 55.6217 38.3312C56.1932 37.9251 56.9609 37.9251 57.5321 38.3312C58.2673 38.8538 59.166 39.0941 60.0647 39.0099C60.7632 38.9435 61.4277 39.3277 61.7193 39.965C62.0947 40.7853 62.7531 41.4437 63.5732 41.8188C64.2106 42.1106 64.5945 42.7755 64.5285 43.4733C64.4435 44.3715 64.6844 45.2709 65.207 46.0058C65.6132 46.5772 65.6132 47.3448 65.207 47.9162C64.6844 48.6514 64.4435 49.5508 64.5285 50.4487C64.5945 51.1466 64.2106 51.8115 63.573 52.1033C63.083 52.3276 62.6527 52.6547 62.304 53.0551C62.2897 53.07 62.2756 53.085 62.2624 53.1006C62.2533 53.1116 62.2447 53.123 62.2356 53.1341C62.225 53.1476 62.2143 53.1608 62.2045 53.1747C62.0132 53.4138 61.8484 53.6751 61.7193 53.9573C61.4275 54.5946 60.7627 54.9787 60.0647 54.9124C59.1675 54.8279 58.2675 55.0684 57.5321 55.591C57.3183 55.7428 57.077 55.8379 56.8287 55.8761ZM63.0046 59.7362C62.4991 59.6553 62.0013 59.8849 61.7351 60.3219L60.6303 62.1352L58.4266 57.5175C58.5384 57.4542 58.6486 57.3872 58.7551 57.3115C59.0777 57.0823 59.4726 56.976 59.8657 57.0139C61.0175 57.1225 62.1263 56.6933 62.9048 55.8989L64.8799 60.0377L63.0046 59.7362ZM69.8891 54.3868C69.8891 54.8383 69.5218 55.2058 69.0701 55.2058H64.9128L64.3686 54.0653C64.396 54.0508 64.4233 54.0356 64.4517 54.0227C65.9052 53.3574 66.7806 51.8412 66.63 50.2499C66.5927 49.8561 66.6983 49.4617 66.9275 49.1392C67.8537 47.8363 67.8537 46.0855 66.9274 44.7827C66.6983 44.4603 66.5927 44.066 66.63 43.6721C66.7806 42.0808 65.9052 40.5646 64.4515 39.8993C64.0919 39.7346 63.8032 39.4459 63.6386 39.0864C62.9734 37.6327 61.4565 36.7576 59.8656 36.9081C59.4716 36.9456 59.0774 36.8397 58.7551 36.6105C57.4522 35.6844 55.7013 35.6842 54.3985 36.6105C54.0761 36.8397 53.6808 36.9456 53.288 36.9079C51.6947 36.758 50.1802 37.6327 49.5152 39.0862C49.3505 39.4459 49.0618 39.7345 48.7021 39.8992C47.2486 40.5645 46.3732 42.0805 46.5238 43.672C46.5611 44.0659 46.4555 44.4602 46.2262 44.7827C45.3001 46.0855 45.3001 47.8363 46.2262 49.1391C46.4555 49.4614 46.5611 49.8558 46.5238 50.2497C46.3732 51.8412 47.2486 53.3574 48.7021 54.0226C48.7305 54.0355 48.7576 54.0507 48.7851 54.0652L48.2408 55.2058H2.92992C2.47837 55.2058 2.11092 54.8385 2.11092 54.3868V9.74242C2.11092 9.29087 2.47823 8.92342 2.92992 8.92342H69.0701C69.5216 8.92342 69.8891 9.29087 69.8891 9.74242V54.3868Z" fill="#434035"/>
<path d="M56.4993 40.4033C52.8833 40.4033 49.9414 43.3452 49.9414 46.9611C49.9414 50.5771 52.8833 53.519 56.4993 53.519C60.1153 53.519 63.0571 50.577 63.0571 46.9611C63.0571 43.3451 60.1153 40.4033 56.4993 40.4033ZM56.4993 51.4079C54.0472 51.4079 52.0523 49.413 52.0523 46.9609C52.0523 44.509 54.0472 42.5141 56.4993 42.5141C58.9513 42.5141 60.9462 44.509 60.9462 46.9609C60.9462 49.413 58.9513 51.4079 56.4993 51.4079Z" fill="#434035"/>
</svg>
