<svg width="64" height="64" fill="none" xmlns="http://www.w3.org/2000/svg"><g clip-path="url(#a)" fill="#434035"><path d="M28.349 64h.501a4.24 4.24 0 0 0 3.2-1.474A4.24 4.24 0 0 0 35.25 64h.502c13.846-.007 25.073-11.22 25.098-25.067v-8a17.08 17.08 0 0 0-14.133-16.795 7.884 7.884 0 0 0 1.76-1.764c2.512-3.514 1.52-8.142 1.478-8.337a1.067 1.067 0 0 0-.76-.798c-6.72-1.834-10.864.861-13.27 3.767l.238-3.592A3.2 3.2 0 0 0 32.971 0h-1.842a3.198 3.198 0 0 0-3.192 3.414l.238 3.59c-2.405-2.905-6.55-5.6-13.27-3.766a1.068 1.068 0 0 0-.76.798c-.043.195-1.034 4.823 1.479 8.336a7.866 7.866 0 0 0 1.76 1.767A17.08 17.08 0 0 0 3.25 30.933v8C3.275 52.78 14.502 63.993 28.349 64Zm19.62-58.87a8.92 8.92 0 0 1-1.234 6.01 7.264 7.264 0 0 1-5.36 2.727H39.44a8.409 8.409 0 0 0-4.039 1.03l.226-3.413c1.466-3.215 4.956-8.044 12.342-6.355ZM30.35 2.47c.2-.216.483-.338.778-.337h1.842a1.068 1.068 0 0 1 1.066 1.138l-.892 13.428c-.42.465-.787.975-1.095 1.522a8.463 8.463 0 0 0-1.092-1.522L30.066 3.27a1.06 1.06 0 0 1 .285-.8ZM16.13 5.13c7.389-1.69 10.88 3.139 12.341 6.354l.227 3.413a8.41 8.41 0 0 0-4.039-1.03h-1.935a7.263 7.263 0 0 1-5.36-2.727 8.921 8.921 0 0 1-1.234-6.01ZM5.383 30.932C5.393 22.69 12.073 16.01 20.317 16h4.337a6.331 6.331 0 0 1 6.33 6.318v1.846a1.067 1.067 0 1 0 2.133 0v-1.846A6.33 6.33 0 0 1 39.447 16h4.336c8.244.009 14.925 6.69 14.934 14.933v8c-.023 12.67-10.297 22.928-22.965 22.934h-.502a2.133 2.133 0 0 1-2.133-2.134 1.067 1.067 0 1 0-2.134 0 2.133 2.133 0 0 1-2.133 2.134h-.501C15.68 61.86 5.406 51.602 5.383 38.933v-8Z"/><path d="M29.893 53.069a2.987 2.987 0 0 0 4.196 0l11.12-11.032a9.587 9.587 0 0 0-.005-13.63 9.765 9.765 0 0 0-13.213-.45 9.765 9.765 0 0 0-13.142.38 9.331 9.331 0 0 0-2.8 6.713 10.16 10.16 0 0 0 2.97 7.232l10.874 10.787Zm-9.558-23.202a7.629 7.629 0 0 1 10.648.06l.259.258a1.067 1.067 0 0 0 1.502 0l.258-.256a7.627 7.627 0 0 1 10.706 0 7.459 7.459 0 0 1 0 10.595l-11.125 11.03a.854.854 0 0 1-1.19 0L20.521 40.767a8.017 8.017 0 0 1-2.34-5.705 7.214 7.214 0 0 1 2.153-5.195Z"/><path d="M32.05 46.933c.59 0 1.068-.477 1.068-1.066V34.133a1.067 1.067 0 0 0-2.134 0v11.734c0 .589.478 1.066 1.067 1.066ZM26.239 40.427a1.066 1.066 0 0 0 1.431-.478l1.067-2.133a1.067 1.067 0 1 0-1.91-.954l-1.066 2.133a1.066 1.066 0 0 0 .478 1.432ZM36.424 39.944a1.067 1.067 0 0 0 1.909-.954l-1.067-2.133a1.067 1.067 0 0 0-1.91.953l1.068 2.133Z"/></g><defs><clipPath id="a"><path fill="#fff" d="M0 0h64v64H0z"/></clipPath></defs></svg>