<svg width="72" height="72" fill="none" xmlns="http://www.w3.org/2000/svg"><path d="M56.5 19.285h-41a1.055 1.055 0 1 0 0 2.111h41a1.055 1.055 0 1 0 0-2.11ZM56.5 30.778h-41a1.055 1.055 0 1 0 0 2.111h41a1.055 1.055 0 1 0 0-2.11ZM43.059 38.237H28.942a1.055 1.055 0 1 0 0 2.111H43.06a1.055 1.055 0 1 0 0-2.11ZM56.5 25.008H25.916a1.055 1.055 0 1 0 0 2.111h30.582a1.055 1.055 0 1 0 0-2.11ZM21.007 25.008h-5.506a1.055 1.055 0 1 0 0 2.111h5.506a1.055 1.055 0 1 0 0-2.11Z" fill="#434035"/><path d="M66.551 17.502a1.3 1.3 0 0 0-.917-.374 3.982 3.982 0 0 1-3.987-3.808 1.297 1.297 0 0 0-1.3-1.239H11.401c-.696 0-1.267.545-1.299 1.24-.092 2.04-1.762 3.71-3.803 3.803a1.297 1.297 0 0 0-1.239 1.299v27.284c0 .697.545 1.268 1.24 1.299 2.04.092 3.71 1.763 3.802 3.804a1.297 1.297 0 0 0 1.3 1.238H42.56a1.055 1.055 0 1 0 0-2.111H12.127a6.057 6.057 0 0 0-4.956-4.956V19.148a6.057 6.057 0 0 0 4.956-4.955h47.495a6.088 6.088 0 0 0 5.207 4.993v17.925a1.056 1.056 0 0 0 2.11 0V18.43c0-.352-.137-.681-.388-.927Z" fill="#434035"/><path d="M69.07 6.813H2.93A2.933 2.933 0 0 0 0 9.742v44.644a2.933 2.933 0 0 0 2.93 2.93h44.303l-1.568 3.286a1.25 1.25 0 0 0 .128 1.292c.28.374.741.56 1.203.486l2.92-.47 1.629 2.675a1.252 1.252 0 0 0 2.202-.113l2.83-5.93 2.83 5.93a1.253 1.253 0 0 0 2.202.113l1.63-2.674 2.92.47a1.25 1.25 0 0 0 1.203-.487c.28-.375.328-.87.127-1.291l-1.569-3.287h3.15a2.933 2.933 0 0 0 2.93-2.93V9.742a2.933 2.933 0 0 0-2.93-2.93ZM52.524 62.135l-1.105-1.813a1.249 1.249 0 0 0-1.27-.586l-1.875.302 1.975-4.14a3.762 3.762 0 0 0 3.04 1.116c.393-.038.787.068 1.11.297.106.076.216.143.328.206l-2.203 4.618Zm4.305-6.259-.01.001c-.16.024-.323.024-.483 0l-.012-.001a1.646 1.646 0 0 1-.703-.285 3.76 3.76 0 0 0-2.532-.679 1.65 1.65 0 0 1-1.654-.955 3.76 3.76 0 0 0-.487-.784l-.026-.035-.032-.039a3.756 3.756 0 0 0-1.31-.996 1.65 1.65 0 0 1-.954-1.654 3.761 3.761 0 0 0-.68-2.533 1.65 1.65 0 0 1 0-1.91 3.76 3.76 0 0 0 .68-2.533 1.65 1.65 0 0 1 .955-1.654 3.76 3.76 0 0 0 1.854-1.854 1.65 1.65 0 0 1 1.654-.955 3.76 3.76 0 0 0 2.533-.679 1.65 1.65 0 0 1 1.91 0 3.764 3.764 0 0 0 2.533.679 1.65 1.65 0 0 1 1.654.955 3.76 3.76 0 0 0 1.854 1.854 1.65 1.65 0 0 1 .955 1.654 3.76 3.76 0 0 0 .679 2.533 1.65 1.65 0 0 1 0 1.91 3.76 3.76 0 0 0-.678 2.533 1.65 1.65 0 0 1-.956 1.654 3.76 3.76 0 0 0-1.31.998c-.01.01-.018.022-.027.033l-.031.04c-.192.24-.357.501-.486.783a1.65 1.65 0 0 1-1.654.955 3.765 3.765 0 0 0-2.533.679 1.646 1.646 0 0 1-.703.285Zm6.176 3.86a1.249 1.249 0 0 0-1.27.586l-1.105 1.813-2.203-4.617c.111-.064.222-.13.328-.206.323-.23.718-.336 1.11-.298a3.76 3.76 0 0 0 3.04-1.115l1.975 4.139-1.875-.302Zm6.884-5.35a.82.82 0 0 1-.819.82h-4.157l-.544-1.14c.027-.015.054-.03.083-.043a3.763 3.763 0 0 0 2.178-3.773 1.65 1.65 0 0 1 .297-1.11 3.762 3.762 0 0 0 0-4.357 1.65 1.65 0 0 1-.297-1.11 3.763 3.763 0 0 0-2.178-3.774 1.65 1.65 0 0 1-.813-.813 3.763 3.763 0 0 0-3.773-2.178 1.647 1.647 0 0 1-1.11-.297 3.763 3.763 0 0 0-4.358 0c-.322.229-.717.335-1.11.297a3.762 3.762 0 0 0-3.773 2.178 1.65 1.65 0 0 1-.813.813 3.763 3.763 0 0 0-2.178 3.773c.037.394-.069.788-.298 1.11a3.763 3.763 0 0 0 0 4.357c.23.322.335.717.298 1.11a3.763 3.763 0 0 0 2.178 3.774c.029.012.056.028.083.042l-.544 1.14H2.93a.82.82 0 0 1-.82-.818V9.742a.82.82 0 0 1 .82-.819h66.14a.82.82 0 0 1 .82.82v44.644Z" fill="#434035"/><path d="M56.5 40.403a6.565 6.565 0 0 0-6.559 6.558A6.565 6.565 0 0 0 56.5 53.52a6.565 6.565 0 0 0 6.558-6.558 6.565 6.565 0 0 0-6.558-6.558Zm0 11.005a4.452 4.452 0 0 1-4.448-4.447 4.452 4.452 0 0 1 4.447-4.447 4.452 4.452 0 0 1 4.447 4.447 4.452 4.452 0 0 1-4.447 4.447Z" fill="#434035"/></svg>