<svg width="96" height="96" viewBox="0 0 96 96" fill="none" xmlns="http://www.w3.org/2000/svg">
<g clip-path="url(#clip0_324_4032)">
<rect x="1" y="1" width="94" height="94" rx="47" stroke="white" stroke-width="2"/>
<path d="M64.9992 33.7C64.9992 35.1911 63.7904 36.4 62.2992 36.4C60.808 36.4 59.5992 35.1911 59.5992 33.7C59.5992 32.2088 60.808 31 62.2992 31C63.7904 31 64.9992 32.2088 64.9992 33.7Z" fill="white"/>
<path fill-rule="evenodd" clip-rule="evenodd" d="M59.7992 48C59.7992 54.5169 54.5162 59.7999 47.9992 59.7999C41.4823 59.7999 36.1992 54.5169 36.1992 48C36.1992 41.483 41.4823 36.2 47.9992 36.2C54.5162 36.2 59.7992 41.483 59.7992 48ZM47.9992 57C52.9698 57 56.9992 52.9705 56.9992 48C56.9992 43.0294 52.9698 39 47.9992 39C43.0287 39 38.9992 43.0294 38.9992 48C38.9992 52.9705 43.0287 57 47.9992 57Z" fill="white"/>
<path fill-rule="evenodd" clip-rule="evenodd" d="M23.1992 46.96C23.1992 42.5717 23.2002 39.3528 23.4078 36.8116C23.6142 34.2845 24.0191 32.5336 24.7687 31.0625C26.1493 28.353 28.3522 26.15 31.0618 24.7695C32.5329 24.0199 34.2838 23.615 36.8109 23.4085C39.352 23.2009 42.571 23.2 46.9592 23.2H49.0392C53.4274 23.2 56.6464 23.2009 59.1875 23.4085C61.7147 23.615 63.4655 24.0199 64.9367 24.7695C67.6462 26.15 69.8491 28.353 71.2297 31.0625C71.9793 32.5336 72.3842 34.2845 72.5907 36.8116C72.7983 39.3528 72.7992 42.5717 72.7992 46.96V49.0399C72.7992 53.4282 72.7983 56.6471 72.5907 59.1883C72.3842 61.7154 71.9793 63.4663 71.2297 64.9374C69.8491 67.6469 67.6462 69.8499 64.9367 71.2304C63.4655 71.98 61.7147 72.3849 59.1875 72.5914C56.6464 72.799 53.4274 72.7999 49.0392 72.7999H46.9592C42.571 72.7999 39.352 72.799 36.8109 72.5914C34.2838 72.3849 32.5329 71.98 31.0618 71.2304C28.3522 69.8499 26.1493 67.6469 24.7687 64.9374C24.0191 63.4663 23.6142 61.7154 23.4078 59.1883C23.2002 56.6471 23.1992 53.4282 23.1992 49.0399V46.96ZM49.0392 26H46.9592C42.5253 26 39.4397 26.0031 37.0389 26.1992C34.6855 26.3915 33.3439 26.7492 32.3329 27.2643C30.1502 28.3764 28.3757 30.151 27.2635 32.3337C26.7484 33.3446 26.3908 34.6862 26.1985 37.0396C26.0023 39.4404 25.9992 42.5261 25.9992 46.96V49.0399C25.9992 53.4738 26.0023 56.5595 26.1985 58.9603C26.3908 61.3137 26.7484 62.6553 27.2635 63.6662C28.3757 65.8489 30.1502 67.6235 32.3329 68.7356C33.3439 69.2507 34.6855 69.6084 37.0389 69.8007C39.4397 69.9968 42.5253 70 46.9592 70H49.0392C53.4731 70 56.5587 69.9968 58.9595 69.8007C61.3129 69.6084 62.6545 69.2507 63.6655 68.7356C65.8482 67.6235 67.6228 65.8489 68.7349 63.6662C69.25 62.6553 69.6077 61.3137 69.8 58.9603C69.9961 56.5595 69.9992 53.4738 69.9992 49.0399V46.96C69.9992 42.5261 69.9961 39.4404 69.8 37.0396C69.6077 34.6862 69.25 33.3446 68.7349 32.3337C67.6228 30.151 65.8482 28.3764 63.6655 27.2643C62.6545 26.7492 61.3129 26.3915 58.9595 26.1992C56.5587 26.0031 53.4731 26 49.0392 26Z" fill="white"/>
</g>
<defs>
<clipPath id="clip0_324_4032">
<rect width="96" height="96" rx="48" fill="white"/>
</clipPath>
</defs>
</svg>
