<svg width="64" height="64" fill="none" xmlns="http://www.w3.org/2000/svg"><g clip-path="url(#a)" fill="#434035"><path d="M10.134 22.933c-7.648 13.12 3.733 39.32 4.215 40.427.17.389.553.64.977.64h33.349c.424 0 .807-.252.977-.64.487-1.106 11.863-27.307 4.215-40.427C46.721 10.69 48.63 1.387 48.65 1.298A1.067 1.067 0 0 0 47.608 0H16.393a1.066 1.066 0 0 0-1.042 1.295c.02.092 1.93 9.394-5.217 21.638Zm5.9 38.934C14.767 58.803 9.48 45.312 9.64 34.062c4.428-.276 11.797-.114 15.413 2.054a87.981 87.981 0 0 0 2.762 1.584c.011.031.01.064.024.095a55.595 55.595 0 0 1 3.113 9.049.804.804 0 0 0-.019.09v14.933h-14.9ZM32 42.784a61.016 61.016 0 0 0-1.366-3.865 6.21 6.21 0 0 0 2.732 0A60.219 60.219 0 0 0 32 42.784Zm15.967 19.083h-14.9V46.933a.782.782 0 0 0-.018-.09 55.591 55.591 0 0 1 3.111-9.048c.015-.03.013-.063.025-.094a84.768 84.768 0 0 0 2.763-1.586c4.037-2.422 12.266-2.231 15.41-2.056.16 11.248-5.125 24.743-6.39 27.808Zm6.283-29.951c-3.787-.203-11.98-.28-16.397 2.368a70.412 70.412 0 0 1-3.307 1.875l-.076.042-.249.128c-.101.052-.197.106-.314.158a4.266 4.266 0 0 1-3.824 0l-.177-.088c-.179-.089-.373-.185-.574-.293a84.983 84.983 0 0 1-3.188-1.819c-4.527-2.714-13.108-2.546-16.396-2.365.148-2.774.91-5.48 2.232-7.922.093-.159.17-.311.26-.47 1.459.249 2.879.681 4.228 1.29.418.169.833.336 1.243.492.734.28 1.468.576 2.205.873 1.574.64 3.2 1.296 4.854 1.784 2.357.608 4.787.887 7.22.83h.02c2.433.059 4.862-.22 7.22-.826 1.655-.488 3.281-1.146 4.855-1.783.737-.298 1.47-.594 2.204-.874.411-.155.826-.32 1.245-.493a17.354 17.354 0 0 1 4.225-1.288c.09.158.168.31.26.47a18.748 18.748 0 0 1 2.23 7.91ZM17.628 2.133h28.744c-.302 2.856-.404 10.134 4.307 19.398a22.681 22.681 0 0 0-3.947 1.315c-.404.163-.805.32-1.2.476-.747.284-1.494.587-2.25.89-1.526.618-3.103 1.256-4.66 1.715a24.563 24.563 0 0 1-6.622.74 24.564 24.564 0 0 1-6.625-.74c-1.555-.46-3.133-1.097-4.659-1.715-.746-.303-1.5-.607-2.248-.89-.396-.15-.797-.313-1.201-.476a22.78 22.78 0 0 0-3.947-1.316c4.713-9.263 4.611-16.541 4.308-19.397Z"/><path d="M31.999 20.267a3.2 3.2 0 0 0 3.2-3.2 1.067 1.067 0 1 0-2.133 0 1.067 1.067 0 0 1-2.134 0 1.067 1.067 0 1 0-2.133 0 3.2 3.2 0 0 0 3.2 3.2ZM1.067 11.733h4.266v2.134a1.066 1.066 0 0 0 1.75.819l6.4-5.334a1.068 1.068 0 0 0 0-1.638l-6.4-5.333a1.067 1.067 0 0 0-1.75.82v2.132H1.067C.477 5.333 0 5.811 0 6.4v4.266c0 .59.478 1.067 1.067 1.067Zm1.066-4.266H6.4c.59 0 1.067-.478 1.067-1.067v-.923l3.667 3.056-3.667 3.056v-.923c0-.588-.478-1.066-1.067-1.066H2.133V7.467ZM62.933 5.334h-4.267V3.2a1.066 1.066 0 0 0-1.75-.819l-6.4 5.333a1.067 1.067 0 0 0 0 1.639l6.4 5.333a1.068 1.068 0 0 0 1.75-.82v-2.133h4.267c.59 0 1.067-.477 1.067-1.066V6.4c0-.589-.477-1.066-1.067-1.066ZM61.867 9.6H57.6c-.59 0-1.067.478-1.067 1.067v.922l-3.666-3.056 3.666-3.055V6.4c0 .59.478 1.067 1.067 1.067h4.267V9.6Z"/></g><defs><clipPath id="a"><path fill="#fff" d="M0 0h64v64H0z"/></clipPath></defs></svg>