<svg width="36" height="36" viewBox="0 0 36 36" fill="none" xmlns="http://www.w3.org/2000/svg">
<path d="M30.1487 31.8557V35.4C30.1487 35.7313 29.8801 36 29.5487 36C29.2174 36 28.9487 35.7313 28.9487 35.4V31.8557C28.9487 29.0962 26.7156 26.8628 23.9557 26.8629C22.6499 26.8629 21.4651 26.1977 20.7864 25.0833C20.6139 24.8003 20.7036 24.4312 20.9866 24.2588C21.2695 24.0863 21.6388 24.176 21.8112 24.459C22.2704 25.2128 23.0721 25.6628 23.9557 25.6628C27.3785 25.6628 30.1487 28.4326 30.1487 31.8557ZM20.1384 27.2096L17.9987 28.8661L14.3606 26.0495C15.1459 25.4187 15.6537 24.5012 15.736 23.459C16.454 23.6704 17.2133 23.7843 17.9988 23.7843C22.4238 23.7843 26.0238 20.1843 26.0238 15.7593C26.0238 15.7127 26.0248 11.5584 26.0218 11.5119C26.0014 11.1873 25.7308 10.9499 25.4238 10.9499C25.321 10.9499 24.5817 11.0962 23.8581 10.6608C22.7295 9.98182 22.7237 8.49353 22.7238 8.4786C22.7267 7.9911 22.1754 7.7034 21.7771 7.98518C19.3057 9.7347 16.4119 10.9211 13.2696 11.3609C12.9415 11.4069 12.7127 11.7101 12.7587 12.0383C12.8007 12.3383 13.0576 12.5552 13.3521 12.5552C13.4466 12.5552 15.3921 12.3171 17.6037 11.5139C19.0285 10.9964 20.3937 10.3211 21.6738 9.50138C22.116 11.1608 23.3563 12.084 24.8238 12.1673V15.7593C24.8238 19.5226 21.7622 22.5843 17.9988 22.5843C14.2355 22.5843 11.1738 19.5226 11.1738 15.7593V11.55C11.1738 11.2187 10.9052 10.95 10.5738 10.95C10.2425 10.95 9.97385 11.2187 9.97385 11.55V15.7594C9.97385 18.95 11.8457 21.7115 14.5488 23.004V23.1623C14.5488 24.5453 13.428 25.6628 12.0418 25.6628C11.2827 25.6628 10.5348 25.8002 9.82737 26.0706L9.44 25.7623C6.40017 23.3429 5.83085 19.0718 7.90392 15.9599C8.78742 14.6337 9.29885 13.0475 9.29885 11.3503V8.1003C9.29885 4.29548 12.3942 1.2 16.1988 1.2H19.7988C23.6035 1.2 26.6988 4.29533 26.6988 8.1V11.35C26.6988 13.0008 27.1789 14.5916 28.0872 15.9502C29.7483 18.435 29.745 21.6962 28.0286 24.1868C27.8406 24.4597 27.9093 24.8333 28.1821 25.0214C28.455 25.2093 28.8286 25.1406 29.0166 24.8678C31.0147 21.9686 31.017 18.1737 29.0848 15.2833C28.3089 14.1227 27.8988 12.7626 27.8988 11.35V8.1C27.8988 3.63368 24.2651 0 19.7988 0H16.1988C11.7324 0 8.09877 3.63382 8.09877 8.1003V11.35C8.09877 12.7585 7.68605 14.1225 6.90507 15.2948C4.48595 18.9264 5.17152 23.8656 8.6546 26.6701C6.94355 27.7925 5.84877 29.6987 5.84877 31.8557V35.4C5.84877 35.7313 6.11742 36 6.44877 36C6.78012 36 7.04877 35.7313 7.04877 35.4V31.8557C7.04877 29.0961 9.2819 26.8628 12.0417 26.8629C12.4394 26.8629 12.8322 26.7998 13.209 26.6756L17.6314 30.0994C17.8477 30.2668 18.1498 30.2668 18.366 30.0994L20.8731 28.1585C21.1351 27.9556 21.183 27.5788 20.9802 27.3167C20.7774 27.0548 20.4006 27.0068 20.1384 27.2096Z" fill="#434035"/>
</svg>
