<svg width="32" height="32" viewBox="0 0 32 32" fill="none" xmlns="http://www.w3.org/2000/svg">
<path d="M14.0513 1.66489C15.1735 0.7061 16.8265 0.706099 17.9487 1.66489L19.1239 2.66894C19.7291 3.18599 20.515 3.44133 21.3085 3.37875L22.8494 3.25723C24.3209 3.14119 25.6582 4.11276 26.0025 5.54807L26.3631 7.05115C26.5488 7.82516 27.0345 8.49366 27.7132 8.90944L29.0313 9.71688C30.29 10.4879 30.8008 12.0599 30.2357 13.4235L29.6439 14.8515C29.3392 15.5868 29.3392 16.4131 29.6439 17.1485L30.2357 18.5765C30.8008 19.9401 30.29 21.5121 29.0313 22.2831L27.7132 23.0906C27.0345 23.5063 26.5488 24.1748 26.3631 24.9489L26.0025 26.4519C25.6582 27.8872 24.3209 28.8588 22.8494 28.7428L21.3085 28.6213C20.515 28.5587 19.7291 28.814 19.1239 29.3311L17.9487 30.3351C16.8265 31.2939 15.1735 31.2939 14.0513 30.3351L12.8761 29.3311C12.2709 28.814 11.485 28.5587 10.6915 28.6213L9.15057 28.7428C7.6791 28.8588 6.34184 27.8872 5.9975 26.4519L5.63689 24.9489C5.4512 24.1748 4.96551 23.5063 4.28676 23.0906L2.96868 22.2831C1.71003 21.5121 1.19924 19.9401 1.76431 18.5765L2.35607 17.1485C2.66079 16.4132 2.66079 15.5869 2.35607 14.8515L1.76431 13.4235C1.19924 12.0599 1.71003 10.4879 2.96868 9.71688L4.28676 8.90945C4.96551 8.49366 5.4512 7.82517 5.63689 7.05115L5.9975 5.54807C6.34184 4.11276 7.6791 3.14119 9.15057 3.25723L10.6915 3.37875C11.485 3.44133 12.2709 3.18599 12.8761 2.66894L14.0513 1.66489Z" fill="#23AB7D"/>
<path d="M11 16L15.8889 21L22 12" stroke="white" stroke-width="2" stroke-linecap="round" stroke-linejoin="round"/>
</svg>
