<svg width="25" height="24" fill="none" xmlns="http://www.w3.org/2000/svg"><path d="M7.044 5a.871.871 0 0 0-1.232-.012A9.87 9.87 0 0 0 2.9 11.999a9.874 9.874 0 0 0 3.125 7.218.87.87 0 0 0 1.212-.03c.38-.379.333-.983-.032-1.332A8.076 8.076 0 0 1 4.7 12a8.07 8.07 0 0 1 2.332-5.685c.348-.354.384-.942.012-1.314Zm2.113 2.115a.857.857 0 0 0-1.21-.019A6.88 6.88 0 0 0 5.9 12a6.876 6.876 0 0 0 2.272 5.117.856.856 0 0 0 1.18-.044c.393-.394.32-1.013-.05-1.361A5.085 5.085 0 0 1 7.7 11.999c0-1.38.549-2.633 1.44-3.552.344-.353.4-.95.017-1.332Zm6.687 0a.857.857 0 0 1 1.21-.019A6.88 6.88 0 0 1 19.1 12a6.875 6.875 0 0 1-2.271 5.117.856.856 0 0 1-1.18-.044c-.393-.394-.32-1.013.05-1.361a5.085 5.085 0 0 0 1.601-3.712c0-1.38-.548-2.633-1.44-3.552-.343-.353-.4-.95-.016-1.332Zm2.113-2.114a.87.87 0 0 1 1.232-.012 9.87 9.87 0 0 1 2.911 7.01 9.874 9.874 0 0 1-3.124 7.218.87.87 0 0 1-1.212-.03c-.38-.379-.333-.983.033-1.332A8.076 8.076 0 0 0 20.3 12a8.07 8.07 0 0 0-2.331-5.685c-.348-.354-.384-.942-.012-1.314ZM12.5 10.199a1.8 1.8 0 1 0 0 3.6 1.8 1.8 0 0 0 0-3.6Z" fill="#fff"/></svg>