<svg width="36" height="36" fill="none" xmlns="http://www.w3.org/2000/svg"><path d="M30.149 31.856V35.4a.6.6 0 0 1-1.2 0v-3.544a4.99 4.99 0 0 0-4.993-4.993 3.684 3.684 0 0 1-3.17-1.78.6.6 0 1 1 1.025-.624 2.493 2.493 0 0 0 2.145 1.204 6.19 6.19 0 0 1 6.193 6.193Zm-10.01-4.646-2.14 1.656-3.638-2.817a3.676 3.676 0 0 0 1.375-2.59 8 8 0 0 0 2.263.325c4.425 0 8.025-3.6 8.025-8.025 0-.046 0-4.2-.002-4.247a.6.6 0 0 0-.598-.562c-.103 0-.842.146-1.566-.29-1.128-.678-1.134-2.166-1.134-2.181a.6.6 0 0 0-.947-.494 19.335 19.335 0 0 1-8.507 3.376.6.6 0 0 0 .082 1.194c.095 0 2.04-.238 4.252-1.041a20.573 20.573 0 0 0 4.07-2.013c.442 1.66 1.682 2.583 3.15 2.666v3.592a6.833 6.833 0 0 1-6.825 6.825 6.833 6.833 0 0 1-6.825-6.825V11.55a.6.6 0 0 0-1.2 0v4.21a8.035 8.035 0 0 0 4.575 7.244v.158c0 1.383-1.121 2.5-2.507 2.5a6.19 6.19 0 0 0-2.215.409l-.387-.309c-3.04-2.42-3.61-6.69-1.536-9.802a8.289 8.289 0 0 0 1.395-4.61V8.1c0-3.805 3.095-6.9 6.9-6.9h3.6c3.805 0 6.9 3.095 6.9 6.9v3.25c0 1.65.48 3.242 1.388 4.6a7.33 7.33 0 0 1-.058 8.237.6.6 0 0 0 .988.68c1.998-2.898 2-6.693.068-9.584a7.05 7.05 0 0 1-1.186-3.933V8.1c0-4.466-3.634-8.1-8.1-8.1h-3.6c-4.467 0-8.1 3.634-8.1 8.1v3.25a7.093 7.093 0 0 1-1.194 3.945c-2.42 3.631-1.733 8.57 1.75 11.375a6.176 6.176 0 0 0-2.806 5.186V35.4a.6.6 0 0 0 1.2 0v-3.544a4.99 4.99 0 0 1 4.993-4.993c.397 0 .79-.063 1.167-.187l4.422 3.423a.6.6 0 0 0 .735 0l2.507-1.94a.6.6 0 0 0-.735-.95Z" fill="#434035"/></svg>