<svg width="96" height="96" fill="none" xmlns="http://www.w3.org/2000/svg"><g clip-path="url(#a)"><rect x="1" y="1" width="94" height="94" rx="47" stroke="#fff" stroke-width="2"/><path d="M65 33.7a2.7 2.7 0 1 1-5.4 0 2.7 2.7 0 0 1 5.4 0Z" fill="#fff"/><path fill-rule="evenodd" clip-rule="evenodd" d="M59.8 48c0 6.517-5.284 11.8-11.8 11.8-6.518 0-11.8-5.283-11.8-11.8S41.481 36.2 48 36.2c6.516 0 11.8 5.283 11.8 11.8ZM48 57a9 9 0 1 0 0-18 9 9 0 0 0 0 18Z" fill="#fff"/><path fill-rule="evenodd" clip-rule="evenodd" d="M23.2 46.96c0-4.388 0-7.607.208-10.148.206-2.527.611-4.278 1.36-5.75a14.4 14.4 0 0 1 6.294-6.293c1.47-.75 3.222-1.154 5.749-1.36 2.541-.208 5.76-.209 10.148-.209h2.08c4.388 0 7.607 0 10.148.209 2.528.206 4.279.61 5.75 1.36a14.4 14.4 0 0 1 6.293 6.294c.75 1.47 1.154 3.222 1.36 5.749.208 2.54.21 5.76.21 10.148v2.08c0 4.388-.002 7.607-.21 10.148-.206 2.527-.61 4.278-1.36 5.75a14.4 14.4 0 0 1-6.293 6.292c-1.471.75-3.222 1.155-5.75 1.361-2.54.208-5.76.209-10.148.209h-2.08c-4.388 0-7.607-.001-10.148-.209-2.527-.206-4.278-.611-5.75-1.36a14.4 14.4 0 0 1-6.292-6.294c-.75-1.47-1.155-3.222-1.361-5.749-.208-2.54-.209-5.76-.209-10.148v-2.08ZM49.04 26h-2.08c-4.435 0-7.52.003-9.921.2-2.354.192-3.695.55-4.706 1.064a11.6 11.6 0 0 0-5.07 5.07c-.515 1.01-.872 2.352-1.065 4.706-.196 2.4-.199 5.486-.199 9.92v2.08c0 4.434.003 7.52.2 9.92.192 2.354.55 3.695 1.064 4.706a11.6 11.6 0 0 0 5.07 5.07c1.01.515 2.352.872 4.706 1.065 2.4.196 5.486.199 9.92.199h2.08c4.434 0 7.52-.003 9.92-.2 2.354-.192 3.695-.55 4.706-1.064a11.6 11.6 0 0 0 5.07-5.07c.515-1.01.873-2.352 1.065-4.706.196-2.4.2-5.486.2-9.92v-2.08c0-4.434-.004-7.52-.2-9.92-.192-2.354-.55-3.695-1.065-4.706a11.6 11.6 0 0 0-5.07-5.07c-1.01-.515-2.352-.872-4.706-1.065-2.4-.196-5.486-.199-9.92-.199Z" fill="#fff"/></g><defs><clipPath id="a"><rect width="96" height="96" rx="48" fill="#fff"/></clipPath></defs></svg>