<svg width="20" height="21" fill="none" xmlns="http://www.w3.org/2000/svg"><g clip-path="url(#a)"><path d="M17.071 3.429A9.935 9.935 0 0 0 10 .5a9.935 9.935 0 0 0-7.071 2.929A9.935 9.935 0 0 0 0 10.5a9.935 9.935 0 0 0 2.929 7.071A9.935 9.935 0 0 0 10 20.5a9.935 9.935 0 0 0 7.071-2.929A9.935 9.935 0 0 0 20 10.5a9.935 9.935 0 0 0-2.929-7.071Zm-12.73 13.84c.33-2.84 2.772-5.034 5.659-5.034 1.522 0 2.953.593 4.03 1.669a5.694 5.694 0 0 1 1.63 3.365A8.788 8.788 0 0 1 10 19.33a8.788 8.788 0 0 1-5.66-2.06ZM10 11.028A3.04 3.04 0 0 1 6.963 7.99 3.04 3.04 0 0 1 10 4.953a3.04 3.04 0 0 1 3.037 3.037A3.04 3.04 0 0 1 10 11.028Zm6.669 5.25a6.87 6.87 0 0 0-1.81-3.203 6.848 6.848 0 0 0-2.502-1.599 4.208 4.208 0 0 0 1.852-3.486c0-2.32-1.888-4.209-4.209-4.209a4.208 4.208 0 0 0-2.355 7.696 6.853 6.853 0 0 0-2.327 1.428 6.849 6.849 0 0 0-1.987 3.373A8.79 8.79 0 0 1 1.17 10.5c0-4.868 3.961-8.828 8.829-8.828s8.828 3.96 8.828 8.828a8.79 8.79 0 0 1-2.16 5.779Z" fill="#7B7972"/></g><defs><clipPath id="a"><path fill="#fff" transform="translate(0 .5)" d="M0 0h20v20H0z"/></clipPath></defs></svg>