<svg width="64" height="64" fill="none" xmlns="http://www.w3.org/2000/svg"><g clip-path="url(#a)" fill="#434035"><path d="M62.934 36.267H60.5a31.442 31.442 0 0 0-4.44-34.453 5.292 5.292 0 0 0-6.65-1.09l-.175.106a5.308 5.308 0 0 0-2.61 4.952c.051.84.062 1.698.031 2.543l-.032.689a28.922 28.922 0 0 1-3.851 12.96 19.88 19.88 0 0 0-1.024-.747 8.057 8.057 0 0 0-3.51-1.26 7.266 7.266 0 0 1 2.652-.593 1.066 1.066 0 0 0 .438-2.04c-.262-.117-5.973-2.632-9.326-.397-3.352-2.24-9.067.28-9.327.397a1.067 1.067 0 0 0 .438 2.04c.915.03 1.815.232 2.655.594a8.083 8.083 0 0 0-3.52 1.262 16.922 16.922 0 0 0-2.605 2.133v-.367a7.467 7.467 0 0 0-7.051-7.529A10.657 10.657 0 0 0 11.15.235a1.067 1.067 0 0 0-1.73.74L8.397 12.682 3.43 2.027a1.067 1.067 0 0 0-1.878-.106A10.65 10.65 0 0 0 5.44 16.747a7.46 7.46 0 0 0-3.973 9.45l3.787 10.07H1.067c-.589 0-1.066.478-1.066 1.066C.017 52.055 11.946 63.983 26.667 64h10.667c14.72-.016 26.65-11.946 26.666-26.666 0-.59-.478-1.067-1.066-1.067Zm-1.387-12a29.209 29.209 0 0 1-3.457 12h-9.13c.028-.238.041-.476.058-.715 8.988-9.957 7.328-22.88 7.253-23.43a1.066 1.066 0 0 0-2.113.29c.016.118 1.386 10.973-5.25 19.916a15.894 15.894 0 0 0-4.505-8.919 31.141 31.141 0 0 0 4.249-13.03l9.505-1.739a29.147 29.147 0 0 1 3.39 15.626Zm-11.235-21.6.176-.106a3.15 3.15 0 0 1 3.96.64 29.138 29.138 0 0 1 2.559 3.48l-8.213 1.494a28.82 28.82 0 0 0-.037-2.53 3.19 3.19 0 0 1 1.555-2.978ZM31.228 19.046c.007.007.015.008.021.015.007.006.009.015.015.021.05.038.102.072.158.1a1 1 0 0 0 .18.112c.065.022.132.036.2.044.13.046.273.046.404 0a1 1 0 0 0 .193-.042c.065-.033.126-.07.183-.115.054-.027.106-.06.154-.098.007-.006.009-.015.015-.021.007-.007.015-.008.022-.015.907-.952 2.52-1.038 4.08-.807-.665.303-1.303.66-1.909 1.067a1.066 1.066 0 0 0-.074 1.69 21.618 21.618 0 0 1 4.014 4.64 5.479 5.479 0 0 0-2.986-.092A6.72 6.72 0 0 0 32 29.227a6.72 6.72 0 0 0-3.895-3.685 5.499 5.499 0 0 0-2.986.091 21.62 21.62 0 0 1 4.012-4.64 1.066 1.066 0 0 0-.075-1.691 13.169 13.169 0 0 0-1.914-1.067c1.56-.232 3.174-.145 4.086.81Zm-7.806 3.97a5.934 5.934 0 0 1 1.416-.652 13.326 13.326 0 0 0-2.764 5.022 1.066 1.066 0 0 0 1.793 1.002c.15-.073.427-.178.533-.214.107-.035.184-.07.225-.088a8.436 8.436 0 0 1 1.053-.392 3.421 3.421 0 0 1 1.853-.097c1.667.468 2.926 2.822 3.433 4.95.024.081.057.158.099.23a.88.88 0 0 0 .038.09c.069.11.156.205.258.282.024.017.052.026.077.042.085.055.178.098.275.127.016 0 .027.016.043.019.08.02.16.03.242.029h.01c.082 0 .164-.01.243-.029.016 0 .027-.015.043-.02a1.05 1.05 0 0 0 .274-.126c.025-.016.054-.025.077-.043a1.04 1.04 0 0 0 .259-.28.88.88 0 0 0 .038-.09c.042-.073.075-.15.1-.23.506-2.134 1.764-4.48 3.432-4.95a3.42 3.42 0 0 1 1.852.096c.36.106.711.238 1.053.392a5.5 5.5 0 0 0 .225.088c.103.038.382.145.534.214a1.066 1.066 0 0 0 1.793-1.002 13.342 13.342 0 0 0-2.764-5.022c.497.153.971.371 1.411.649a13.867 13.867 0 0 1 6.358 11.505c-.005.585-.048 1.17-.13 1.75H17.196a13.263 13.263 0 0 1-.129-1.75 13.86 13.86 0 0 1 6.355-11.502Zm-12.08-19.53a8.532 8.532 0 0 1-.983 11.244l.983-11.243Zm-8.407 7.58a8.51 8.51 0 0 1-.451-6.017l4.77 10.23a8.512 8.512 0 0 1-4.319-4.214Zm.87 15.29 2.88-.505a1.067 1.067 0 0 0-.37-2.101l-3.14.551A5.342 5.342 0 0 1 7.54 18.32l3.713-.651a5.333 5.333 0 0 1 6.265 5.304l-.038 3.062A15.79 15.79 0 0 0 15.8 29.46l-2.384.427a1.067 1.067 0 0 0 .183 2.114c.063 0 .125-.006.187-.016l1.406-.25a14.686 14.686 0 0 0-.153 4.532H7.533l-3.729-9.91ZM6.791 38.4h55.052a24.44 24.44 0 0 1-.568 4.267H2.726a24.442 24.442 0 0 1-.57-4.267h4.636Zm30.542 23.467H26.667A24.572 24.572 0 0 1 3.307 44.8h57.386a24.57 24.57 0 0 1-23.36 17.067Z"/><path d="M13.852 23.505a1.068 1.068 0 0 0-1.235-.867l-2.102.37a1.067 1.067 0 1 0 .37 2.102l2.101-.37a1.066 1.066 0 0 0 .866-1.235ZM13.867 48H9.6a1.067 1.067 0 0 0 0 2.133h4.267a1.067 1.067 0 1 0 0-2.133ZM51.2 48H18.132a1.066 1.066 0 0 0 0 2.134h33.066a1.067 1.067 0 0 0 0-2.133Z"/></g><defs><clipPath id="a"><path fill="#fff" d="M0 0h64v64H0z"/></clipPath></defs></svg>