<svg width="25" height="24" viewBox="0 0 25 24" fill="none" xmlns="http://www.w3.org/2000/svg">
<path d="M7.044 4.99968C6.96388 4.91794 6.86845 4.85278 6.76315 4.80794C6.65784 4.76309 6.54473 4.73944 6.43028 4.73832C6.31584 4.73721 6.20229 4.75866 6.09613 4.80144C5.98997 4.84423 5.89329 4.90751 5.8116 4.98768C4.88754 5.90637 4.15453 6.99895 3.65487 8.20237C3.15522 9.4058 2.89879 10.6962 2.9004 11.9993C2.8989 13.3523 3.1755 14.6912 3.71304 15.9329C4.25058 17.1745 5.03758 18.2925 6.0252 19.2173C6.19142 19.3709 6.41099 19.4538 6.63728 19.4482C6.86358 19.4426 7.07878 19.349 7.2372 19.1873C7.6164 18.8081 7.5696 18.2045 7.2048 17.8553C6.4122 17.0999 5.78147 16.1913 5.35094 15.1846C4.92041 14.1779 4.69908 13.0942 4.7004 11.9993C4.7004 9.78408 5.5896 7.77528 7.032 6.31368C7.38 5.95968 7.416 5.37168 7.044 4.99968ZM9.1572 7.11528C8.99916 6.95266 8.7831 6.85933 8.55637 6.85573C8.32963 6.85213 8.11072 6.93856 7.9476 7.09608C7.29834 7.73682 6.78299 8.50029 6.43153 9.34206C6.08007 10.1838 5.89952 11.0871 5.9004 11.9993C5.89899 12.9638 6.10051 13.9178 6.49187 14.7993C6.88323 15.6809 7.45567 16.4702 8.172 17.1161C8.33669 17.2616 8.55107 17.3381 8.77068 17.3299C8.99029 17.3216 9.19831 17.2292 9.3516 17.0717C9.7452 16.6781 9.672 16.0589 9.3024 15.7109C8.79577 15.2346 8.39221 14.6595 8.11666 14.0211C7.84111 13.3827 7.69944 12.6946 7.7004 11.9993C7.7004 10.6193 8.2488 9.36648 9.1404 8.44728C9.4836 8.09448 9.54 7.49688 9.1572 7.11528ZM15.8436 7.11528C16.0016 6.95266 16.2177 6.85933 16.4444 6.85573C16.6712 6.85213 16.8901 6.93856 17.0532 7.09608C17.7025 7.73682 18.2178 8.50029 18.5693 9.34206C18.9207 10.1838 19.1013 11.0871 19.1004 11.9993C19.1018 12.9638 18.9003 13.9178 18.5089 14.7993C18.1176 15.6809 17.5451 16.4702 16.8288 17.1161C16.6641 17.2616 16.4497 17.3381 16.2301 17.3299C16.0105 17.3216 15.8025 17.2292 15.6492 17.0717C15.2556 16.6781 15.3288 16.0589 15.6984 15.7109C16.205 15.2346 16.6086 14.6595 16.8841 14.0211C17.1597 13.3827 17.3014 12.6946 17.3004 11.9993C17.3004 10.6193 16.752 9.36648 15.8604 8.44728C15.5172 8.09448 15.4608 7.49688 15.8436 7.11528ZM17.9568 5.00088C18.0369 4.91914 18.1323 4.85398 18.2377 4.80914C18.343 4.76429 18.4561 4.74064 18.5705 4.73952C18.685 4.73841 18.7985 4.75986 18.9047 4.80264C19.0108 4.84543 19.1075 4.90871 19.1892 4.98888C20.1131 5.90743 20.846 6.99981 21.3457 8.20302C21.8453 9.40623 22.1018 10.6964 22.1004 11.9993C22.1019 13.3523 21.8253 14.6912 21.2878 15.9329C20.7502 17.1745 19.9632 18.2925 18.9756 19.2173C18.8094 19.3709 18.5898 19.4538 18.3635 19.4482C18.1372 19.4426 17.922 19.349 17.7636 19.1873C17.3844 18.8081 17.4312 18.2045 17.7972 17.8553C18.5896 17.0998 19.2201 16.1911 19.6504 15.1844C20.0807 14.1778 20.3019 13.0941 20.3004 11.9993C20.3004 9.78408 19.4112 7.77528 17.9688 6.31368C17.6208 5.95968 17.5848 5.37168 17.9568 4.99968V5.00088ZM12.5004 10.1993C12.023 10.1993 11.5652 10.3889 11.2276 10.7265C10.89 11.0641 10.7004 11.5219 10.7004 11.9993C10.7004 12.4767 10.89 12.9345 11.2276 13.2721C11.5652 13.6096 12.023 13.7993 12.5004 13.7993C12.9778 13.7993 13.4356 13.6096 13.7732 13.2721C14.1108 12.9345 14.3004 12.4767 14.3004 11.9993C14.3004 11.5219 14.1108 11.0641 13.7732 10.7265C13.4356 10.3889 12.9778 10.1993 12.5004 10.1993Z" fill="white"/>
</svg>
