<svg width="64" height="64" viewBox="0 0 64 64" fill="none" xmlns="http://www.w3.org/2000/svg">
<g clip-path="url(#clip0_324_4124)">
<path d="M62.9335 36.2671H60.5014C66.0756 24.9332 64.3261 11.3635 56.0601 1.81383C54.3911 -0.0953296 51.6026 -0.552845 49.4112 0.723999L49.2364 0.830443C47.4962 1.85094 46.485 3.76987 46.6266 5.78206C46.6773 6.62141 46.6881 7.48028 46.6573 8.325L46.6251 9.01396C46.3834 13.5774 45.0631 18.0188 42.7736 21.9738C42.442 21.717 42.1036 21.467 41.7496 21.2272C40.6945 20.5388 39.4923 20.1071 38.2404 19.9675C39.0793 19.6047 39.9787 19.4035 40.8917 19.3742C41.3961 19.3757 41.8322 19.0246 41.9381 18.5319C42.0441 18.0393 41.7907 17.5393 41.3302 17.3337C41.068 17.2165 35.3571 14.7024 32.0036 16.9372C28.6521 14.697 22.9368 17.2165 22.6766 17.3337C22.2166 17.5393 21.9632 18.0393 22.0692 18.5319C22.1746 19.0246 22.6112 19.3757 23.1151 19.3742C24.0296 19.404 24.93 19.6057 25.7698 19.9684C24.514 20.1081 23.3084 20.5402 22.2498 21.2302C21.3128 21.8532 20.4403 22.5675 19.6454 23.3634V22.9958C19.6844 19.0051 16.5785 15.6887 12.5937 15.467C14.4643 13.2737 15.3671 10.4163 15.0951 7.5462C14.8236 4.67611 13.4008 2.03844 11.1513 0.235234C10.8447 -0.0108577 10.4267 -0.067986 10.0649 0.0863094C9.70307 0.241093 9.45551 0.582399 9.42134 0.974485L8.39742 12.6834L3.42969 2.02721C3.26417 1.67028 2.91554 1.43346 2.52247 1.411C2.1299 1.38854 1.75637 1.58483 1.55178 1.92077C0.0493523 4.38998 -0.384726 7.36359 0.348666 10.1595C1.08206 12.9553 2.91993 15.3332 5.44042 16.7473C1.81887 18.344 0.0747428 22.4914 1.46731 26.1969L5.25389 36.2671H1.06741C0.478059 36.2671 0.000524756 36.7447 0.000524756 37.3335C0.0171262 52.0541 11.9462 63.9837 26.6673 64.0003H37.3337C52.0542 63.9837 63.9838 52.0541 63.9999 37.3335C63.9999 36.7447 63.5224 36.2671 62.9335 36.2671ZM61.5468 24.2663C61.2734 28.4689 60.0937 32.5626 58.0898 36.2671H48.96C48.9879 36.0293 49.0015 35.7911 49.0177 35.5523C58.0063 25.5954 56.3457 12.6716 56.271 12.1214C56.1821 11.5457 55.648 11.1482 55.0713 11.2278C54.4946 11.3069 54.0879 11.8342 54.1582 12.4124C54.1739 12.5296 55.5444 23.3849 48.9078 32.3277C48.4039 28.9479 46.8238 25.8204 44.4025 23.4093C46.7691 19.4353 48.2208 14.9836 48.6519 10.3782L58.1567 8.64043C60.7212 13.4314 61.8955 18.8435 61.5468 24.2663ZM50.3116 2.66734L50.4879 2.5609C51.7906 1.79821 53.4507 2.06627 54.4473 3.20054C55.3853 4.29574 56.2412 5.45931 57.0068 6.68098L48.794 8.17461C48.8175 7.32648 48.8077 6.47639 48.7574 5.64534C48.6685 4.43832 49.2706 3.28501 50.3116 2.66734ZM31.2283 19.0456C31.2346 19.0534 31.2429 19.0544 31.2493 19.0607C31.2556 19.0671 31.258 19.0759 31.2644 19.0822C31.3137 19.1203 31.3664 19.1535 31.4221 19.1813C31.4778 19.2253 31.5378 19.2629 31.6013 19.2941C31.6667 19.3156 31.7336 19.3303 31.802 19.3381C31.9328 19.3845 32.0754 19.3845 32.2063 19.3381C32.2717 19.3303 32.3367 19.3161 32.3992 19.2956C32.4636 19.2634 32.5246 19.2253 32.5818 19.1813C32.636 19.1535 32.6877 19.1203 32.7365 19.0832C32.7429 19.0769 32.7449 19.0681 32.7512 19.0617C32.7575 19.0554 32.7663 19.0544 32.7727 19.0471C33.6804 18.0954 35.2932 18.009 36.8527 18.2404C36.1882 18.5427 35.5495 18.8991 34.9445 19.3073C34.6726 19.4973 34.5046 19.8029 34.49 20.134C34.4753 20.4655 34.6159 20.7844 34.8698 20.9977C36.4216 22.3454 37.7736 23.9074 38.8844 25.6369C37.9167 25.3302 36.8825 25.2985 35.8981 25.5451C34.1443 26.1784 32.7322 27.5123 32.0002 29.2272C31.2693 27.5113 29.8586 26.1764 28.1048 25.5416C27.1199 25.296 26.0862 25.3278 25.1185 25.6334C26.2283 23.9035 27.5799 22.341 29.1311 20.9924C29.385 20.779 29.5252 20.4601 29.5105 20.1286C29.4959 19.7976 29.3279 19.4919 29.0564 19.302C28.449 18.8938 27.8084 18.5368 27.1419 18.2351C28.7024 18.0026 30.3162 18.09 31.2283 19.0456ZM23.4222 23.0158C23.8636 22.7375 24.3392 22.5182 24.8377 22.3644C23.5633 23.818 22.6199 25.5314 22.074 27.3859C21.9622 27.8507 22.1737 28.3331 22.5911 28.566C23.0081 28.7994 23.5296 28.7262 23.867 28.3878C24.0174 28.3151 24.2938 28.2096 24.4002 28.1744C24.5071 28.1393 24.5838 28.1041 24.6253 28.0856C24.9671 27.9318 25.3191 27.8004 25.678 27.6935C26.2752 27.4913 26.9163 27.4581 27.531 27.5973C29.198 28.0646 30.4568 30.4195 30.9636 32.5474C30.9875 32.628 31.0207 32.7052 31.0627 32.7779C31.074 32.8087 31.0867 32.8384 31.1013 32.8677C31.1697 32.9761 31.2571 33.0718 31.3591 33.149C31.3826 33.1661 31.4114 33.1749 31.4363 33.191C31.5212 33.2462 31.614 33.2891 31.7112 33.3179C31.7273 33.3179 31.738 33.3336 31.7541 33.337C31.8332 33.3565 31.9143 33.3663 31.9958 33.3658H32.0066C32.0881 33.3663 32.1697 33.3565 32.2488 33.337C32.2649 33.337 32.2756 33.3218 32.2917 33.3179C32.3884 33.2891 32.4812 33.2462 32.5657 33.191C32.591 33.1749 32.6199 33.1661 32.6433 33.148C32.7458 33.0714 32.8337 32.9761 32.9016 32.8677C32.9162 32.8384 32.9289 32.8087 32.9402 32.7779C32.9822 32.7052 33.0154 32.628 33.0393 32.5474C33.5461 30.4142 34.8044 28.0675 36.4719 27.5973C37.0866 27.4581 37.7277 27.4913 38.3244 27.6935C38.6838 27.8004 39.0353 27.9318 39.3771 28.0856C39.4191 28.1041 39.5002 28.1359 39.6022 28.1744C39.7047 28.2125 39.984 28.3194 40.1359 28.3878C40.4728 28.7262 40.9943 28.7994 41.4118 28.566C41.8292 28.3331 42.0402 27.8507 41.9288 27.3859C41.3825 25.5319 40.4391 23.818 39.1652 22.3644C39.6618 22.5173 40.1364 22.7355 40.5763 23.0129C44.4938 25.5358 46.8819 29.858 46.9337 34.5176C46.9288 35.1031 46.8858 35.6875 46.8043 36.2671H17.1962C17.1146 35.6875 17.0717 35.1031 17.0673 34.5176C17.118 29.8595 19.5057 25.5382 23.4222 23.0158ZM11.3422 3.48667C13.894 6.94709 13.4726 11.7654 10.3588 14.7302L11.3422 3.48667ZM2.93507 11.0652C2.05519 9.18242 1.89455 7.0423 2.4839 5.04915L7.25388 15.2786C5.34813 14.4485 3.81201 12.95 2.93507 11.0652ZM3.8042 26.3566L6.68455 25.8512C7.05954 25.7853 7.37155 25.5241 7.50192 25.1662C7.63229 24.8078 7.56198 24.4074 7.31735 24.1154C7.07272 23.8234 6.6904 23.6837 6.31541 23.7497L3.17481 24.3014C2.78761 21.4587 4.71484 18.8181 7.53952 18.3195L11.2529 17.6687C12.8153 17.3913 14.4203 17.8239 15.6312 18.8493C16.8427 19.8747 17.5341 21.3864 17.5184 22.9733L17.4799 26.0348C16.7841 27.1046 16.2201 28.255 15.8012 29.4605L13.4169 29.8873C12.8827 29.9923 12.5131 30.483 12.56 31.026C12.6069 31.5684 13.0551 31.9884 13.5995 32.0006C13.6625 32.0001 13.725 31.9952 13.787 31.9845L15.1933 31.7349C14.9081 33.2286 14.8563 34.7574 15.0404 36.2671H7.53317L3.8042 26.3566ZM6.79197 38.4004H61.8442C61.7807 39.8364 61.5903 41.2642 61.2758 42.667H2.72511C2.41017 41.2642 2.22023 39.8364 2.15627 38.4004H6.79197ZM37.3337 61.867H26.6673C16.0018 61.8509 6.56443 54.9559 3.30713 44.8003H60.6933C57.436 54.9559 47.9991 61.8509 37.3337 61.867Z" fill="#434035"/>
<path d="M13.8517 23.5046C13.8028 23.2258 13.6451 22.9782 13.4137 22.8156C13.1822 22.653 12.8951 22.5895 12.6168 22.6384L10.5153 23.0085C9.97035 23.1042 9.58901 23.6003 9.63686 24.1511C9.68471 24.7023 10.1456 25.1257 10.6989 25.1257C10.7614 25.1257 10.8239 25.1203 10.8854 25.11L12.986 24.7399C13.2643 24.6906 13.5123 24.5334 13.6744 24.3014C13.837 24.07 13.901 23.7834 13.8517 23.5046Z" fill="#434035"/>
<path d="M13.8667 48.0002H9.60009C9.01123 48.0002 8.5332 48.4778 8.5332 49.0666C8.5332 49.656 9.01123 50.1335 9.60009 50.1335H13.8667C14.456 50.1335 14.9335 49.656 14.9335 49.0666C14.9335 48.4778 14.456 48.0002 13.8667 48.0002Z" fill="#434035"/>
<path d="M51.1994 48.0005H18.1328C17.5439 48.0005 17.0664 48.478 17.0664 49.0669C17.0664 49.6562 17.5439 50.1338 18.1328 50.1338H51.1994C51.7882 50.1338 52.2658 49.6562 52.2658 49.0669C52.2658 48.478 51.7882 48.0005 51.1994 48.0005Z" fill="#434035"/>
</g>
<defs>
<clipPath id="clip0_324_4124">
<rect width="64" height="64" fill="white"/>
</clipPath>
</defs>
</svg>
