<svg width="64" height="64" viewBox="0 0 64 64" fill="none" xmlns="http://www.w3.org/2000/svg">
<g clip-path="url(#clip0_324_4165)">
<path d="M12.8005 10.6672H13.8674C14.4563 10.6672 14.9338 10.1897 14.9338 9.60081C14.9338 9.01147 14.4563 8.53394 13.8674 8.53394H12.8005C12.2117 8.53394 11.7341 9.01147 11.7341 9.60081C11.7341 10.1897 12.2117 10.6672 12.8005 10.6672Z" fill="#434035"/>
<path d="M18.1333 10.6672H31.9998C32.5886 10.6672 33.0662 10.1897 33.0662 9.60081C33.0662 9.01147 32.5886 8.53394 31.9998 8.53394H18.1333C17.5444 8.53394 17.0664 9.01147 17.0664 9.60081C17.0664 10.1897 17.5444 10.6672 18.1333 10.6672Z" fill="#434035"/>
<path d="M54.3171 34.1338H51.9992C51.9919 34.1338 51.9841 34.1338 51.9768 34.1338C51.4914 34.1348 51.009 34.2065 50.5442 34.3472C50.5081 34.3555 50.4724 34.3657 50.4377 34.3779C49.8728 34.5737 49.3479 34.8706 48.8889 35.2539C49.1204 32.8003 50.3352 29.2379 54.9455 26.5157C55.4362 26.2096 55.5934 25.5675 55.2995 25.069C55.0051 24.5704 54.3674 24.3971 53.8615 24.6788C50.9978 26.2345 48.7639 28.7379 47.5428 31.7593C47.4861 31.5747 47.4256 31.3946 47.3592 31.2261C46.825 29.8209 45.9446 28.5733 44.7992 27.5997V9.60093C44.7992 7.83338 43.3666 6.40079 41.5995 6.40079H37.1367C36.686 5.12688 35.4839 4.27338 34.1328 4.26752H28.4185C27.5221 1.7114 25.1085 0 22.3996 0C19.6906 0 17.2771 1.7114 16.3806 4.26752H10.6663C9.31529 4.27338 8.11316 5.12688 7.66297 6.40079H3.20015C1.4326 6.40079 0 7.83338 0 9.60093V60.7999C0 62.5674 1.4326 64 3.20015 64H41.5995C42.098 64.0005 42.5897 63.8819 43.0331 63.6534C44.0072 63.8819 45.0047 63.9986 46.0057 64H49.9929C57.7155 64 63.9991 57.3024 63.9991 49.0667V44.4481C63.9991 38.7631 59.6559 34.1338 54.3171 34.1338ZM45.3646 31.9898C45.6419 32.8267 45.8416 33.687 45.9608 34.5605C45.8543 34.5146 45.7591 34.4536 45.6517 34.4184C45.1268 34.23 44.5731 34.1338 44.0155 34.1338C44.0067 34.1338 44.0003 34.1338 43.992 34.1338H41.6815C41.389 34.1338 41.1015 34.1538 40.8153 34.1807C40.789 34.1733 40.7694 34.1562 40.7416 34.1509C37.2114 33.4438 37.2602 29.3253 37.3935 27.8512C38.0742 27.7725 38.7587 27.7345 39.4438 27.7369H39.4662C42.1361 27.7608 44.5008 29.4673 45.3646 31.9942V31.9898ZM34.5273 57.6002H6.39981V12.8006H7.66297C8.11316 14.0745 9.31529 14.9285 10.6663 14.9339H34.1328C35.4839 14.9285 36.686 14.0745 37.1367 12.8006H38.3993V25.6163C35.6445 25.7145 35.4619 26.4815 35.3637 26.92C34.9883 29.1143 35.1792 33 37.7187 35.0512C34.1704 36.83 31.9492 40.4794 31.9995 44.4481V49.0667C31.9907 52.0969 32.8696 55.0637 34.5273 57.6002ZM42.6659 9.60093V26.2926C41.9833 26.006 41.266 25.8097 40.5326 25.7081V12.8006C40.5326 11.6224 39.5775 10.6673 38.3993 10.6673H37.333V8.53406H41.5995C42.1884 8.53406 42.6659 9.01159 42.6659 9.60093ZM10.6663 6.40079H17.1731C17.2092 6.39541 17.2444 6.38809 17.2795 6.37832C17.3464 6.37149 17.4119 6.35831 17.4758 6.33878C17.5437 6.31876 17.6091 6.29141 17.6711 6.25772C17.8484 6.16251 17.9939 6.017 18.0891 5.83976C18.1238 5.77775 18.1516 5.71232 18.1716 5.64445C18.1877 5.61222 18.2019 5.57951 18.2141 5.54533C18.6198 3.55952 20.3674 2.13327 22.3942 2.13327C24.4215 2.13327 26.1686 3.55952 26.5743 5.54533C26.587 5.5839 26.6022 5.6215 26.6192 5.65861C26.6358 5.71037 26.6559 5.76163 26.6793 5.81095C26.7149 5.8798 26.7589 5.94474 26.8092 6.00382C26.8399 6.04435 26.8731 6.08194 26.9093 6.1171C26.9728 6.17179 27.0421 6.21866 27.1163 6.25674C27.2662 6.35879 27.4454 6.40957 27.6261 6.40079H34.1328C34.7222 6.40079 35.1997 6.87832 35.1997 7.46766V11.7342C35.1997 12.3231 34.7222 12.8006 34.1328 12.8006H10.6663C10.0775 12.8006 9.59996 12.3231 9.59996 11.7342V7.46766C9.59996 6.87832 10.0775 6.40079 10.6663 6.40079ZM3.20015 61.8668C2.6108 61.8668 2.13327 61.3892 2.13327 60.7999V9.60093C2.13327 9.01159 2.6108 8.53406 3.20015 8.53406H7.46669V10.6673H6.39981C5.2216 10.6673 4.26654 11.6224 4.26654 12.8006V57.6002C4.26654 58.7784 5.2216 59.7335 6.39981 59.7335H36.2212C37.0024 60.545 37.8764 61.2608 38.8261 61.8668H3.20015ZM61.8658 49.0667C61.8658 56.1237 56.5387 61.8668 49.9929 61.8668H46.0057C39.4599 61.8668 34.1328 56.1261 34.1328 49.0667V44.4481C34.1328 39.9394 37.5195 36.2671 41.6815 36.2671H44.0335C44.3387 36.27 44.641 36.3242 44.9285 36.4272C46.1688 36.9238 46.9686 38.141 46.9324 39.4765V40.5336C46.9324 41.1229 47.41 41.6005 47.9993 41.6005C48.5882 41.6005 49.0657 41.1229 49.0657 40.5336V39.4735C49.0261 38.1396 49.8196 36.9213 51.0564 36.4194L51.1077 36.4047C51.3835 36.3159 51.6711 36.269 51.9607 36.2651H54.3161C58.4791 36.2671 61.8658 39.9394 61.8658 44.4481V49.0667Z" fill="#434035"/>
<path d="M40.1953 38.4551C40.0341 38.5073 36.2656 39.8222 36.2656 44.8002C36.2656 45.3895 36.7432 45.8671 37.3325 45.8671C37.9214 45.8671 38.3989 45.3895 38.3989 44.8002C38.3989 41.415 40.7582 40.519 40.8788 40.476C41.4369 40.2876 41.7367 39.6816 41.5478 39.1235C41.3588 38.5654 40.7534 38.2661 40.1953 38.4551Z" fill="#434035"/>
<path d="M13.8666 18.134H10.6665C9.48827 18.134 8.5332 19.0891 8.5332 20.2673V23.4675C8.5332 24.6457 9.48827 25.6007 10.6665 25.6007H13.8666C15.0448 25.6007 15.9999 24.6457 15.9999 23.4675V20.2673C15.9999 19.0891 15.0448 18.134 13.8666 18.134ZM10.6665 23.4675V20.2673H13.8666V23.4675H10.6665Z" fill="#434035"/>
<path d="M13.8666 27.7339H10.6665C9.48827 27.7339 8.5332 28.689 8.5332 29.8672V33.0668C8.5332 34.245 9.48827 35.2006 10.6665 35.2006H13.8666C15.0448 35.2006 15.9999 34.245 15.9999 33.0668V29.8672C15.9999 28.689 15.0448 27.7339 13.8666 27.7339ZM10.6665 33.0668V29.8672H13.8666V33.0668H10.6665Z" fill="#434035"/>
<path d="M13.8666 37.334H10.6665C9.48827 37.334 8.5332 38.289 8.5332 39.4673V42.6669C8.5332 43.8451 9.48827 44.8002 10.6665 44.8002H13.8666C15.0448 44.8002 15.9999 43.8451 15.9999 42.6669V39.4673C15.9999 38.289 15.0448 37.334 13.8666 37.334ZM10.6665 42.6669V39.4673H13.8666V42.6669H10.6665Z" fill="#434035"/>
<path d="M13.8666 46.9333H10.6665C9.48827 46.9333 8.5332 47.8884 8.5332 49.0666V52.2668C8.5332 53.445 9.48827 54.4 10.6665 54.4H13.8666C15.0448 54.4 15.9999 53.445 15.9999 52.2668V49.0666C15.9999 47.8884 15.0448 46.9333 13.8666 46.9333ZM10.6665 52.2668V49.0666H13.8666V52.2668H10.6665Z" fill="#434035"/>
<path d="M19.2016 23.4675H34.1345C34.7239 23.4675 35.2014 22.99 35.2014 22.4006C35.2014 21.8118 34.7239 21.3342 34.1345 21.3342H19.2016C18.6123 21.3342 18.1348 21.8118 18.1348 22.4006C18.1348 22.99 18.6123 23.4675 19.2016 23.4675Z" fill="#434035"/>
<path d="M30.9344 30.9336H19.2016C18.6123 30.9336 18.1348 31.4111 18.1348 32.0005C18.1348 32.5893 18.6123 33.0669 19.2016 33.0669H30.9344C31.5237 33.0669 32.0013 32.5893 32.0013 32.0005C32.0013 31.4111 31.5237 30.9336 30.9344 30.9336Z" fill="#434035"/>
<path d="M28.8011 40.5337H19.2016C18.6123 40.5337 18.1348 41.0112 18.1348 41.6006C18.1348 42.1894 18.6123 42.667 19.2016 42.667H28.8011C29.3905 42.667 29.868 42.1894 29.868 41.6006C29.868 41.0112 29.3905 40.5337 28.8011 40.5337Z" fill="#434035"/>
<path d="M28.8011 50.1335H19.2016C18.6123 50.1335 18.1348 50.6111 18.1348 51.2004C18.1348 51.7893 18.6123 52.2668 19.2016 52.2668H28.8011C29.3905 52.2668 29.868 51.7893 29.868 51.2004C29.868 50.6111 29.3905 50.1335 28.8011 50.1335Z" fill="#434035"/>
</g>
<defs>
<clipPath id="clip0_324_4165">
<rect width="64" height="64" fill="white"/>
</clipPath>
</defs>
</svg>
