<svg width="64" height="64" viewBox="0 0 64 64" fill="none" xmlns="http://www.w3.org/2000/svg">
<g clip-path="url(#clip0_324_4183)">
<path d="M32 0C14.3267 0 0 14.3267 0 32C0 49.6733 14.3267 64 32 64C49.6733 64 64 49.6733 64 32C63.98 14.335 49.665 0.0200195 32 0ZM32 61.8667C15.5049 61.8667 2.1333 48.4951 2.1333 32C2.1333 15.5049 15.5049 2.1333 32 2.1333C48.4951 2.1333 61.8667 15.5049 61.8667 32C61.8477 48.4873 48.4873 61.8477 32 61.8667Z" fill="#434035"/>
<path d="M32.0003 4.26661C25.4446 4.27198 19.1033 6.60303 14.1048 10.8447C14.0911 10.8565 14.0857 10.8726 14.074 10.8843C14.0623 10.8906 14.0515 10.898 14.0408 10.9058C14.0105 10.9453 13.9827 10.9873 13.9578 11.0303C13.908 11.0903 13.865 11.1558 13.8284 11.2246C13.8059 11.2842 13.7888 11.3452 13.7771 11.4082C13.7566 11.4775 13.7434 11.5488 13.7366 11.6211C13.7376 11.6885 13.7449 11.7554 13.7591 11.8208C13.7649 11.8882 13.7781 11.9546 13.7976 12.019C13.8264 12.0869 13.8621 12.1509 13.9041 12.2114C13.9265 12.2603 13.9524 12.3081 13.9822 12.353C13.992 12.3638 14.0056 12.3682 14.0154 12.3789C14.0247 12.3892 14.0301 12.4063 14.0418 12.418L25.4817 23.855C25.2097 24.544 24.9324 25.2788 24.6511 26.0449L12.5198 13.9126C12.511 13.9028 12.4973 13.9009 12.4876 13.8911C12.4783 13.8818 12.4729 13.8667 12.4622 13.8569C12.4109 13.8218 12.3562 13.7915 12.2991 13.7666C12.2464 13.729 12.1897 13.6973 12.1306 13.6714C12.0584 13.6489 11.9846 13.6343 11.9094 13.6279C11.8509 13.6152 11.7913 13.6084 11.7312 13.6065C11.6555 13.6128 11.5803 13.6279 11.5076 13.6499C11.449 13.6607 11.3914 13.6768 11.3357 13.6973C11.2664 13.7329 11.2014 13.7764 11.1414 13.8262C11.096 13.8516 11.0525 13.8804 11.0115 13.9126C11.0027 13.9224 10.9998 13.9341 10.991 13.9434C10.9827 13.9531 10.9666 13.9585 10.9573 13.9702C1.52761 24.9624 2.15407 41.3618 12.3943 51.6025C22.635 61.8433 39.0344 62.4702 50.0271 53.041C50.0364 53.0327 50.0408 53.021 50.0491 53.0122C50.0579 53.0039 50.074 52.9995 50.0847 52.9888C50.1228 52.9414 50.1565 52.8906 50.1858 52.8374C50.2263 52.7847 50.262 52.7285 50.2927 52.6699C50.3328 52.54 50.3635 52.4072 50.3855 52.273C50.3831 52.2066 50.3753 52.1401 50.3621 52.0747C50.3552 52.0059 50.3421 51.9375 50.3225 51.8711C50.2947 51.8096 50.2615 51.751 50.2234 51.6958C50.198 51.6401 50.1682 51.5864 50.1336 51.5361C50.1238 51.5254 50.1101 51.521 50.1004 51.5103C50.0911 51.4995 50.0886 51.4893 50.0803 51.4805L37.5886 38.9815C38.3543 38.6997 39.0818 38.4224 39.7752 38.147L51.5979 49.9702C51.6096 49.9819 51.6258 49.9863 51.6375 49.9966C51.6492 50.0073 51.6526 50.0191 51.6634 50.0278C51.7185 50.0693 51.7776 50.105 51.8401 50.1343C51.9685 50.229 52.1248 50.2778 52.284 50.273C52.3074 50.273 52.3289 50.2857 52.3523 50.2857C52.4993 50.2847 52.6448 50.2529 52.7791 50.1929C52.8894 50.1201 52.9993 50.0469 53.1096 49.9732C53.1223 49.9614 53.1258 49.9443 53.1375 49.9316C53.1492 49.919 53.1599 49.919 53.1692 49.9082C60.1502 41.6675 61.7097 30.1226 57.1653 20.3247C52.6214 10.5274 42.8006 4.26026 32.0003 4.26661ZM47.0672 23.4028C46.5213 23.9595 46.1502 24.6641 46.0003 25.4292C44.4348 25.3413 42.9192 25.9961 41.9099 27.1968C40.9011 28.397 40.5164 30.0025 40.8718 31.5298C38.8889 32.2398 37.805 34.3735 38.4002 36.3936C37.4339 36.7671 36.3953 37.1489 35.2844 37.54C35.2591 37.5498 35.2332 37.5562 35.2078 37.5679C32.888 38.3818 30.2488 39.2319 27.325 40.1108C26.9348 38.1953 25.4383 36.6978 23.5222 36.3071C27.5501 22.9238 30.1541 18.2944 31.6399 16.8096C35.8362 12.4922 42.7342 12.3838 47.0647 16.5664C48.5999 18.1065 49.6175 20.0864 49.9759 22.2315C48.887 22.2095 47.8367 22.6323 47.0672 23.4028ZM22.5462 43.7505C22.5154 43.7896 22.4876 43.8316 22.4632 43.875C22.4173 43.9312 22.3772 43.9912 22.3435 44.0557C22.3176 44.1167 22.2976 44.1807 22.284 44.2466C22.2644 44.3115 22.2512 44.3784 22.2454 44.4458C22.2439 44.5137 22.2493 44.5811 22.2615 44.6475C22.2674 44.7144 22.2805 44.7808 22.3001 44.8447C22.326 44.9121 22.3587 44.9766 22.3982 45.0366C22.4177 45.083 22.4412 45.1274 22.4676 45.1699C22.9871 45.9434 23.0183 46.9458 22.5476 47.7495C22.2498 48.3384 21.7302 48.7847 21.1033 48.9898C20.6995 49.1177 20.2605 49.0757 19.8884 48.8735C18.9636 48.1694 18.7366 46.8716 19.3679 45.8955C19.4426 45.749 19.534 45.6118 19.6399 45.4858C20.0325 45.0601 20.01 44.3975 19.5886 44C19.2078 43.6382 18.6214 43.605 18.2019 43.9209C18.0945 43.9985 17.9817 44.0679 17.8635 44.1279C16.8928 44.77 15.5901 44.5405 14.8963 43.6065C14.6941 43.2334 14.6526 42.7935 14.782 42.3892C14.9861 41.7617 15.4324 41.2417 16.0218 40.9448C16.8259 40.4688 17.8323 40.4981 18.6072 41.021C18.6516 41.0474 18.6975 41.0708 18.7449 41.0913C18.8592 41.1714 18.9934 41.2178 19.1331 41.2256C19.1785 41.2378 19.2249 41.2466 19.2718 41.2524C19.2918 41.2524 19.3113 41.2427 19.3313 41.2417C19.3987 41.2349 19.4651 41.2217 19.5301 41.2022C19.596 41.189 19.6609 41.1685 19.7229 41.1411C19.824 41.0747 19.9251 41.0073 20.0257 40.9399L22.574 38.3926C23.2893 38.3648 23.9837 38.6372 24.49 39.1431C24.9964 39.6494 25.2683 40.3438 25.241 41.0591L22.5462 43.7505ZM47.7293 52.1397C37.5613 60.1279 23.0276 59.2583 13.8845 50.1148C4.74148 40.9712 3.87234 26.438 11.8606 16.27L23.8596 28.2666C22.9954 30.7671 22.093 33.6001 21.1468 36.7998L19.0935 38.8565C17.7727 38.3003 16.2703 38.3789 15.0144 39.0698C13.9212 39.6377 13.0999 40.6196 12.7342 41.7964C12.4426 42.7515 12.552 43.7842 13.0369 44.6572C13.7791 45.898 15.1341 46.6406 16.5794 46.5986C16.699 46.5986 16.8196 46.5855 16.9387 46.5762C16.6648 48.2207 17.4173 49.8667 18.8396 50.7358C19.3816 51.041 19.9929 51.2012 20.6145 51.2002C20.9822 51.1992 21.3479 51.1465 21.7005 51.043C22.8777 50.6768 23.8601 49.855 24.428 48.7607C25.1135 47.5049 25.1883 46.0054 24.6306 44.688L26.826 42.4927C30.0398 41.5425 32.8665 40.6431 35.3645 39.7793L47.7293 52.1397ZM52.2498 47.6055L40.4602 35.8145C40.2581 35.1553 40.4368 34.4385 40.9251 33.9522C41.2776 33.5918 41.7644 33.395 42.2678 33.4082H42.284H42.3074C42.4226 33.4058 42.5364 33.3848 42.6443 33.3462C42.6721 33.3364 42.699 33.3247 42.7268 33.313C42.763 33.3013 42.7986 33.2871 42.8333 33.2705C42.866 33.2451 42.8972 33.2183 42.927 33.1895C43.0423 33.1094 43.1385 33.0049 43.2088 32.8833C43.283 32.7651 43.3299 32.6323 43.3465 32.4937C43.3582 32.4566 43.3675 32.4185 43.3743 32.3799C43.3743 32.353 43.3626 32.3306 43.3611 32.3042C43.3489 32.1616 43.3152 32.0215 43.261 31.8892C43.2493 31.8657 43.2503 31.8399 43.2366 31.8164C42.6092 30.6968 42.802 29.2964 43.7093 28.3882C44.4768 27.6138 45.6204 27.3486 46.6511 27.7056C46.6839 27.7163 46.7161 27.7056 46.7493 27.7183C46.8289 27.7427 46.9114 27.7573 46.9944 27.7622H47.0501H47.096H47.1663C47.2102 27.749 47.2527 27.7329 47.2942 27.7129C47.3684 27.6943 47.4397 27.6665 47.5076 27.6309C47.5633 27.5967 47.6155 27.5571 47.6634 27.5127C47.718 27.4702 47.7688 27.4229 47.8147 27.3706C47.8567 27.3106 47.8924 27.2461 47.9212 27.1787C47.9514 27.1343 47.9783 27.0879 48.0003 27.0391C48.0003 27.0239 48.0003 27.0093 48.0066 26.9932C48.0315 26.854 48.0432 26.7129 48.0418 26.5718C48.0418 26.5547 48.0418 26.5396 48.0418 26.5239C47.9358 25.834 48.2215 25.1431 48.7835 24.729C49.345 24.3154 50.0901 24.2481 50.7171 24.5537C50.7425 24.5664 50.7703 24.5645 50.7971 24.5747C50.8518 24.5957 50.909 24.6113 50.9666 24.6221C51.0364 24.6411 51.1077 24.6533 51.18 24.6582C51.198 24.6582 51.2151 24.668 51.2332 24.6665C51.281 24.6587 51.3279 24.647 51.3743 24.6323C51.4466 24.6231 51.5183 24.6065 51.5877 24.5825C51.6511 24.5552 51.7122 24.521 51.7688 24.481C51.8255 24.4473 51.8787 24.4087 51.9275 24.3648C51.9793 24.3125 52.0252 24.2544 52.0642 24.1919C52.0965 24.1572 52.1262 24.1196 52.1526 24.0801C52.1614 24.063 52.159 24.0449 52.1668 24.0269C52.1912 23.9624 52.2097 23.896 52.221 23.8281C52.2405 23.7588 52.2522 23.687 52.2561 23.6148C52.2561 23.5967 52.2659 23.582 52.2649 23.564C52.1565 20.3638 50.8372 17.3247 48.574 15.0601C43.4104 10.0454 35.1624 10.1543 30.1326 15.3032C28.5188 17.2124 27.2449 19.3843 26.365 21.7236L16.4026 11.7612C26.574 3.88379 41.0164 4.79737 50.1135 13.894C59.2112 22.9907 60.1262 37.4331 52.2498 47.6055Z" fill="#434035"/>
<path d="M39.2658 14.7655C36.6994 15.3842 34.3483 16.6864 32.4625 18.5341C29.5143 21.4828 27.4132 29.12 27.319 29.4399C27.1642 30.0082 27.4996 30.5947 28.068 30.7499C28.6364 30.9047 29.2228 30.5693 29.3776 30.0009C29.9367 27.9496 31.8537 22.1611 33.9708 20.0439C35.5631 18.497 37.5338 17.3969 39.6862 16.8534C40.2638 16.7372 40.6378 16.1747 40.5216 15.5971C40.4059 15.0195 39.8434 14.6454 39.2658 14.7616V14.7655Z" fill="#434035"/>
</g>
<defs>
<clipPath id="clip0_324_4183">
<rect width="64" height="64" fill="white"/>
</clipPath>
</defs>
</svg>
