<svg width="96" height="96" viewBox="0 0 96 96" fill="none" xmlns="http://www.w3.org/2000/svg">
<g clip-path="url(#clip0_324_3868)">
<path d="M64.6959 2.98556C59.496 1.05619 53.8717 0 48.0004 0C42.129 0 36.5047 1.05619 31.3048 2.98556L27.1309 48L31.3048 93.0144C36.5047 94.944 42.129 96 48.0004 96C53.8717 96 59.496 94.944 64.6959 93.0144L68.8699 48L64.6959 2.98556Z" fill="#FFDA44"/>
<path d="M95.9998 48.0001C95.9998 27.362 82.9738 9.76771 64.6953 2.98584V93.0149C82.9738 86.2325 95.9998 68.6386 95.9998 48.0001Z" fill="#D80027"/>
<path d="M0 48.0001C0 68.6386 13.026 86.2325 31.3044 93.0147V2.98584C13.026 9.76771 0 27.362 0 48.0001Z" fill="black"/>
</g>
<defs>
<clipPath id="clip0_324_3868">
<rect width="96" height="96" fill="white"/>
</clipPath>
</defs>
</svg>
