<svg width="64" height="64" viewBox="0 0 64 64" fill="none" xmlns="http://www.w3.org/2000/svg">
<g clip-path="url(#clip0_324_4260)">
<path d="M80.254 -0.169922H-16.2539V64.1694H80.254V-0.169922Z" fill="#F0F0F0"/>
<path d="M80.254 7.87207H-16.2539V15.9137H80.254V7.87207Z" fill="#D80027"/>
<path d="M80.254 23.957H-16.2539V31.9987H80.254V23.957Z" fill="#D80027"/>
<path d="M80.254 40.041H-16.2539V48.0827H80.254V40.041Z" fill="#D80027"/>
<path d="M80.254 56.126H-16.2539V64.1676H80.254V56.126Z" fill="#D80027"/>
<path d="M32.0001 -0.169922H-16.2539V34.4744H32.0001V-0.169922Z" fill="#2E52B2"/>
<path d="M2.56041 14.0225L1.78326 16.4133H-0.730469L1.30355 17.8901L0.526396 20.2808L2.56041 18.8039L4.59311 20.2808L3.81615 17.8901L5.85017 16.4133H3.33625L2.56041 14.0225Z" fill="#F0F0F0"/>
<path d="M3.33625 25.041L2.56041 22.6504L1.78326 25.041H-0.730469L1.30355 26.5181L0.526396 28.9087L2.56041 27.4317L4.59311 28.9087L3.81615 26.5181L5.85017 25.041H3.33625Z" fill="#F0F0F0"/>
<path d="M2.56041 5.39453L1.78326 7.78555H-0.730469L1.30355 9.26258L0.526396 11.6532L2.56041 10.1762L4.59311 11.6532L3.81615 9.26258L5.85017 7.78555H3.33625L2.56041 5.39453Z" fill="#F0F0F0"/>
<path d="M13.1852 14.0225L12.4083 16.4133H9.89453L11.9284 17.8901L11.1516 20.2808L13.1852 18.8039L15.2183 20.2808L14.4411 17.8901L16.4752 16.4133H13.9614L13.1852 14.0225Z" fill="#F0F0F0"/>
<path d="M13.9614 25.041L13.1852 22.6504L12.4083 25.041H9.89453L11.9284 26.5181L11.1516 28.9087L13.1852 27.4317L15.2183 28.9087L14.4411 26.5181L16.4752 25.041H13.9614Z" fill="#F0F0F0"/>
<path d="M24.5843 25.041L23.8083 22.6504L23.0311 25.041H20.5176L22.5512 26.5181L21.7743 28.9087L23.8083 27.4317L25.8412 28.9087L25.064 26.5181L27.098 25.041H24.5843Z" fill="#F0F0F0"/>
<path d="M23.8083 14.0225L23.0311 16.4133H20.5176L22.5512 17.8901L21.7743 20.2808L23.8083 18.8039L25.8412 20.2808L25.064 17.8901L27.098 16.4133H24.5843L23.8083 14.0225Z" fill="#F0F0F0"/>
<path d="M13.1852 5.39453L12.4083 7.78555H9.89453L11.9284 9.26258L11.1516 11.6532L13.1852 10.1762L15.2183 11.6532L14.4411 9.26258L16.4752 7.78555H13.9614L13.1852 5.39453Z" fill="#F0F0F0"/>
<path d="M23.8083 5.39453L23.0311 7.78555H20.5176L22.5512 9.26258L21.7743 11.6532L23.8083 10.1762L25.8412 11.6532L25.064 9.26258L27.098 7.78555H24.5843L23.8083 5.39453Z" fill="#F0F0F0"/>
</g>
<defs>
<clipPath id="clip0_324_4260">
<rect width="64" height="64" rx="32" fill="white"/>
</clipPath>
</defs>
</svg>
