<svg width="96" height="96" fill="none" xmlns="http://www.w3.org/2000/svg"><g clip-path="url(#a)"><rect width="96" height="96" rx="48" fill="#BCBCBC"/><path d="M120 .238H-24v95.524h144V.238Z" fill="#F0F0F0"/><path d="M57 .238H39v38.806h-63v17.91h63V95.76h18V56.954h63v-17.91H57V.238Z" fill="#D80027"/><path d="m86.754 64.611 33.248 18.38V64.61H86.754ZM63.652 64.611 120 95.76v-8.808l-40.414-22.34H63.652ZM104.991 95.76 63.652 72.906V95.76h41.339Z" fill="#0052B4"/><path d="M63.652 64.611 120 95.76v-8.808l-40.414-22.34H63.652Z" fill="#F0F0F0"/><path d="M63.652 64.611 120 95.76v-8.808l-40.414-22.34H63.652Z" fill="#D80027"/><path d="M1.408 64.61-24 78.656V64.61H1.408ZM32.346 68.571V95.76h-49.178l49.178-27.188Z" fill="#0052B4"/><path d="M16.414 64.611-24 86.951v8.809L32.348 64.61H16.414Z" fill="#D80027"/><path d="M9.248 31.386-24 13.006v18.38H9.248ZM32.348 31.387-24 .238v8.808l40.414 22.34h15.934ZM-8.992.238l41.338 22.854V.238H-8.992Z" fill="#0052B4"/><path d="M32.348 31.387-24 .238v8.808l40.414 22.34h15.934Z" fill="#F0F0F0"/><path d="M32.348 31.387-24 .238v8.808l40.414 22.34h15.934Z" fill="#D80027"/><path d="M94.592 31.387 120 17.34v14.046H94.592ZM63.652 27.426V.238h49.179L63.652 27.426Z" fill="#0052B4"/><path d="M79.587 31.387 120 9.047V.237L63.652 31.387h15.935Z" fill="#D80027"/></g><defs><clipPath id="a"><rect width="96" height="96" rx="48" fill="#fff"/></clipPath></defs></svg>