<svg width="315" height="300" fill="none" xmlns="http://www.w3.org/2000/svg"><rect x="29.175" y="45" width="255" height="255" rx="12.96" fill="#E6E4DF"/><rect x="15" y="7" width="283" height="283" rx="14.4" fill="#F4F2EB"/><rect width="315" height="280" rx="16" fill="#FCFAF6"/><path d="m24.32 41 3.632-11.52h2.824L34.408 41h-1.984l-3.296-10.336h.432L26.304 41H24.32Zm2.024-2.496v-1.8h6.048v1.8h-6.048ZM35.838 41v-8.64h1.928v3.408h3.88V32.36h1.928V41h-1.928v-3.424h-3.88V41h-1.928Zm9.953 0v-8.64h1.928v3.408h3.88V32.36h1.929V41H51.6v-3.424h-3.88V41h-1.928Zm12.386.24c-.624 0-1.152-.117-1.584-.352a2.49 2.49 0 0 1-.984-.952 2.646 2.646 0 0 1-.328-1.304c0-.416.069-.79.208-1.12.138-.336.352-.624.64-.864.288-.245.661-.445 1.12-.6.346-.112.752-.213 1.216-.304.469-.09.976-.173 1.52-.248.549-.08 1.122-.165 1.72-.256l-.688.392c.005-.597-.128-1.037-.4-1.32-.272-.283-.731-.424-1.376-.424-.39 0-.766.09-1.128.272-.363.181-.616.493-.76.936l-1.76-.552a3.27 3.27 0 0 1 1.216-1.76c.602-.443 1.413-.664 2.432-.664.768 0 1.442.125 2.024.376.586.25 1.021.661 1.304 1.232.154.304.248.616.28.936.032.315.048.659.048 1.032V41h-1.688v-1.872l.28.304c-.39.624-.846 1.083-1.368 1.376-.518.288-1.166.432-1.944.432Zm.384-1.536c.437 0 .81-.077 1.12-.232.309-.155.554-.344.736-.568.186-.224.312-.435.376-.632.101-.245.157-.525.168-.84.016-.32.024-.579.024-.776l.592.176c-.582.09-1.08.17-1.496.24-.416.07-.774.136-1.072.2a6.836 6.836 0 0 0-.792.2 2.45 2.45 0 0 0-.568.28c-.155.107-.275.23-.36.368a.96.96 0 0 0-.12.488c0 .213.053.403.16.568.106.16.261.288.464.384.208.096.464.144.768.144ZM68.183 41V29.48h9.335V41h-1.927v-9.712h-5.48V41h-1.928Zm15.73.24c-.843 0-1.55-.2-2.12-.6-.571-.4-1-.944-1.288-1.632-.288-.693-.432-1.47-.432-2.328 0-.87.144-1.648.432-2.336.288-.688.709-1.23 1.264-1.624.56-.4 1.25-.6 2.072-.6.816 0 1.522.2 2.12.6.602.395 1.069.936 1.4 1.624.33.683.496 1.461.496 2.336 0 .864-.163 1.64-.488 2.328a3.971 3.971 0 0 1-1.376 1.632c-.592.4-1.286.6-2.08.6Zm-4.168 3.6V32.36h1.704v6.064h.24v6.416h-1.944Zm3.872-5.328c.501 0 .914-.125 1.24-.376.325-.25.565-.59.72-1.016.16-.432.24-.912.24-1.44 0-.523-.08-.997-.24-1.424a2.19 2.19 0 0 0-.744-1.024c-.336-.256-.763-.384-1.28-.384-.491 0-.891.12-1.2.36-.31.235-.539.565-.688.992-.144.421-.216.915-.216 1.48 0 .56.072 1.053.216 1.48.149.427.381.76.696 1 .32.235.738.352 1.256.352Zm13.491-7.152V41H95.26v-5.64L91.148 41h-1.544v-8.64h1.848v5.496l4.128-5.496h1.528ZM99.354 41v-8.64h6.16v1.808h-4.232V41h-1.928Zm11.348.24c-.864 0-1.619-.195-2.264-.584a4.004 4.004 0 0 1-1.504-1.608c-.352-.688-.528-1.477-.528-2.368 0-.907.181-1.701.544-2.384a4.002 4.002 0 0 1 1.512-1.6c.645-.384 1.392-.576 2.24-.576.869 0 1.626.195 2.272.584.645.39 1.146.928 1.504 1.616.357.683.536 1.47.536 2.36 0 .896-.182 1.688-.544 2.376a4.018 4.018 0 0 1-1.504 1.608c-.646.384-1.4.576-2.264.576Zm0-1.808c.768 0 1.338-.256 1.712-.768.373-.512.56-1.173.56-1.984 0-.837-.19-1.504-.568-2-.379-.501-.947-.752-1.704-.752-.518 0-.944.117-1.28.352-.331.23-.576.552-.736.968-.16.41-.24.888-.24 1.432 0 .837.189 1.507.568 2.008.384.496.946.744 1.688.744ZM115.535 41l3.168-4.32-2.976-4.32h2.112l2.808 4.184V32.36h1.712v4.184l2.808-4.184h2.104l-2.976 4.32 3.168 4.32h-2.224l-2.88-4.184V41h-1.712v-4.184L117.759 41h-2.224Zm15.314.24c-.624 0-1.152-.117-1.584-.352a2.49 2.49 0 0 1-.984-.952 2.642 2.642 0 0 1-.328-1.304c0-.416.069-.79.208-1.12.138-.336.352-.624.64-.864.288-.245.661-.445 1.12-.6a10.59 10.59 0 0 1 1.216-.304c.469-.09.976-.173 1.52-.248.549-.08 1.122-.165 1.72-.256l-.688.392c.005-.597-.128-1.037-.4-1.32-.272-.283-.731-.424-1.376-.424-.39 0-.766.09-1.128.272-.363.181-.616.493-.76.936l-1.76-.552a3.265 3.265 0 0 1 1.216-1.76c.602-.443 1.413-.664 2.432-.664.768 0 1.442.125 2.024.376.586.25 1.021.661 1.304 1.232.154.304.248.616.28.936.032.315.048.659.048 1.032V41h-1.688v-1.872l.28.304c-.39.624-.846 1.083-1.368 1.376-.518.288-1.166.432-1.944.432Zm.384-1.536c.437 0 .81-.077 1.12-.232.309-.155.554-.344.736-.568a1.98 1.98 0 0 0 .376-.632c.101-.245.157-.525.168-.84.016-.32.024-.579.024-.776l.592.176c-.582.09-1.08.17-1.496.24-.416.07-.774.136-1.072.2a6.795 6.795 0 0 0-.792.2c-.224.08-.414.173-.568.28-.155.107-.275.23-.36.368a.96.96 0 0 0-.12.488c0 .213.053.403.16.568.106.16.261.288.464.384.208.096.464.144.768.144Zm10.346 1.536c-.874 0-1.642-.19-2.304-.568a4.052 4.052 0 0 1-1.552-1.576c-.368-.672-.552-1.445-.552-2.32 0-.944.182-1.763.544-2.456a3.978 3.978 0 0 1 1.512-1.624c.646-.384 1.392-.576 2.24-.576.896 0 1.656.21 2.28.632.63.416 1.096 1.005 1.4 1.768.304.763.419 1.661.344 2.696h-1.912v-.704c-.005-.939-.17-1.624-.496-2.056-.325-.432-.837-.648-1.536-.648-.789 0-1.376.245-1.76.736-.384.485-.576 1.197-.576 2.136 0 .875.192 1.552.576 2.032.384.48.944.72 1.68.72.475 0 .883-.104 1.224-.312.347-.213.614-.52.8-.92l1.904.576a3.852 3.852 0 0 1-1.536 1.816 4.202 4.202 0 0 1-2.28.648Zm-2.976-4.024V35.76h5.944v1.456h-5.944ZM147.26 41v-8.64h3.928c.283 0 .547.016.792.048.246.032.456.072.632.12.416.123.784.363 1.104.72.32.352.48.84.48 1.464 0 .368-.058.672-.176.912a1.814 1.814 0 0 1-1.032.912c.208.032.406.093.592.184.294.144.539.357.736.64.203.283.304.68.304 1.192 0 .581-.141 1.072-.424 1.472-.277.395-.685.67-1.224.824a4.353 4.353 0 0 1-.68.12 9.447 9.447 0 0 1-.784.032h-4.248Zm1.952-1.488h2.16a2.343 2.343 0 0 0 .728-.12.71.71 0 0 0 .416-.368c.091-.176.136-.36.136-.552 0-.261-.066-.47-.2-.624a.916.916 0 0 0-.464-.32 1.055 1.055 0 0 0-.352-.072 3.605 3.605 0 0 0-.304-.016h-2.12v2.072Zm0-3.584h1.6c.166 0 .326-.008.48-.024.16-.021.294-.056.4-.104a.692.692 0 0 0 .384-.352c.086-.165.128-.35.128-.552 0-.213-.048-.405-.144-.576a.683.683 0 0 0-.44-.352 1.423 1.423 0 0 0-.488-.088 16.885 16.885 0 0 0-.36-.008h-1.56v2.056Zm9.418 5.312c-.624 0-1.152-.117-1.584-.352a2.49 2.49 0 0 1-.984-.952 2.642 2.642 0 0 1-.328-1.304c0-.416.069-.79.208-1.12.138-.336.352-.624.64-.864.288-.245.661-.445 1.12-.6a10.59 10.59 0 0 1 1.216-.304c.469-.09.976-.173 1.52-.248.549-.08 1.122-.165 1.72-.256l-.688.392c.005-.597-.128-1.037-.4-1.32-.272-.283-.731-.424-1.376-.424-.39 0-.766.09-1.128.272-.363.181-.616.493-.76.936l-1.76-.552a3.265 3.265 0 0 1 1.216-1.76c.602-.443 1.413-.664 2.432-.664.768 0 1.442.125 2.024.376.586.25 1.021.661 1.304 1.232.154.304.248.616.28.936.032.315.048.659.048 1.032V41h-1.688v-1.872l.28.304c-.39.624-.846 1.083-1.368 1.376-.518.288-1.166.432-1.944.432Zm.384-1.536c.437 0 .81-.077 1.12-.232.309-.155.554-.344.736-.568a1.98 1.98 0 0 0 .376-.632c.101-.245.157-.525.168-.84.016-.32.024-.579.024-.776l.592.176c-.582.09-1.08.17-1.496.24-.416.07-.774.136-1.072.2a6.795 6.795 0 0 0-.792.2c-.224.08-.414.173-.568.28-.155.107-.275.23-.36.368a.96.96 0 0 0-.12.488c0 .213.053.403.16.568.106.16.261.288.464.384.208.096.464.144.768.144ZM24.28 69v-.917c.257.023.469.014.637-.028a.696.696 0 0 0 .406-.308c.107-.159.2-.394.28-.707.08-.317.159-.73.238-1.239.089-.55.163-1.099.224-1.645a46.54 46.54 0 0 0 .168-1.659c.051-.565.093-1.143.126-1.736s.063-1.206.091-1.841h6.363V69h-1.029v-9.093h-4.34c-.033.48-.065.973-.098 1.477-.028.504-.065 1.02-.112 1.547a44.816 44.816 0 0 1-.161 1.631 36.8 36.8 0 0 1-.231 1.722c-.075.448-.163.863-.266 1.246a2.963 2.963 0 0 1-.42.966 1.348 1.348 0 0 1-.721.539c-.299.098-.684.086-1.155-.035Zm13.688.21c-.737 0-1.377-.163-1.918-.49a3.325 3.325 0 0 1-1.253-1.379c-.299-.593-.448-1.288-.448-2.086 0-.826.147-1.54.441-2.142a3.278 3.278 0 0 1 1.24-1.393c.536-.327 1.168-.49 1.896-.49.747 0 1.384.173 1.911.518.527.34.926.83 1.197 1.47.27.64.394 1.402.371 2.289h-1.05v-.364c-.019-.98-.23-1.72-.637-2.219-.401-.5-.99-.749-1.764-.749-.812 0-1.435.264-1.869.791-.43.527-.644 1.279-.644 2.254 0 .952.215 1.692.644 2.219.434.523 1.048.784 1.841.784.541 0 1.013-.124 1.414-.371.406-.252.726-.614.96-1.085l.958.371a3.43 3.43 0 0 1-1.323 1.533c-.579.36-1.234.539-1.967.539Zm-2.89-3.703v-.861h5.774v.861h-5.775ZM42.95 69l.008-7.56h1.035v3.64l3.374-3.64h1.372L45.2 65.22 49.203 69h-1.498l-3.71-3.64V69h-1.043Zm9.004 0v-6.608h-2.681v-.952h6.39v.952h-2.68V69h-1.03Zm8.065.21c-.752 0-1.393-.17-1.925-.511a3.325 3.325 0 0 1-1.225-1.414c-.285-.602-.427-1.293-.427-2.072 0-.793.145-1.489.434-2.086.29-.597.7-1.062 1.232-1.393.536-.336 1.173-.504 1.91-.504.757 0 1.4.17 1.933.511.537.336.945.805 1.225 1.407.285.597.427 1.286.427 2.065 0 .793-.142 1.491-.427 2.093a3.272 3.272 0 0 1-1.232 1.4c-.537.336-1.178.504-1.925.504Zm0-.987c.84 0 1.465-.278 1.876-.833.41-.56.616-1.286.616-2.177 0-.915-.208-1.643-.623-2.184-.41-.541-1.034-.812-1.87-.812-.564 0-1.03.128-1.4.385a2.282 2.282 0 0 0-.818 1.057c-.178.448-.266.966-.266 1.554 0 .91.21 1.64.63 2.191.42.546 1.038.819 1.855.819Zm8.523.987c-.695 0-1.283-.175-1.764-.525-.48-.355-.845-.833-1.092-1.435-.247-.607-.371-1.286-.371-2.037 0-.765.124-1.447.371-2.044.252-.602.62-1.076 1.106-1.421.485-.345 1.083-.518 1.792-.518.69 0 1.283.175 1.778.525.495.35.873.826 1.134 1.428.266.602.399 1.279.399 2.03 0 .756-.133 1.435-.399 2.037a3.406 3.406 0 0 1-1.148 1.435c-.5.35-1.101.525-1.806.525Zm-3.402 3.15V61.44h.924v5.691h.112v5.229h-1.036Zm3.297-4.109c.527 0 .966-.133 1.316-.399.35-.266.611-.628.784-1.085.177-.462.266-.98.266-1.554 0-.57-.086-1.083-.259-1.54a2.361 2.361 0 0 0-.791-1.085c-.35-.266-.796-.399-1.337-.399-.527 0-.966.128-1.316.385-.345.257-.604.614-.777 1.071-.173.453-.259.975-.259 1.568 0 .583.086 1.106.259 1.568.173.457.434.817.784 1.078.35.261.793.392 1.33.392Zm13.804-6.811V69H81.24v-5.887L77.097 69h-.868v-7.56h1v5.838l4.152-5.838h.86Zm7.924 7.77c-.751 0-1.393-.17-1.925-.511a3.325 3.325 0 0 1-1.225-1.414c-.284-.602-.427-1.293-.427-2.072 0-.793.145-1.489.434-2.086.29-.597.7-1.062 1.232-1.393.537-.336 1.174-.504 1.911-.504.756 0 1.4.17 1.932.511.537.336.945.805 1.225 1.407.285.597.427 1.286.427 2.065 0 .793-.142 1.491-.427 2.093a3.272 3.272 0 0 1-1.232 1.4c-.536.336-1.178.504-1.925.504Zm0-.987c.84 0 1.466-.278 1.876-.833.411-.56.616-1.286.616-2.177 0-.915-.207-1.643-.623-2.184-.41-.541-1.033-.812-1.869-.812-.564 0-1.031.128-1.4.385a2.282 2.282 0 0 0-.819 1.057c-.177.448-.266.966-.266 1.554 0 .91.21 1.64.63 2.191.42.546 1.039.819 1.855.819Zm8.264.987c-.76 0-1.404-.17-1.931-.511a3.256 3.256 0 0 1-1.204-1.407c-.271-.602-.411-1.293-.42-2.072.009-.793.153-1.489.433-2.086a3.203 3.203 0 0 1 1.211-1.4c.528-.336 1.167-.504 1.918-.504.766 0 1.43.187 1.995.56.57.373.959.884 1.169 1.533l-1.008.322a2.125 2.125 0 0 0-.847-1.05 2.338 2.338 0 0 0-1.316-.378c-.555 0-1.015.128-1.379.385a2.24 2.24 0 0 0-.811 1.057c-.178.453-.269.973-.273 1.561.009.905.219 1.633.63 2.184.41.546 1.022.819 1.834.819.513 0 .95-.117 1.309-.35.363-.238.639-.583.825-1.036l1.036.308c-.28.672-.69 1.185-1.232 1.54-.54.35-1.187.525-1.939.525Zm4.609-.21v-7.56h1.029v3.283h4.263V61.44h1.029V69h-1.029v-3.29h-4.263V69h-1.029Zm11.436.21c-.751 0-1.393-.17-1.925-.511a3.327 3.327 0 0 1-1.225-1.414c-.285-.602-.427-1.293-.427-2.072 0-.793.145-1.489.434-2.086.289-.597.7-1.062 1.232-1.393.537-.336 1.174-.504 1.911-.504.756 0 1.4.17 1.932.511.537.336.945.805 1.225 1.407.285.597.427 1.286.427 2.065 0 .793-.142 1.491-.427 2.093a3.272 3.272 0 0 1-1.232 1.4c-.537.336-1.178.504-1.925.504Zm0-.987c.84 0 1.465-.278 1.876-.833.411-.56.616-1.286.616-2.177 0-.915-.208-1.643-.623-2.184-.411-.541-1.034-.812-1.869-.812-.565 0-1.031.128-1.4.385a2.282 2.282 0 0 0-.819 1.057c-.177.448-.266.966-.266 1.554 0 .91.21 1.64.63 2.191.42.546 1.038.819 1.855.819Zm5.121.777v-7.56h3.115c.159 0 .35.01.574.028.229.019.441.054.637.105.425.112.765.34 1.022.686.261.345.392.76.392 1.246 0 .27-.042.513-.126.728-.079.21-.194.392-.343.546-.07.08-.147.15-.231.21a1.93 1.93 0 0 1-.245.14c.149.028.31.093.483.196.271.159.476.373.616.644.14.266.21.59.21.973 0 .518-.124.94-.371 1.267-.247.327-.579.55-.994.672-.187.051-.39.084-.609.098a9.396 9.396 0 0 1-.609.021h-3.521Zm1.036-.875h2.436c.098 0 .222-.007.371-.021.149-.019.282-.042.399-.07.275-.07.476-.21.602-.42.131-.215.196-.448.196-.7 0-.331-.098-.602-.294-.812-.191-.215-.448-.345-.77-.392a1.944 1.944 0 0 0-.336-.042 7.919 7.919 0 0 0-.315-.007h-2.289v2.464Zm0-3.346h2.114c.121 0 .257-.007.406-.021a1.74 1.74 0 0 0 .399-.091.921.921 0 0 0 .532-.434c.117-.205.175-.43.175-.672 0-.266-.063-.5-.189-.7a.961.961 0 0 0-.553-.42 1.857 1.857 0 0 0-.546-.105c-.191-.01-.313-.014-.364-.014h-1.974v2.457Zm8.626 4.431c-.569 0-1.047-.103-1.435-.308a2.096 2.096 0 0 1-.861-.819 2.238 2.238 0 0 1-.287-1.113c0-.41.082-.76.245-1.05.168-.294.395-.534.679-.721.29-.187.623-.329 1.001-.427.383-.093.805-.175 1.267-.245.467-.075.922-.138 1.365-.189.448-.056.84-.11 1.176-.161l-.364.224c.014-.747-.13-1.3-.434-1.659-.303-.36-.83-.539-1.582-.539-.518 0-.956.117-1.316.35-.354.233-.604.602-.749 1.106l-1.001-.294c.173-.677.521-1.202 1.043-1.575.523-.373 1.202-.56 2.037-.56.691 0 1.277.13 1.757.392.486.257.829.63 1.029 1.12.094.22.154.464.182.735.028.27.042.546.042.826V69h-.917v-1.897l.266.112c-.256.649-.655 1.143-1.197 1.484-.541.34-1.19.511-1.946.511Zm.119-.889c.481 0 .901-.086 1.26-.259.36-.173.649-.408.868-.707.22-.303.362-.644.427-1.022.056-.243.087-.509.091-.798.005-.294.007-.513.007-.658l.392.203c-.35.047-.73.093-1.141.14-.406.047-.807.1-1.204.161-.392.06-.746.133-1.064.217-.214.06-.422.147-.623.259-.2.107-.366.252-.497.434a1.165 1.165 0 0 0-.189.679c0 .22.054.432.161.637.112.205.29.376.532.511.248.135.574.203.98.203Zm7.549.679v-6.608h-2.681v-.952h6.391v.952h-2.681V69h-1.029Zm8.243.21c-.737 0-1.376-.163-1.918-.49a3.332 3.332 0 0 1-1.253-1.379c-.298-.593-.448-1.288-.448-2.086 0-.826.147-1.54.441-2.142a3.278 3.278 0 0 1 1.239-1.393c.537-.327 1.169-.49 1.897-.49.747 0 1.384.173 1.911.518.528.34.927.83 1.197 1.47.271.64.395 1.402.371 2.289h-1.05v-.364c-.018-.98-.231-1.72-.637-2.219-.401-.5-.989-.749-1.764-.749-.812 0-1.435.264-1.869.791-.429.527-.644 1.279-.644 2.254 0 .952.215 1.692.644 2.219.434.523 1.048.784 1.841.784.542 0 1.013-.124 1.414-.371.406-.252.726-.614.959-1.085l.959.371a3.421 3.421 0 0 1-1.323 1.533c-.578.36-1.234.539-1.967.539Zm-2.891-3.703v-.861h5.775v.861h-5.775ZM149.46 69v-.903c.28.051.492.04.637-.035a.713.713 0 0 0 .329-.392c.07-.187.128-.418.175-.693.074-.457.142-.961.203-1.512.06-.55.114-1.157.161-1.82.051-.667.102-1.402.154-2.205h5.138V69h-1.022v-6.573h-3.164a78.392 78.392 0 0 1-.245 2.891c-.042.448-.089.861-.14 1.239-.052.378-.105.705-.161.98-.084.415-.196.747-.336.994a.988.988 0 0 1-.609.49c-.271.08-.644.072-1.12-.021Zm8.759 0-.014-7.56h1.036v2.849h1.771c.22 0 .434.005.644.014.215.01.404.028.567.056.374.07.705.194.994.371.294.177.523.422.686.735.168.313.252.705.252 1.176 0 .649-.168 1.16-.504 1.533a2.298 2.298 0 0 1-1.26.728c-.191.042-.399.07-.623.084-.224.01-.445.014-.665.014h-2.884Zm1.022-.882h1.82c.159 0 .336-.005.532-.014.196-.01.369-.035.518-.077.248-.07.472-.21.672-.42.206-.215.308-.537.308-.966 0-.425-.098-.744-.294-.959a1.414 1.414 0 0 0-.784-.434 2.83 2.83 0 0 0-.469-.063 8.752 8.752 0 0 0-.483-.014h-1.82v2.947Zm9.253.882V58.92h3.892c.098 0 .207.005.329.014.126.005.252.019.378.042.527.08.973.264 1.337.553.368.285.646.644.833 1.078.191.434.287.915.287 1.442 0 .523-.096 1.001-.287 1.435a2.798 2.798 0 0 1-.84 1.085c-.364.285-.808.467-1.33.546a5.163 5.163 0 0 1-.707.056h-2.863V69h-1.029Zm1.029-4.809h2.835c.084 0 .182-.005.294-.014.112-.01.221-.026.329-.049.345-.075.627-.217.847-.427.224-.21.389-.46.497-.749.112-.29.168-.59.168-.903a2.48 2.48 0 0 0-.168-.903 1.934 1.934 0 0 0-.497-.756 1.724 1.724 0 0 0-.847-.427 1.938 1.938 0 0 0-.329-.042 3.611 3.611 0 0 0-.294-.014h-2.835v4.284Zm7.56-4.186V58.85h1.029v1.155h-1.029Zm0 8.995v-7.56h1.029V69h-1.029Zm7.243 0a5.03 5.03 0 0 1-1.26.105 2.8 2.8 0 0 1-1.106-.266 1.596 1.596 0 0 1-.735-.742 2.186 2.186 0 0 1-.224-.847c-.009-.29-.014-.618-.014-.987V59.34h1.022v6.881c0 .317.003.583.007.798.01.21.059.397.147.56.168.313.434.5.798.56.369.06.824.047 1.365-.042V69Zm-4.956-6.678v-.882h4.956v.882h-4.956Zm8.609 6.888c-.569 0-1.048-.103-1.435-.308a2.084 2.084 0 0 1-.861-.819 2.238 2.238 0 0 1-.287-1.113c0-.41.082-.76.245-1.05a2.09 2.09 0 0 1 .679-.721 3.407 3.407 0 0 1 1.001-.427c.383-.093.805-.175 1.267-.245.467-.075.922-.138 1.365-.189.448-.056.84-.11 1.176-.161l-.364.224c.014-.747-.131-1.3-.434-1.659-.303-.36-.831-.539-1.582-.539-.518 0-.957.117-1.316.35-.355.233-.604.602-.749 1.106l-1.001-.294c.173-.677.52-1.202 1.043-1.575.523-.373 1.202-.56 2.037-.56.691 0 1.276.13 1.757.392.485.257.828.63 1.029 1.12.093.22.154.464.182.735.028.27.042.546.042.826V69h-.917v-1.897l.266.112c-.257.649-.656 1.143-1.197 1.484-.541.34-1.19.511-1.946.511Zm.119-.889c.481 0 .901-.086 1.26-.259.359-.173.649-.408.868-.707.219-.303.362-.644.427-1.022.056-.243.086-.509.091-.798.005-.294.007-.513.007-.658l.392.203c-.35.047-.73.093-1.141.14-.406.047-.807.1-1.204.161-.392.06-.747.133-1.064.217-.215.06-.422.147-.623.259a1.438 1.438 0 0 0-.497.434 1.165 1.165 0 0 0-.189.679c0 .22.054.432.161.637.112.205.289.376.532.511.247.135.574.203.98.203Zm10.957.679v-3.857c0-.42-.039-.805-.119-1.155a2.644 2.644 0 0 0-.385-.924 1.756 1.756 0 0 0-.679-.616c-.275-.145-.611-.217-1.008-.217-.364 0-.686.063-.966.189a1.911 1.911 0 0 0-.7.546 2.457 2.457 0 0 0-.427.854 4.104 4.104 0 0 0-.147 1.148l-.728-.161c0-.775.136-1.426.406-1.953a2.816 2.816 0 0 1 1.12-1.197c.476-.27 1.022-.406 1.638-.406.453 0 .847.07 1.183.21.341.14.628.329.861.567.238.238.43.511.574.819.145.303.25.628.315.973.066.34.098.681.098 1.022V69h-1.036Zm-5.467 0v-7.56h.931v1.862h.105V69h-1.036Zm8.46-8.995V58.85h1.029v1.155h-1.029Zm0 8.995v-7.56h1.029V69h-1.029Zm6.326.21c-.737 0-1.376-.163-1.918-.49a3.332 3.332 0 0 1-1.253-1.379c-.298-.593-.448-1.288-.448-2.086 0-.826.147-1.54.441-2.142a3.278 3.278 0 0 1 1.239-1.393c.537-.327 1.169-.49 1.897-.49.747 0 1.384.173 1.911.518.528.34.927.83 1.197 1.47.271.64.395 1.402.371 2.289h-1.05v-.364c-.018-.98-.231-1.72-.637-2.219-.401-.5-.989-.749-1.764-.749-.812 0-1.435.264-1.869.791-.429.527-.644 1.279-.644 2.254 0 .952.215 1.692.644 2.219.434.523 1.048.784 1.841.784.542 0 1.013-.124 1.414-.371.406-.252.726-.614.959-1.085l.959.371a3.421 3.421 0 0 1-1.323 1.533c-.578.36-1.234.539-1.967.539Zm-2.891-3.703v-.861h5.775v.861h-5.775ZM213.287 69v-1.197h1.197V69h-1.197Zm2.659 0 3.472-10.08h1.365L224.255 69h-1.071l-3.297-9.506h.406L217.017 69h-1.071Zm1.547-2.443v-.966h5.208v.966h-5.208Zm11.162 2.653c-.761 0-1.405-.17-1.932-.511a3.257 3.257 0 0 1-1.204-1.407c-.271-.602-.411-1.293-.42-2.072.009-.793.154-1.489.434-2.086a3.206 3.206 0 0 1 1.211-1.4c.527-.336 1.167-.504 1.918-.504.765 0 1.43.187 1.995.56.569.373.959.884 1.169 1.533l-1.008.322a2.129 2.129 0 0 0-.847-1.05 2.338 2.338 0 0 0-1.316-.378c-.555 0-1.015.128-1.379.385a2.238 2.238 0 0 0-.812 1.057c-.177.453-.268.973-.273 1.561.009.905.219 1.633.63 2.184.411.546 1.022.819 1.834.819.513 0 .95-.117 1.309-.35.364-.238.639-.583.826-1.036l1.036.308c-.28.672-.691 1.185-1.232 1.54-.541.35-1.188.525-1.939.525Zm6.738 0c-.569 0-1.048-.103-1.435-.308a2.084 2.084 0 0 1-.861-.819 2.238 2.238 0 0 1-.287-1.113c0-.41.082-.76.245-1.05a2.09 2.09 0 0 1 .679-.721 3.407 3.407 0 0 1 1.001-.427c.383-.093.805-.175 1.267-.245.467-.075.922-.138 1.365-.189.448-.056.84-.11 1.176-.161l-.364.224c.014-.747-.131-1.3-.434-1.659-.303-.36-.831-.539-1.582-.539-.518 0-.957.117-1.316.35-.355.233-.604.602-.749 1.106l-1.001-.294c.173-.677.52-1.202 1.043-1.575.523-.373 1.202-.56 2.037-.56.691 0 1.276.13 1.757.392.485.257.828.63 1.029 1.12.093.22.154.464.182.735.028.27.042.546.042.826V69h-.917v-1.897l.266.112c-.257.649-.656 1.143-1.197 1.484-.541.34-1.19.511-1.946.511Zm.119-.889c.481 0 .901-.086 1.26-.259.359-.173.649-.408.868-.707.219-.303.362-.644.427-1.022.056-.243.086-.509.091-.798.005-.294.007-.513.007-.658l.392.203c-.35.047-.73.093-1.141.14-.406.047-.807.1-1.204.161-.392.06-.747.133-1.064.217-.215.06-.422.147-.623.259a1.438 1.438 0 0 0-.497.434 1.165 1.165 0 0 0-.189.679c0 .22.054.432.161.637.112.205.289.376.532.511.247.135.574.203.98.203Zm8.43.889c-.704 0-1.306-.175-1.806-.525a3.408 3.408 0 0 1-1.148-1.435c-.266-.602-.399-1.281-.399-2.037 0-.751.131-1.428.392-2.03a3.381 3.381 0 0 1 1.141-1.428c.495-.35 1.088-.525 1.778-.525.71 0 1.307.173 1.792.518.486.345.852.819 1.099 1.421.252.597.378 1.279.378 2.044 0 .751-.123 1.43-.371 2.037-.247.602-.611 1.08-1.092 1.435-.48.35-1.068.525-1.764.525Zm.105-.959c.537 0 .98-.13 1.33-.392.35-.261.612-.62.784-1.078.173-.462.259-.985.259-1.568 0-.593-.086-1.115-.259-1.568-.172-.457-.434-.814-.784-1.071-.345-.257-.781-.385-1.309-.385-.541 0-.989.133-1.344.399a2.368 2.368 0 0 0-.791 1.085c-.168.457-.252.97-.252 1.54 0 .574.087 1.092.259 1.554.178.457.441.819.791 1.085.35.266.789.399 1.316.399Zm2.373.749v-5.691h-.112V58.92h1.036V69h-.924Zm6.087.21c-.737 0-1.377-.163-1.918-.49a3.325 3.325 0 0 1-1.253-1.379c-.299-.593-.448-1.288-.448-2.086 0-.826.147-1.54.441-2.142a3.278 3.278 0 0 1 1.239-1.393c.537-.327 1.169-.49 1.897-.49.747 0 1.384.173 1.911.518.527.34.926.83 1.197 1.47s.394 1.402.371 2.289h-1.05v-.364c-.019-.98-.231-1.72-.637-2.219-.401-.5-.989-.749-1.764-.749-.812 0-1.435.264-1.869.791-.429.527-.644 1.279-.644 2.254 0 .952.215 1.692.644 2.219.434.523 1.048.784 1.841.784.541 0 1.013-.124 1.414-.371.406-.252.726-.614.959-1.085l.959.371a3.433 3.433 0 0 1-1.323 1.533c-.579.36-1.234.539-1.967.539Zm-2.891-3.703v-.861h5.775v.861h-5.775ZM266.309 69l.007-4.963c0-.583-.164-1.04-.49-1.372-.322-.336-.733-.504-1.232-.504-.285 0-.563.065-.833.196-.271.13-.495.34-.672.63-.173.29-.259.667-.259 1.134l-.609-.175c-.014-.541.091-1.015.315-1.421.228-.406.541-.721.938-.945a2.693 2.693 0 0 1 1.358-.343c.76 0 1.369.236 1.827.707.457.467.686 1.099.686 1.897L267.338 69h-1.029Zm-9.023 0v-7.56h.924v1.862h.112V69h-1.036Zm4.522 0 .007-4.893c0-.602-.161-1.076-.483-1.421-.318-.35-.738-.525-1.26-.525-.523 0-.945.18-1.267.539-.322.355-.483.828-.483 1.421l-.616-.336c0-.485.114-.92.343-1.302.228-.387.541-.69.938-.91a2.697 2.697 0 0 1 1.351-.336c.48 0 .907.103 1.281.308.378.205.674.504.889.896.214.392.322.868.322 1.428L262.823 69h-1.015Zm8.156 3.36 1.463-3.969.021 1.176-3.311-8.127h1.092l2.716 6.797h-.448l2.506-6.797h1.05l-4.06 10.92h-1.029ZM29.061 101.21c-1.003 0-1.85-.222-2.541-.665a4.215 4.215 0 0 1-1.568-1.855c-.355-.789-.532-1.699-.532-2.73s.177-1.941.532-2.73c.355-.789.877-1.405 1.568-1.848.69-.448 1.538-.672 2.541-.672 1.008 0 1.855.224 2.541.672.69.443 1.213 1.06 1.568 1.848.36.789.539 1.699.539 2.73s-.18 1.941-.539 2.73a4.215 4.215 0 0 1-1.568 1.855c-.686.443-1.533.665-2.541.665Zm0-.987c.789 0 1.447-.18 1.974-.539.527-.36.922-.859 1.183-1.498.266-.644.399-1.386.399-2.226 0-.84-.133-1.58-.399-2.219-.261-.64-.656-1.139-1.183-1.498-.527-.36-1.185-.541-1.974-.546-.789 0-1.444.18-1.967.539-.523.36-.917.861-1.183 1.505-.261.64-.394 1.379-.399 2.219-.005.84.124 1.58.385 2.219.266.635.663 1.134 1.19 1.498.527.359 1.185.541 1.974.546Zm9.08.994c-.704-.005-1.308-.159-1.812-.462-.504-.303-.896-.756-1.176-1.358-.276-.602-.425-1.353-.448-2.254a14.366 14.366 0 0 1 .182-2.639c.07-.425.154-.77.252-1.036a3.58 3.58 0 0 1 .518-.966c.229-.303.492-.55.79-.742.29-.196.617-.348.98-.455a8.22 8.22 0 0 1 1.149-.259c.401-.06.798-.114 1.19-.161.397-.047.763-.105 1.099-.175l.112.931c-.257.051-.56.098-.91.14-.35.042-.717.093-1.1.154a8.796 8.796 0 0 0-1.098.231 3.3 3.3 0 0 0-.896.385c-.378.229-.67.574-.875 1.036-.2.462-.325.992-.371 1.589.29-.453.672-.793 1.148-1.022a3.586 3.586 0 0 1 1.56-.343c.682 0 1.268.156 1.758.469.495.313.875.747 1.14 1.302.267.555.4 1.192.4 1.911 0 .751-.147 1.407-.441 1.967-.29.56-.703.994-1.24 1.302-.536.303-1.173.455-1.91.455Zm.078-.987c.793 0 1.395-.247 1.806-.742.415-.495.623-1.153.623-1.974 0-.84-.215-1.503-.644-1.988-.425-.485-1.024-.728-1.8-.728-.774 0-1.369.243-1.784.728-.416.485-.623 1.148-.623 1.988 0 .84.208 1.503.623 1.988.415.485 1.015.728 1.799.728Zm5.858 4.13 1.464-3.969.02 1.176-3.31-8.127h1.092l2.715 6.797h-.447l2.506-6.797h1.05l-4.06 10.92h-1.03ZM55.01 101v-2.814a4.649 4.649 0 0 1-.93.329c-.37.093-.766.14-1.19.14-.766 0-1.387-.17-1.863-.511-.476-.34-.786-.833-.93-1.477a4.06 4.06 0 0 1-.099-.609 15.474 15.474 0 0 1-.035-.952V93.44h1.036v1.666c0 .154.005.329.014.525.01.196.03.387.063.574.094.509.304.894.63 1.155.332.261.796.392 1.393.392.374 0 .726-.047 1.057-.14.336-.098.621-.229.854-.392v-3.78h1.03V101h-1.03Zm6.188.21c-.738 0-1.377-.163-1.918-.49a3.327 3.327 0 0 1-1.253-1.379c-.3-.593-.448-1.288-.448-2.086 0-.826.147-1.54.44-2.142a3.278 3.278 0 0 1 1.24-1.393c.536-.327 1.169-.49 1.897-.49.746 0 1.383.173 1.91.518.528.34.927.83 1.198 1.47.27.64.394 1.402.37 2.289h-1.05v-.364c-.018-.98-.23-1.72-.636-2.219-.402-.5-.99-.749-1.764-.749-.812 0-1.435.264-1.87.791-.429.527-.643 1.279-.643 2.254 0 .952.214 1.692.644 2.219.434.523 1.047.784 1.84.784.542 0 1.013-.124 1.415-.371.406-.252.725-.614.959-1.085l.959.371a3.43 3.43 0 0 1-1.323 1.533c-.58.359-1.235.539-1.967.539Zm-2.891-3.703v-.861h5.775v.861h-5.775ZM66.18 101v-7.56h1.029v3.283h4.263V93.44h1.029V101h-1.029v-3.29h-4.263V101H66.18Zm14.284-7.56V101h-1v-5.887L75.32 101h-.868v-7.56h1v5.838l4.151-5.838h.862Zm5.164 7.77c-.737 0-1.376-.163-1.918-.49a3.328 3.328 0 0 1-1.253-1.379c-.298-.593-.448-1.288-.448-2.086 0-.826.147-1.54.441-2.142a3.278 3.278 0 0 1 1.24-1.393c.536-.327 1.168-.49 1.896-.49.747 0 1.384.173 1.911.518.528.34.927.83 1.197 1.47s.395 1.402.371 2.289h-1.05v-.364c-.018-.98-.23-1.72-.637-2.219-.401-.5-.99-.749-1.764-.749-.812 0-1.435.264-1.869.791-.43.527-.644 1.279-.644 2.254 0 .952.215 1.692.644 2.219.434.523 1.048.784 1.841.784.542 0 1.013-.124 1.414-.371.406-.252.726-.614.96-1.085l.958.371a3.428 3.428 0 0 1-1.323 1.533c-.578.359-1.234.539-1.967.539Zm-2.89-3.703v-.861h5.774v.861h-5.775Zm13.714 3.71c-.704-.005-1.309-.159-1.813-.462-.504-.303-.896-.756-1.176-1.358-.275-.602-.424-1.353-.448-2.254a14.4 14.4 0 0 1 .182-2.639c.07-.425.154-.77.252-1.036a3.58 3.58 0 0 1 .518-.966 3.05 3.05 0 0 1 .791-.742c.29-.196.616-.348.98-.455a8.224 8.224 0 0 1 1.148-.259c.402-.06.798-.114 1.19-.161.397-.047.763-.105 1.1-.175l.111.931c-.256.051-.56.098-.91.14-.35.042-.716.093-1.099.154a8.796 8.796 0 0 0-1.099.231 3.3 3.3 0 0 0-.896.385c-.378.229-.67.574-.875 1.036-.2.462-.324.992-.37 1.589.289-.453.671-.793 1.147-1.022a3.586 3.586 0 0 1 1.561-.343c.682 0 1.267.156 1.757.469.495.313.875.747 1.141 1.302s.399 1.192.399 1.911c0 .751-.147 1.407-.44 1.967-.29.56-.703.994-1.24 1.302-.536.303-1.173.455-1.91.455Zm.077-.987c.794 0 1.396-.247 1.806-.742.416-.495.623-1.153.623-1.974 0-.84-.214-1.503-.644-1.988-.424-.485-1.024-.728-1.799-.728-.774 0-1.37.243-1.785.728-.415.485-.623 1.148-.623 1.988 0 .84.208 1.503.623 1.988.416.485 1.015.728 1.8.728Zm7.218.98c-.57 0-1.048-.103-1.435-.308a2.08 2.08 0 0 1-.861-.819 2.228 2.228 0 0 1-.287-1.113c0-.41.081-.76.245-1.05a2.09 2.09 0 0 1 .679-.721 3.407 3.407 0 0 1 1.001-.427c.382-.093.805-.175 1.267-.245.466-.075.921-.138 1.365-.189.448-.056.84-.11 1.176-.161l-.364.224c.014-.747-.131-1.3-.434-1.659-.304-.36-.831-.539-1.582-.539-.518 0-.957.117-1.316.35-.355.233-.605.602-.749 1.106l-1.001-.294c.172-.677.52-1.202 1.043-1.575.522-.373 1.201-.56 2.037-.56.69 0 1.276.13 1.757.392.485.257.828.63 1.029 1.12.093.22.154.464.182.735.028.27.042.546.042.826V101h-.917v-1.897l.266.112c-.257.649-.656 1.143-1.197 1.484-.542.341-1.19.511-1.946.511Zm.119-.889c.48 0 .9-.086 1.26-.259.359-.173.648-.408.868-.707.219-.303.361-.644.427-1.022.056-.243.086-.509.091-.798.004-.294.007-.513.007-.658l.392.203c-.35.047-.731.093-1.141.14-.406.047-.808.1-1.204.161-.392.06-.747.133-1.064.217-.215.06-.423.147-.623.259a1.429 1.429 0 0 0-.497.434 1.165 1.165 0 0 0-.189.679c0 .22.053.432.161.637.112.205.289.376.532.511.247.135.574.203.98.203Zm8.22.889c-.761 0-1.426-.166-1.995-.497a3.614 3.614 0 0 1-1.337-1.393l.826-.525c.275.467.618.821 1.029 1.064.41.243.882.364 1.414.364.555 0 1.001-.128 1.337-.385.336-.257.504-.609.504-1.057 0-.308-.073-.553-.217-.735-.14-.182-.355-.313-.644-.392-.285-.08-.642-.119-1.071-.119h-.896v-.882h.882c.522 0 .942-.093 1.26-.28.322-.191.483-.49.483-.896 0-.43-.161-.747-.483-.952-.318-.21-.698-.315-1.141-.315-.448 0-.873.093-1.274.28a3.14 3.14 0 0 0-1.001.707l-.658-.693a3.77 3.77 0 0 1 1.323-.945 4.215 4.215 0 0 1 1.687-.329c.485 0 .924.086 1.316.259.396.168.709.415.938.742.233.327.35.719.35 1.176 0 .43-.105.8-.315 1.113a2.38 2.38 0 0 1-.875.777l-.056-.385c.326.06.597.191.812.392.214.2.373.441.476.721.102.28.154.565.154.854 0 .48-.126.896-.378 1.246a2.442 2.442 0 0 1-1.015.805c-.425.187-.903.28-1.435.28Zm10.379-7.77V101h-1.001v-5.887L117.32 101h-.868v-7.56h1.001v5.838l4.151-5.838h.861Zm5.359 7.77c-.695 0-1.283-.175-1.764-.525-.48-.355-.844-.833-1.092-1.435-.247-.607-.371-1.286-.371-2.037 0-.765.124-1.447.371-2.044.252-.602.621-1.076 1.106-1.421.486-.345 1.083-.518 1.792-.518.691 0 1.284.175 1.778.525.495.35.873.826 1.134 1.428.266.602.399 1.279.399 2.03 0 .756-.133 1.435-.399 2.037a3.402 3.402 0 0 1-1.148 1.435c-.499.35-1.101.525-1.806.525Zm-3.402 3.15V93.44h.924v5.691h.112v5.229h-1.036Zm3.297-4.109c.528 0 .966-.133 1.316-.399.35-.266.612-.628.784-1.085.178-.462.266-.98.266-1.554 0-.57-.086-1.083-.259-1.54a2.354 2.354 0 0 0-.791-1.085c-.35-.266-.795-.399-1.337-.399-.527 0-.966.128-1.316.385-.345.257-.604.614-.777 1.071-.172.453-.259.975-.259 1.568 0 .583.087 1.106.259 1.568.173.457.434.817.784 1.078.35.261.794.392 1.33.392Zm5.8 4.109 1.463-3.969.021 1.176-3.311-8.127h1.092l2.716 6.797h-.448l2.506-6.797h1.05l-4.06 10.92h-1.029Zm9.504-3.15c-.738 0-1.377-.163-1.918-.49a3.32 3.32 0 0 1-1.253-1.379c-.299-.593-.448-1.288-.448-2.086 0-.826.147-1.54.441-2.142a3.278 3.278 0 0 1 1.239-1.393c.536-.327 1.169-.49 1.897-.49.746 0 1.383.173 1.911.518.527.34.926.83 1.197 1.47.27.64.394 1.402.371 2.289h-1.05v-.364c-.019-.98-.231-1.72-.637-2.219-.402-.5-.99-.749-1.764-.749-.812 0-1.435.264-1.869.791-.43.527-.644 1.279-.644 2.254 0 .952.214 1.692.644 2.219.434.523 1.047.784 1.841.784.541 0 1.012-.124 1.414-.371a2.6 2.6 0 0 0 .959-1.085l.959.371a3.433 3.433 0 0 1-1.323 1.533c-.579.359-1.235.539-1.967.539Zm-2.891-3.703v-.861h5.775v.861h-5.775Zm9.837 3.493v-6.608h-2.681v-.952h6.391v.952h-2.681V101h-1.029Zm8.043.21c-.76 0-1.404-.17-1.932-.511a3.265 3.265 0 0 1-1.204-1.407c-.27-.602-.41-1.293-.42-2.072.01-.793.154-1.489.434-2.086a3.206 3.206 0 0 1 1.211-1.4c.528-.336 1.167-.504 1.918-.504.766 0 1.431.187 1.995.56.57.373.959.884 1.169 1.533l-1.008.322a2.124 2.124 0 0 0-.847-1.05 2.336 2.336 0 0 0-1.316-.378c-.555 0-1.015.128-1.379.385a2.244 2.244 0 0 0-.812 1.057c-.177.453-.268.973-.273 1.561.01.905.22 1.633.63 2.184.411.546 1.022.819 1.834.819.514 0 .95-.117 1.309-.35.364-.238.64-.583.826-1.036l1.036.308c-.28.672-.69 1.185-1.232 1.54-.541.35-1.187.525-1.939.525Zm9.314-.21v-2.849h-1.764c-.205 0-.417-.007-.637-.021a7.088 7.088 0 0 1-.602-.077 2.61 2.61 0 0 1-1.358-.7c-.368-.369-.553-.877-.553-1.526 0-.635.173-1.143.518-1.526a2.39 2.39 0 0 1 1.253-.756c.224-.051.451-.082.679-.091.234-.01.434-.014.602-.014h2.891l.007 7.56h-1.036Zm-5.159 0 2.107-3.171h1.141L163.294 101h-1.127Zm3.339-3.731h1.82v-2.947h-1.82c-.112 0-.268.005-.469.014-.2.01-.389.04-.567.091a1.482 1.482 0 0 0-.462.245 1.37 1.37 0 0 0-.378.455 1.414 1.414 0 0 0-.154.686c0 .378.103.681.308.91.21.224.472.378.784.462.168.037.336.06.504.07.168.01.313.014.434.014Zm7.615 3.731v-7.56h1.029v3.283h4.263V93.44h1.029V101h-1.029v-3.29h-4.263V101h-1.029Zm10.442.21c-.569 0-1.048-.103-1.435-.308a2.08 2.08 0 0 1-.861-.819 2.238 2.238 0 0 1-.287-1.113c0-.41.082-.76.245-1.05a2.09 2.09 0 0 1 .679-.721 3.407 3.407 0 0 1 1.001-.427c.383-.093.805-.175 1.267-.245.467-.075.922-.138 1.365-.189.448-.056.84-.11 1.176-.161l-.364.224c.014-.747-.131-1.3-.434-1.659-.303-.36-.831-.539-1.582-.539-.518 0-.957.117-1.316.35-.355.233-.604.602-.749 1.106l-1.001-.294c.173-.677.52-1.202 1.043-1.575.523-.373 1.202-.56 2.037-.56.691 0 1.276.13 1.757.392.485.257.828.63 1.029 1.12.093.22.154.464.182.735.028.27.042.546.042.826V101h-.917v-1.897l.266.112c-.257.649-.656 1.143-1.197 1.484-.541.341-1.19.511-1.946.511Zm.119-.889c.481 0 .901-.086 1.26-.259.359-.173.649-.408.868-.707.219-.303.362-.644.427-1.022.056-.243.086-.509.091-.798.005-.294.007-.513.007-.658l.392.203c-.35.047-.73.093-1.141.14-.406.047-.807.1-1.204.161-.392.06-.747.133-1.064.217-.215.06-.422.147-.623.259a1.438 1.438 0 0 0-.497.434 1.165 1.165 0 0 0-.189.679c0 .22.054.432.161.637.112.205.289.376.532.511.247.135.574.203.98.203ZM24.42 122.68v-2.562c.43 0 .737-.138.924-.413.187-.28.338-.726.455-1.337.08-.397.145-.824.196-1.281.051-.457.096-.98.133-1.568.037-.593.072-1.286.105-2.079h4.998v6.678h.728v2.562h-.994V121h-5.558v1.68h-.987Zm1.743-2.562h4.046v-5.796h-3.024c-.014.355-.035.73-.063 1.127-.023.397-.054.793-.091 1.19-.033.397-.072.77-.119 1.12a8.718 8.718 0 0 1-.154.91c-.07.336-.147.623-.231.861a1.4 1.4 0 0 1-.364.588Zm10.355 1.092c-.752 0-1.393-.17-1.925-.511a3.326 3.326 0 0 1-1.225-1.414c-.285-.602-.427-1.293-.427-2.072 0-.793.145-1.489.434-2.086.29-.597.7-1.062 1.232-1.393.537-.336 1.174-.504 1.91-.504.757 0 1.4.17 1.933.511a3.22 3.22 0 0 1 1.225 1.407c.285.597.427 1.286.427 2.065 0 .793-.142 1.491-.427 2.093a3.274 3.274 0 0 1-1.232 1.4c-.537.336-1.178.504-1.925.504Zm0-.987c.84 0 1.465-.278 1.876-.833.41-.56.616-1.286.616-2.177 0-.915-.208-1.643-.623-2.184-.41-.541-1.034-.812-1.87-.812-.564 0-1.03.128-1.4.385a2.281 2.281 0 0 0-.818 1.057c-.178.448-.266.966-.266 1.554 0 .91.21 1.64.63 2.191.42.546 1.038.819 1.855.819Zm5.121.777.007-7.56h1.036v3.64l3.374-3.64h1.372l-3.542 3.78L47.89 121h-1.498l-3.71-3.64V121h-1.043Zm9.115.21c-.569 0-1.047-.103-1.435-.308a2.085 2.085 0 0 1-.86-.819 2.237 2.237 0 0 1-.288-1.113c0-.411.082-.761.245-1.05.168-.294.395-.534.68-.721.289-.187.622-.329 1-.427a14.73 14.73 0 0 1 1.267-.245c.467-.075.922-.138 1.365-.189.448-.056.84-.11 1.176-.161l-.364.224c.014-.747-.13-1.3-.434-1.659-.303-.359-.83-.539-1.582-.539-.518 0-.956.117-1.316.35-.354.233-.604.602-.749 1.106l-1-.294c.172-.677.52-1.202 1.042-1.575.523-.373 1.202-.56 2.037-.56.691 0 1.277.131 1.757.392.486.257.829.63 1.03 1.12.093.219.153.464.181.735.028.271.042.546.042.826V121h-.917v-1.897l.266.112c-.256.649-.655 1.143-1.197 1.484-.541.341-1.19.511-1.946.511Zm.12-.889c.48 0 .9-.086 1.26-.259.359-.173.648-.408.867-.707.22-.303.362-.644.427-1.022.056-.243.087-.509.091-.798.005-.294.007-.513.007-.658l.392.203c-.35.047-.73.093-1.14.14-.407.047-.808.1-1.205.161-.392.061-.746.133-1.064.217a2.904 2.904 0 0 0-.623.259c-.2.107-.366.252-.497.434a1.164 1.164 0 0 0-.189.679c0 .219.054.432.161.637.112.205.29.376.532.511.248.135.574.203.98.203Zm8.22.889c-.761 0-1.426-.166-1.995-.497a3.62 3.62 0 0 1-1.337-1.393l.826-.525c.275.467.618.821 1.029 1.064.41.243.882.364 1.414.364.555 0 1-.128 1.337-.385.336-.257.504-.609.504-1.057 0-.308-.073-.553-.217-.735-.14-.182-.355-.313-.644-.392-.285-.079-.642-.119-1.071-.119h-.896v-.882h.882c.522 0 .942-.093 1.26-.28.322-.191.483-.49.483-.896 0-.429-.161-.747-.483-.952-.318-.21-.698-.315-1.141-.315a2.98 2.98 0 0 0-1.274.28c-.397.182-.73.418-1.001.707l-.658-.693c.378-.415.819-.73 1.323-.945a4.223 4.223 0 0 1 1.687-.329c.485 0 .924.086 1.316.259.396.168.709.415.938.742.233.327.35.719.35 1.176 0 .429-.105.8-.315 1.113a2.37 2.37 0 0 1-.875.777l-.056-.385c.326.061.597.191.812.392.214.201.373.441.476.721.102.28.154.565.154.854 0 .481-.126.896-.378 1.246a2.435 2.435 0 0 1-1.015.805c-.425.187-.903.28-1.435.28Zm6.535 0c-.569 0-1.047-.103-1.435-.308a2.085 2.085 0 0 1-.86-.819 2.237 2.237 0 0 1-.288-1.113c0-.411.082-.761.245-1.05.168-.294.395-.534.68-.721.289-.187.622-.329 1-.427a14.73 14.73 0 0 1 1.267-.245c.467-.075.922-.138 1.365-.189.448-.056.84-.11 1.176-.161l-.364.224c.014-.747-.13-1.3-.434-1.659-.303-.359-.83-.539-1.582-.539-.518 0-.956.117-1.316.35-.354.233-.604.602-.749 1.106l-1-.294c.172-.677.52-1.202 1.042-1.575.523-.373 1.202-.56 2.037-.56.691 0 1.277.131 1.757.392.486.257.829.63 1.03 1.12.093.219.153.464.181.735.028.271.042.546.042.826V121h-.917v-1.897l.266.112c-.256.649-.655 1.143-1.197 1.484-.541.341-1.19.511-1.946.511Zm.12-.889c.48 0 .9-.086 1.26-.259.359-.173.648-.408.867-.707.22-.303.362-.644.427-1.022.056-.243.087-.509.091-.798.005-.294.007-.513.007-.658l.392.203c-.35.047-.73.093-1.14.14-.407.047-.808.1-1.205.161-.392.061-.746.133-1.064.217a2.904 2.904 0 0 0-.623.259c-.2.107-.366.252-.497.434a1.164 1.164 0 0 0-.189.679c0 .219.054.432.161.637.112.205.29.376.532.511.248.135.574.203.98.203Zm7.548.679v-6.608h-2.681v-.952h6.39v.952h-2.68V121h-1.03Zm8.243.21c-.737 0-1.376-.163-1.918-.49a3.326 3.326 0 0 1-1.253-1.379c-.298-.593-.448-1.288-.448-2.086 0-.826.147-1.54.441-2.142a3.28 3.28 0 0 1 1.24-1.393c.536-.327 1.168-.49 1.896-.49.747 0 1.384.173 1.911.518.528.341.927.831 1.197 1.47.271.639.395 1.402.371 2.289h-1.05v-.364c-.018-.98-.23-1.72-.637-2.219-.401-.499-.989-.749-1.764-.749-.812 0-1.435.264-1.869.791-.429.527-.644 1.279-.644 2.254 0 .952.215 1.692.644 2.219.434.523 1.048.784 1.841.784.542 0 1.013-.124 1.414-.371.406-.252.726-.614.96-1.085l.958.371a3.428 3.428 0 0 1-1.323 1.533c-.578.359-1.234.539-1.967.539Zm-2.89-3.703v-.861h5.774v.861H78.65ZM85.83 121v-.903c.28.051.493.04.638-.035a.71.71 0 0 0 .329-.392 3.84 3.84 0 0 0 .175-.693c.074-.457.142-.961.203-1.512.06-.551.114-1.157.16-1.82.052-.667.103-1.402.155-2.205h5.138V121h-1.022v-6.573h-3.164a75.779 75.779 0 0 1-.245 2.891c-.042.448-.089.861-.14 1.239-.052.378-.105.705-.161.98-.084.415-.196.747-.336.994a.985.985 0 0 1-.61.49c-.27.079-.643.072-1.12-.021Zm8.76 0-.014-7.56h1.037v2.849h1.77c.22 0 .434.005.645.014.214.009.403.028.566.056.374.07.705.194.995.371.293.177.522.422.686.735.168.313.252.705.252 1.176 0 .649-.168 1.16-.504 1.533a2.305 2.305 0 0 1-1.26.728c-.192.042-.4.07-.624.084-.224.009-.445.014-.664.014H94.59Zm1.022-.882h1.82c.16 0 .337-.005.532-.014.197-.009.37-.035.519-.077.247-.07.47-.21.671-.42.206-.215.309-.537.309-.966 0-.425-.098-.744-.294-.959a1.417 1.417 0 0 0-.784-.434 2.778 2.778 0 0 0-.47-.063 9.057 9.057 0 0 0-.483-.014h-1.82v2.947Zm6.238.882v-7.56h1.029v3.283h4.263v-3.283h1.029V121h-1.029v-3.29h-4.263V121h-1.029Zm11.435.21c-.751 0-1.393-.17-1.925-.511a3.33 3.33 0 0 1-1.225-1.414c-.284-.602-.427-1.293-.427-2.072 0-.793.145-1.489.434-2.086a3.29 3.29 0 0 1 1.232-1.393c.537-.336 1.174-.504 1.911-.504.756 0 1.4.17 1.932.511.537.336.945.805 1.225 1.407.285.597.427 1.286.427 2.065 0 .793-.142 1.491-.427 2.093a3.267 3.267 0 0 1-1.232 1.4c-.536.336-1.178.504-1.925.504Zm0-.987c.84 0 1.466-.278 1.876-.833.411-.56.616-1.286.616-2.177 0-.915-.207-1.643-.623-2.184-.41-.541-1.033-.812-1.869-.812-.564 0-1.031.128-1.4.385a2.281 2.281 0 0 0-.819 1.057c-.177.448-.266.966-.266 1.554 0 .91.21 1.64.63 2.191.42.546 1.039.819 1.855.819Zm8.265-7.679c-.332 0-.635-.082-.91-.245a1.857 1.857 0 0 1-.658-.651 1.787 1.787 0 0 1-.238-.91h.854c0 .261.093.485.28.672.186.187.41.28.672.28a.9.9 0 0 0 .672-.28.92.92 0 0 0 .28-.672h.854c0 .331-.082.635-.245.91a1.813 1.813 0 0 1-.651.651 1.756 1.756 0 0 1-.91.245Zm2.87.896V121h-1.001v-5.887L119.275 121h-.868v-7.56h1.001v5.838l4.151-5.838h.861Zm4.76 7.56v-7.56h.917l2.947 6.188 2.954-6.188h.91V121h-.994v-5.362L133.373 121h-.651l-2.541-5.362V121h-1.001Zm12.886.21c-.738 0-1.377-.163-1.918-.49a3.319 3.319 0 0 1-1.253-1.379c-.299-.593-.448-1.288-.448-2.086 0-.826.147-1.54.441-2.142a3.28 3.28 0 0 1 1.239-1.393c.536-.327 1.169-.49 1.897-.49.746 0 1.383.173 1.911.518.527.341.926.831 1.197 1.47.27.639.394 1.402.371 2.289h-1.05v-.364c-.019-.98-.231-1.72-.637-2.219-.402-.499-.99-.749-1.764-.749-.812 0-1.435.264-1.869.791-.43.527-.644 1.279-.644 2.254 0 .952.214 1.692.644 2.219.434.523 1.047.784 1.841.784.541 0 1.012-.124 1.414-.371.406-.252.725-.614.959-1.085l.959.371a3.433 3.433 0 0 1-1.323 1.533c-.579.359-1.235.539-1.967.539Zm-2.891-3.703v-.861h5.775v.861h-5.775Zm7.321 5.173v-2.562c.43 0 .738-.138.924-.413.187-.28.339-.726.455-1.337.08-.397.145-.824.196-1.281.052-.457.096-.98.133-1.568.038-.593.073-1.286.105-2.079h4.998v6.678h.728v2.562h-.994V121h-5.558v1.68h-.987Zm1.743-2.562h4.046v-5.796h-3.024c-.014.355-.035.73-.063 1.127-.023.397-.053.793-.091 1.19-.032.397-.072.77-.119 1.12a8.64 8.64 0 0 1-.154.91c-.07.336-.147.623-.231.861a1.39 1.39 0 0 1-.364.588Zm13.204-6.678V121h-1.001v-5.887L156.298 121h-.868v-7.56h1.001v5.838l4.151-5.838h.861Zm8.461 8.869V121h-6.503v-7.56h1.029v6.573h3.955v-6.573h1.029v6.608h1.519v2.261h-1.029Zm8.15-8.869V121h-1.001v-5.887L172.909 121h-.868v-7.56h1.001v5.838l4.151-5.838h.861Zm1.958 7.56v-7.56h1.029v3.283h4.263v-3.283h1.029V121h-1.029v-3.29h-4.263V121h-1.029Zm11.478.21c-.738 0-1.377-.163-1.918-.49a3.319 3.319 0 0 1-1.253-1.379c-.299-.593-.448-1.288-.448-2.086 0-.826.147-1.54.441-2.142a3.28 3.28 0 0 1 1.239-1.393c.536-.327 1.169-.49 1.897-.49.746 0 1.383.173 1.911.518.527.341.926.831 1.197 1.47.27.639.394 1.402.371 2.289h-1.05v-.364c-.019-.98-.231-1.72-.637-2.219-.402-.499-.99-.749-1.764-.749-.812 0-1.435.264-1.869.791-.43.527-.644 1.279-.644 2.254 0 .952.214 1.692.644 2.219.434.523 1.047.784 1.841.784.541 0 1.012-.124 1.414-.371.406-.252.725-.614.959-1.085l.959.371a3.433 3.433 0 0 1-1.323 1.533c-.579.359-1.235.539-1.967.539Zm-2.891-3.703v-.861h5.775v.861h-5.775Zm16.69-4.067V121h-1.001v-5.887L200.144 121h-.868v-7.56h1.001v5.838l4.151-5.838h.861Zm7.924 7.77c-.751 0-1.393-.17-1.925-.511a3.33 3.33 0 0 1-1.225-1.414c-.284-.602-.427-1.293-.427-2.072 0-.793.145-1.489.434-2.086a3.29 3.29 0 0 1 1.232-1.393c.537-.336 1.174-.504 1.911-.504.756 0 1.4.17 1.932.511.537.336.945.805 1.225 1.407.285.597.427 1.286.427 2.065 0 .793-.142 1.491-.427 2.093a3.267 3.267 0 0 1-1.232 1.4c-.536.336-1.178.504-1.925.504Zm0-.987c.84 0 1.466-.278 1.876-.833.411-.56.616-1.286.616-2.177 0-.915-.207-1.643-.623-2.184-.41-.541-1.033-.812-1.869-.812-.564 0-1.031.128-1.4.385a2.281 2.281 0 0 0-.819 1.057c-.177.448-.266.966-.266 1.554 0 .91.21 1.64.63 2.191.42.546 1.039.819 1.855.819Zm5.121.777v-7.56h6.013V121h-1.029v-6.573h-3.955V121h-1.029Zm13.984-7.56V121h-1.001v-5.887L227.173 121h-.868v-7.56h1.001v5.838l4.151-5.838h.861Zm5.36 7.77c-.696 0-1.284-.175-1.764-.525-.481-.355-.845-.833-1.092-1.435-.248-.607-.371-1.286-.371-2.037 0-.765.123-1.447.371-2.044.252-.602.62-1.076 1.106-1.421.485-.345 1.082-.518 1.792-.518.69 0 1.283.175 1.778.525.494.35.872.826 1.134 1.428.266.602.399 1.279.399 2.03 0 .756-.133 1.435-.399 2.037a3.41 3.41 0 0 1-1.148 1.435c-.5.35-1.102.525-1.806.525Zm-3.402 3.15v-10.92h.924v5.691h.112v5.229h-1.036Zm3.297-4.109c.527 0 .966-.133 1.316-.399.35-.266.611-.628.784-1.085.177-.462.266-.98.266-1.554 0-.569-.087-1.083-.259-1.54a2.37 2.37 0 0 0-.791-1.085c-.35-.266-.796-.399-1.337-.399-.528 0-.966.128-1.316.385-.346.257-.605.614-.777 1.071-.173.453-.259.975-.259 1.568 0 .583.086 1.106.259 1.568.172.457.434.817.784 1.078.35.261.793.392 1.33.392Zm7.158.959c-.569 0-1.048-.103-1.435-.308a2.08 2.08 0 0 1-.861-.819 2.24 2.24 0 0 1-.287-1.113c0-.411.082-.761.245-1.05.168-.294.394-.534.679-.721a3.399 3.399 0 0 1 1.001-.427c.383-.093.805-.175 1.267-.245.467-.075.922-.138 1.365-.189.448-.056.84-.11 1.176-.161l-.364.224c.014-.747-.131-1.3-.434-1.659s-.831-.539-1.582-.539c-.518 0-.957.117-1.316.35-.355.233-.604.602-.749 1.106l-1.001-.294c.173-.677.52-1.202 1.043-1.575.523-.373 1.202-.56 2.037-.56.691 0 1.276.131 1.757.392.485.257.828.63 1.029 1.12.093.219.154.464.182.735.028.271.042.546.042.826V121h-.917v-1.897l.266.112c-.257.649-.656 1.143-1.197 1.484-.541.341-1.19.511-1.946.511Zm.119-.889c.481 0 .901-.086 1.26-.259.359-.173.649-.408.868-.707.219-.303.362-.644.427-1.022.056-.243.086-.509.091-.798.005-.294.007-.513.007-.658l.392.203c-.35.047-.73.093-1.141.14-.406.047-.807.1-1.204.161-.392.061-.747.133-1.064.217a2.902 2.902 0 0 0-.623.259 1.435 1.435 0 0 0-.497.434 1.164 1.164 0 0 0-.189.679c0 .219.054.432.161.637.112.205.289.376.532.511.247.135.574.203.98.203Zm8.696.889c-.737 0-1.376-.163-1.918-.49a3.332 3.332 0 0 1-1.253-1.379c-.298-.593-.448-1.288-.448-2.086 0-.826.147-1.54.441-2.142a3.28 3.28 0 0 1 1.239-1.393c.537-.327 1.169-.49 1.897-.49.747 0 1.384.173 1.911.518.528.341.927.831 1.197 1.47.271.639.395 1.402.371 2.289h-1.05v-.364c-.018-.98-.231-1.72-.637-2.219-.401-.499-.989-.749-1.764-.749-.812 0-1.435.264-1.869.791-.429.527-.644 1.279-.644 2.254 0 .952.215 1.692.644 2.219.434.523 1.048.784 1.841.784.542 0 1.013-.124 1.414-.371.406-.252.726-.614.959-1.085l.959.371a3.421 3.421 0 0 1-1.323 1.533c-.578.359-1.234.539-1.967.539Zm-2.891-3.703v-.861h5.775v.861h-5.775Zm9.837 3.493v-6.608h-2.681v-.952h6.391v.952h-2.681V121h-1.029Zm8.044.21c-.761 0-1.405-.17-1.932-.511a3.26 3.26 0 0 1-1.204-1.407c-.271-.602-.411-1.293-.42-2.072.009-.793.154-1.489.434-2.086a3.204 3.204 0 0 1 1.211-1.4c.527-.336 1.167-.504 1.918-.504.765 0 1.43.187 1.995.56a2.82 2.82 0 0 1 1.169 1.533l-1.008.322a2.126 2.126 0 0 0-.847-1.05 2.338 2.338 0 0 0-1.316-.378c-.555 0-1.015.128-1.379.385a2.237 2.237 0 0 0-.812 1.057c-.177.453-.268.973-.273 1.561.009.905.219 1.633.63 2.184.411.546 1.022.819 1.834.819.513 0 .95-.117 1.309-.35.364-.238.639-.583.826-1.036l1.036.308c-.28.672-.691 1.185-1.232 1.54-.541.35-1.188.525-1.939.525Zm9.314-.21v-2.849h-1.764c-.205 0-.418-.007-.637-.021a7.036 7.036 0 0 1-.602-.077 2.61 2.61 0 0 1-1.358-.7c-.369-.369-.553-.877-.553-1.526 0-.635.173-1.143.518-1.526a2.39 2.39 0 0 1 1.253-.756c.224-.051.45-.082.679-.091.233-.009.434-.014.602-.014h2.891l.007 7.56h-1.036Zm-5.159 0 2.107-3.171h1.141L273.818 121h-1.127Zm3.339-3.731h1.82v-2.947h-1.82c-.112 0-.268.005-.469.014-.201.009-.39.04-.567.091a1.482 1.482 0 0 0-.462.245 1.372 1.372 0 0 0-.378.455 1.403 1.403 0 0 0-.154.686c0 .378.103.681.308.91.21.224.471.378.784.462.168.037.336.061.504.07.168.009.313.014.434.014ZM24.973 141v-7.56h1.029v3.283h4.263v-3.283h1.029V141h-1.029v-3.29h-4.263V141h-1.029Zm10.441.21c-.569 0-1.047-.103-1.434-.308a2.084 2.084 0 0 1-.861-.819 2.237 2.237 0 0 1-.288-1.113c0-.411.082-.761.245-1.05.169-.294.395-.534.68-.721.289-.187.623-.329 1-.427a14.73 14.73 0 0 1 1.267-.245c.467-.075.922-.138 1.365-.189.449-.056.84-.11 1.177-.161l-.364.224c.014-.747-.131-1.3-.434-1.659-.304-.359-.831-.539-1.583-.539-.517 0-.956.117-1.316.35-.354.233-.604.602-.748 1.106l-1.002-.294c.173-.677.52-1.202 1.043-1.575.523-.373 1.202-.56 2.038-.56.69 0 1.276.131 1.757.392.485.257.828.63 1.028 1.12.094.219.154.464.182.735.029.271.043.546.043.826V141h-.918v-1.897l.267.112c-.257.649-.656 1.143-1.197 1.484-.542.341-1.19.511-1.947.511Zm.12-.889c.48 0 .9-.086 1.26-.259.359-.173.648-.408.867-.707.22-.303.362-.644.428-1.022.056-.243.086-.509.09-.798.005-.294.008-.513.008-.658l.392.203c-.35.047-.73.093-1.142.14-.405.047-.807.1-1.203.161-.392.061-.747.133-1.065.217a2.902 2.902 0 0 0-.622.259c-.201.107-.367.252-.497.434a1.164 1.164 0 0 0-.19.679c0 .219.054.432.162.637.111.205.289.376.532.511.247.135.573.203.98.203Zm8.293.679v-7.56h6.013V141h-1.03v-6.573h-3.955V141h-1.028Zm11.134.21c-.751 0-1.393-.17-1.925-.511a3.327 3.327 0 0 1-1.225-1.414c-.284-.602-.427-1.293-.427-2.072 0-.793.145-1.489.434-2.086.29-.597.7-1.062 1.232-1.393.537-.336 1.174-.504 1.911-.504.756 0 1.4.17 1.932.511.537.336.945.805 1.225 1.407.285.597.427 1.286.427 2.065 0 .793-.142 1.491-.427 2.093a3.273 3.273 0 0 1-1.232 1.4c-.536.336-1.178.504-1.925.504Zm0-.987c.84 0 1.466-.278 1.876-.833.41-.56.616-1.286.616-2.177 0-.915-.207-1.643-.623-2.184-.41-.541-1.033-.812-1.869-.812-.564 0-1.031.128-1.4.385a2.281 2.281 0 0 0-.819 1.057c-.177.448-.266.966-.266 1.554 0 .91.21 1.64.63 2.191.42.546 1.039.819 1.855.819Zm8.264.987c-.76 0-1.404-.17-1.932-.511a3.26 3.26 0 0 1-1.204-1.407c-.27-.602-.41-1.293-.42-2.072.01-.793.154-1.489.434-2.086a3.202 3.202 0 0 1 1.211-1.4c.528-.336 1.167-.504 1.918-.504.766 0 1.43.187 1.995.56.57.373.96.884 1.17 1.533l-1.009.322a2.127 2.127 0 0 0-.847-1.05 2.338 2.338 0 0 0-1.316-.378c-.555 0-1.015.128-1.379.385a2.239 2.239 0 0 0-.812 1.057c-.177.453-.268.973-.273 1.561.01.905.22 1.633.63 2.184.411.546 1.022.819 1.834.819.514 0 .95-.117 1.31-.35.363-.238.639-.583.825-1.036l1.036.308c-.28.672-.69 1.185-1.232 1.54-.541.35-1.187.525-1.939.525Zm3.711-.21v-.903c.28.051.493.04.637-.035a.71.71 0 0 0 .33-.392 3.84 3.84 0 0 0 .174-.693c.075-.457.143-.961.203-1.512.06-.551.115-1.157.161-1.82.052-.667.103-1.402.154-2.205h5.138V141h-1.022v-6.573h-3.164a75.779 75.779 0 0 1-.245 2.891c-.042.448-.088.861-.14 1.239-.051.378-.105.705-.16.98-.085.415-.197.747-.337.994a.985.985 0 0 1-.609.49c-.27.079-.644.072-1.12-.021Zm11.952.21c-.737 0-1.377-.163-1.918-.49a3.325 3.325 0 0 1-1.253-1.379c-.299-.593-.448-1.288-.448-2.086 0-.826.147-1.54.441-2.142a3.28 3.28 0 0 1 1.239-1.393c.537-.327 1.169-.49 1.897-.49.747 0 1.384.173 1.911.518.527.341.926.831 1.197 1.47.27.639.394 1.402.371 2.289h-1.05v-.364c-.019-.98-.231-1.72-.637-2.219-.401-.499-.99-.749-1.764-.749-.812 0-1.435.264-1.869.791-.43.527-.644 1.279-.644 2.254 0 .952.215 1.692.644 2.219.434.523 1.048.784 1.841.784.541 0 1.013-.124 1.414-.371.406-.252.726-.614.959-1.085l.959.371a3.43 3.43 0 0 1-1.323 1.533c-.579.359-1.234.539-1.967.539Zm-2.891-3.703v-.861h5.775v.861h-5.775Zm7.321 5.173v-2.562c.43 0 .738-.138.924-.413.187-.28.339-.726.455-1.337.08-.397.145-.824.196-1.281.052-.457.096-.98.133-1.568a96.56 96.56 0 0 0 .105-2.079h4.998v6.678h.728v2.562h-.994V141h-5.558v1.68h-.987Zm1.743-2.562h4.046v-5.796h-3.024c-.014.355-.035.73-.063 1.127-.023.397-.053.793-.09 1.19-.033.397-.073.77-.12 1.12a8.718 8.718 0 0 1-.154.91c-.07.336-.147.623-.23.861-.08.238-.201.434-.365.588Zm7.191.882v-7.56h1.03v3.283h4.262v-3.283h1.03V141h-1.03v-3.29h-4.263V141h-1.029Zm14.285-7.56V141h-1.001v-5.887L101.392 141h-.868v-7.56h1.001v5.838l4.151-5.838h.861Zm5.163 7.77c-.737 0-1.376-.163-1.918-.49a3.332 3.332 0 0 1-1.253-1.379c-.298-.593-.448-1.288-.448-2.086 0-.826.147-1.54.441-2.142a3.28 3.28 0 0 1 1.239-1.393c.537-.327 1.169-.49 1.897-.49.747 0 1.384.173 1.911.518.528.341.927.831 1.197 1.47.271.639.395 1.402.371 2.289h-1.05v-.364c-.018-.98-.231-1.72-.637-2.219-.401-.499-.989-.749-1.764-.749-.812 0-1.435.264-1.869.791-.429.527-.644 1.279-.644 2.254 0 .952.215 1.692.644 2.219.434.523 1.048.784 1.841.784.542 0 1.013-.124 1.414-.371.406-.252.726-.614.959-1.085l.959.371a3.421 3.421 0 0 1-1.323 1.533c-.578.359-1.234.539-1.967.539Zm-2.891-3.703v-.861h5.775v.861h-5.775ZM119.487 141v-7.56h1.029v3.283h4.263v-3.283h1.029V141h-1.029v-3.29h-4.263V141h-1.029Zm10.441.21c-.569 0-1.048-.103-1.435-.308a2.08 2.08 0 0 1-.861-.819 2.24 2.24 0 0 1-.287-1.113c0-.411.082-.761.245-1.05.168-.294.394-.534.679-.721a3.399 3.399 0 0 1 1.001-.427c.383-.093.805-.175 1.267-.245.467-.075.922-.138 1.365-.189.448-.056.84-.11 1.176-.161l-.364.224c.014-.747-.131-1.3-.434-1.659s-.831-.539-1.582-.539c-.518 0-.957.117-1.316.35-.355.233-.604.602-.749 1.106l-1.001-.294c.173-.677.52-1.202 1.043-1.575.523-.373 1.202-.56 2.037-.56.691 0 1.276.131 1.757.392.485.257.828.63 1.029 1.12.093.219.154.464.182.735.028.271.042.546.042.826V141h-.917v-1.897l.266.112c-.257.649-.656 1.143-1.197 1.484-.541.341-1.19.511-1.946.511Zm.119-.889c.481 0 .901-.086 1.26-.259.359-.173.649-.408.868-.707.219-.303.362-.644.427-1.022.056-.243.086-.509.091-.798.005-.294.007-.513.007-.658l.392.203c-.35.047-.73.093-1.141.14-.406.047-.807.1-1.204.161-.392.061-.747.133-1.064.217a2.902 2.902 0 0 0-.623.259 1.435 1.435 0 0 0-.497.434 1.164 1.164 0 0 0-.189.679c0 .219.054.432.161.637.112.205.289.376.532.511.247.135.574.203.98.203Zm6.152 4.039 1.463-3.969.021 1.176-3.311-8.127h1.092l2.716 6.797h-.448l2.506-6.797h1.05l-4.06 10.92h-1.029ZM147.13 141v-2.814a4.623 4.623 0 0 1-.931.329c-.368.093-.765.14-1.19.14-.765 0-1.386-.17-1.862-.511-.476-.341-.786-.833-.931-1.477a4.166 4.166 0 0 1-.098-.609 16.14 16.14 0 0 1-.028-.581c-.004-.173-.007-.296-.007-.371v-1.666h1.036v1.666c0 .154.005.329.014.525.01.196.031.387.063.574.094.509.304.894.63 1.155.332.261.796.392 1.393.392a3.89 3.89 0 0 0 1.057-.14c.336-.098.621-.229.854-.392v-3.78h1.029V141h-1.029Zm2.982 0v-7.56h1.029v3.283h4.263v-3.283h1.029V141h-1.029v-3.29h-4.263V141h-1.029Zm8.285 0-.014-7.56h1.036v2.849h1.316c.219 0 .434.005.644.014.21.009.399.028.567.056.373.075.705.201.994.378.289.177.518.422.686.735.168.308.252.698.252 1.169 0 .649-.168 1.16-.504 1.533a2.336 2.336 0 0 1-1.267.728c-.191.042-.399.07-.623.084-.224.009-.443.014-.658.014h-2.429Zm1.022-.882h1.365c.154 0 .329-.005.525-.014a2.31 2.31 0 0 0 .518-.077c.252-.07.478-.21.679-.42.205-.215.308-.537.308-.966 0-.425-.098-.744-.294-.959a1.416 1.416 0 0 0-.784-.434 2.927 2.927 0 0 0-.476-.063 8.657 8.657 0 0 0-.476-.014h-1.365v2.947Zm5.362.882v-7.56h1.029V141h-1.029Zm6.187.21c-.737 0-1.377-.163-1.918-.49a3.325 3.325 0 0 1-1.253-1.379c-.299-.593-.448-1.288-.448-2.086 0-.826.147-1.54.441-2.142a3.28 3.28 0 0 1 1.239-1.393c.537-.327 1.169-.49 1.897-.49.747 0 1.384.173 1.911.518.527.341.926.831 1.197 1.47s.394 1.402.371 2.289h-1.05v-.364c-.019-.98-.231-1.72-.637-2.219-.401-.499-.989-.749-1.764-.749-.812 0-1.435.264-1.869.791-.429.527-.644 1.279-.644 2.254 0 .952.215 1.692.644 2.219.434.523 1.048.784 1.841.784.541 0 1.013-.124 1.414-.371.406-.252.726-.614.959-1.085l.959.371a3.433 3.433 0 0 1-1.323 1.533c-.579.359-1.234.539-1.967.539Zm-2.891-3.703v-.861h5.775v.861h-5.775Zm16.69-4.067V141h-1.001v-5.887L179.622 141h-.868v-7.56h1.001v5.838l4.151-5.838h.861Zm5.101 7.77c-.761 0-1.405-.17-1.932-.511a3.26 3.26 0 0 1-1.204-1.407c-.271-.602-.411-1.293-.42-2.072.009-.793.154-1.489.434-2.086a3.204 3.204 0 0 1 1.211-1.4c.527-.336 1.167-.504 1.918-.504.765 0 1.43.187 1.995.56a2.82 2.82 0 0 1 1.169 1.533l-1.008.322a2.126 2.126 0 0 0-.847-1.05 2.338 2.338 0 0 0-1.316-.378c-.555 0-1.015.128-1.379.385a2.237 2.237 0 0 0-.812 1.057c-.177.453-.268.973-.273 1.561.009.905.219 1.633.63 2.184.411.546 1.022.819 1.834.819.513 0 .95-.117 1.309-.35.364-.238.639-.583.826-1.036l1.036.308c-.28.672-.691 1.185-1.232 1.54-.541.35-1.188.525-1.939.525Zm7.547 0c-.761 0-1.405-.17-1.932-.511a3.254 3.254 0 0 1-1.204-1.407c-.271-.602-.411-1.293-.42-2.072.009-.793.154-1.489.434-2.086a3.198 3.198 0 0 1 1.211-1.4c.527-.336 1.166-.504 1.918-.504.765 0 1.43.187 1.995.56a2.82 2.82 0 0 1 1.169 1.533l-1.008.322a2.132 2.132 0 0 0-.847-1.05 2.34 2.34 0 0 0-1.316-.378c-.556 0-1.015.128-1.379.385a2.237 2.237 0 0 0-.812 1.057c-.178.453-.269.973-.273 1.561.009.905.219 1.633.63 2.184.41.546 1.022.819 1.834.819.513 0 .949-.117 1.309-.35.364-.238.639-.583.826-1.036l1.036.308c-.28.672-.691 1.185-1.232 1.54-.542.35-1.188.525-1.939.525Zm3.711-.21v-.903c.28.051.492.04.637-.035a.712.712 0 0 0 .329-.392c.07-.187.128-.418.175-.693.074-.457.142-.961.203-1.512.06-.551.114-1.157.161-1.82.051-.667.102-1.402.154-2.205h5.138V141h-1.022v-6.573h-3.164a78.202 78.202 0 0 1-.245 2.891c-.042.448-.089.861-.14 1.239-.052.378-.105.705-.161.98-.084.415-.196.747-.336.994a.988.988 0 0 1-.609.49c-.271.079-.644.072-1.12-.021Zm11.951.21c-.737 0-1.376-.163-1.918-.49a3.332 3.332 0 0 1-1.253-1.379c-.298-.593-.448-1.288-.448-2.086 0-.826.147-1.54.441-2.142a3.28 3.28 0 0 1 1.239-1.393c.537-.327 1.169-.49 1.897-.49.747 0 1.384.173 1.911.518.528.341.927.831 1.197 1.47.271.639.395 1.402.371 2.289h-1.05v-.364c-.018-.98-.231-1.72-.637-2.219-.401-.499-.989-.749-1.764-.749-.812 0-1.435.264-1.869.791-.429.527-.644 1.279-.644 2.254 0 .952.215 1.692.644 2.219.434.523 1.048.784 1.841.784.542 0 1.013-.124 1.414-.371.406-.252.726-.614.959-1.085l.959.371a3.421 3.421 0 0 1-1.323 1.533c-.578.359-1.234.539-1.967.539Zm-2.891-3.703v-.861h5.775v.861h-5.775Zm7.322 5.173v-2.562c.429 0 .737-.138.924-.413.187-.28.338-.726.455-1.337.079-.397.145-.824.196-1.281.051-.457.096-.98.133-1.568.037-.593.072-1.286.105-2.079h4.998v6.678h.728v2.562h-.994V141h-5.558v1.68h-.987Zm1.743-2.562h4.046v-5.796h-3.024c-.014.355-.035.73-.063 1.127-.023.397-.054.793-.091 1.19-.033.397-.072.77-.119 1.12a8.64 8.64 0 0 1-.154.91c-.07.336-.147.623-.231.861a1.4 1.4 0 0 1-.364.588Zm10.355 1.092c-.752 0-1.393-.17-1.925-.511a3.322 3.322 0 0 1-1.225-1.414c-.285-.602-.427-1.293-.427-2.072 0-.793.144-1.489.434-2.086.289-.597.7-1.062 1.232-1.393.536-.336 1.173-.504 1.911-.504.756 0 1.4.17 1.932.511.536.336.945.805 1.225 1.407.284.597.427 1.286.427 2.065 0 .793-.143 1.491-.427 2.093a3.28 3.28 0 0 1-1.232 1.4c-.537.336-1.179.504-1.925.504Zm0-.987c.84 0 1.465-.278 1.876-.833.41-.56.616-1.286.616-2.177 0-.915-.208-1.643-.623-2.184-.411-.541-1.034-.812-1.869-.812-.565 0-1.032.128-1.4.385a2.281 2.281 0 0 0-.819 1.057c-.178.448-.266.966-.266 1.554 0 .91.21 1.64.63 2.191.42.546 1.038.819 1.855.819Zm5.121.777v-7.56h3.115c.159 0 .35.009.574.028.229.019.441.054.637.105.425.112.765.341 1.022.686.261.345.392.761.392 1.246 0 .271-.042.513-.126.728-.079.21-.194.392-.343.546-.07.079-.147.149-.231.21a1.894 1.894 0 0 1-.245.14c.149.028.31.093.483.196.271.159.476.373.616.644.14.266.21.59.21.973 0 .518-.124.94-.371 1.267a1.862 1.862 0 0 1-.994.672c-.187.051-.39.084-.609.098a9.396 9.396 0 0 1-.609.021h-3.521Zm1.036-.875h2.436c.098 0 .222-.007.371-.021.149-.019.282-.042.399-.07.275-.07.476-.21.602-.42a1.32 1.32 0 0 0 .196-.7c0-.331-.098-.602-.294-.812-.191-.215-.448-.345-.77-.392a2.004 2.004 0 0 0-.336-.042 7.387 7.387 0 0 0-.315-.007h-2.289v2.464Zm0-3.346h2.114c.121 0 .257-.007.406-.021.154-.019.287-.049.399-.091a.922.922 0 0 0 .532-.434c.117-.205.175-.429.175-.672a1.29 1.29 0 0 0-.189-.7.959.959 0 0 0-.553-.42 1.838 1.838 0 0 0-.546-.105 11.223 11.223 0 0 0-.364-.014h-1.974v2.457Zm8.626 4.431c-.569 0-1.048-.103-1.435-.308a2.08 2.08 0 0 1-.861-.819 2.24 2.24 0 0 1-.287-1.113c0-.411.082-.761.245-1.05.168-.294.394-.534.679-.721a3.399 3.399 0 0 1 1.001-.427c.383-.093.805-.175 1.267-.245.467-.075.922-.138 1.365-.189.448-.056.84-.11 1.176-.161l-.364.224c.014-.747-.131-1.3-.434-1.659s-.831-.539-1.582-.539c-.518 0-.957.117-1.316.35-.355.233-.604.602-.749 1.106l-1.001-.294c.173-.677.52-1.202 1.043-1.575.523-.373 1.202-.56 2.037-.56.691 0 1.276.131 1.757.392.485.257.828.63 1.029 1.12.093.219.154.464.182.735.028.271.042.546.042.826V141h-.917v-1.897l.266.112c-.257.649-.656 1.143-1.197 1.484-.541.341-1.19.511-1.946.511Zm.119-.889c.481 0 .901-.086 1.26-.259.359-.173.649-.408.868-.707.219-.303.362-.644.427-1.022.056-.243.086-.509.091-.798.005-.294.007-.513.007-.658l.392.203c-.35.047-.73.093-1.141.14-.406.047-.807.1-1.204.161-.392.061-.747.133-1.064.217a2.902 2.902 0 0 0-.623.259 1.435 1.435 0 0 0-.497.434 1.164 1.164 0 0 0-.189.679c0 .219.054.432.161.637.112.205.289.376.532.511.247.135.574.203.98.203Zm5.49.679v-7.56h1.029v3.283h4.263v-3.283h1.029V141h-1.029v-3.29h-4.263V141h-1.029Zm14.285-7.56V141h-1.001v-5.887L259.138 141h-.868v-7.56h1.001v5.838l4.151-5.838h.861Zm6.704 7.56v-2.849h-1.764c-.206 0-.418-.007-.637-.021a6.985 6.985 0 0 1-.602-.077 2.61 2.61 0 0 1-1.358-.7c-.369-.369-.553-.877-.553-1.526 0-.635.172-1.143.518-1.526a2.39 2.39 0 0 1 1.253-.756c.224-.051.45-.082.679-.091.233-.009.434-.014.602-.014h2.891l.007 7.56h-1.036Zm-5.159 0 2.107-3.171h1.141L266.955 141h-1.127Zm3.339-3.731h1.82v-2.947h-1.82c-.112 0-.269.005-.469.014-.201.009-.39.04-.567.091a1.482 1.482 0 0 0-.462.245c-.15.112-.276.264-.378.455a1.403 1.403 0 0 0-.154.686c0 .378.102.681.308.91.21.224.471.378.784.462.168.037.336.061.504.07.168.009.312.014.434.014Zm5.015 3.731v-1.197h1.197V141h-1.197ZM24.28 171v-.917c.257.023.469.014.637-.028a.696.696 0 0 0 .406-.308c.107-.159.2-.394.28-.707.08-.317.159-.73.238-1.239.089-.551.163-1.099.224-1.645a46.54 46.54 0 0 0 .168-1.659c.051-.565.093-1.143.126-1.736s.063-1.206.091-1.841h6.363V171h-1.029v-9.093h-4.34c-.033.481-.065.973-.098 1.477-.028.504-.065 1.02-.112 1.547a44.882 44.882 0 0 1-.161 1.631c-.06.555-.138 1.129-.231 1.722-.075.448-.163.863-.266 1.246a2.957 2.957 0 0 1-.42.966 1.35 1.35 0 0 1-.721.539c-.299.098-.684.086-1.155-.035Zm13.688.21c-.737 0-1.377-.163-1.918-.49a3.325 3.325 0 0 1-1.253-1.379c-.299-.593-.448-1.288-.448-2.086 0-.826.147-1.54.441-2.142a3.28 3.28 0 0 1 1.24-1.393c.536-.327 1.168-.49 1.896-.49.747 0 1.384.173 1.911.518.527.341.926.831 1.197 1.47.27.639.394 1.402.371 2.289h-1.05v-.364c-.019-.98-.23-1.72-.637-2.219-.401-.499-.99-.749-1.764-.749-.812 0-1.435.264-1.869.791-.43.527-.644 1.279-.644 2.254 0 .952.215 1.692.644 2.219.434.523 1.048.784 1.841.784.541 0 1.013-.124 1.414-.371.406-.252.726-.614.96-1.085l.958.371a3.43 3.43 0 0 1-1.323 1.533c-.579.359-1.234.539-1.967.539Zm-2.89-3.703v-.861h5.774v.861h-5.775ZM42.95 171l.008-7.56h1.035v3.64l3.374-3.64h1.372l-3.541 3.78 4.004 3.78h-1.498l-3.71-3.64V171h-1.043Zm13.449 1.309V171h-6.503v-7.56h1.029v6.573h3.955v-6.573h1.029v6.608h1.519v2.261h-1.03Zm8.15-8.869V171h-1v-5.887L59.406 171h-.868v-7.56h1v5.838l4.152-5.838h.86Zm7.971 0V171h-1v-5.887L67.375 171h-.868v-7.56h1.001v5.838l4.151-5.838h.861Zm10.774 0V171h-1.001v-5.887L78.15 171h-.868v-7.56h1v5.838l4.152-5.838h.86Zm4.76 7.56v-7.56h3.115c.159 0 .35.009.574.028.229.019.441.054.637.105.425.112.765.341 1.022.686.261.345.392.761.392 1.246 0 .271-.042.513-.126.728-.08.21-.194.392-.343.546-.07.079-.147.149-.231.21a1.868 1.868 0 0 1-.245.14c.15.028.31.093.483.196.27.159.476.373.616.644.14.266.21.59.21.973 0 .518-.124.94-.371 1.267a1.861 1.861 0 0 1-.994.672c-.187.051-.39.084-.609.098a9.377 9.377 0 0 1-.609.021h-3.521Zm1.036-.875h2.436c.098 0 .222-.007.371-.021.15-.019.282-.042.399-.07.275-.07.476-.21.602-.42.13-.215.196-.448.196-.7 0-.331-.098-.602-.294-.812-.191-.215-.448-.345-.77-.392a2.012 2.012 0 0 0-.336-.042 7.36 7.36 0 0 0-.315-.007h-2.289v2.464Zm0-3.346h2.114c.121 0 .257-.007.406-.021.154-.019.287-.049.399-.091a.923.923 0 0 0 .532-.434c.117-.205.175-.429.175-.672a1.29 1.29 0 0 0-.189-.7.959.959 0 0 0-.553-.42 1.838 1.838 0 0 0-.546-.105 11.213 11.213 0 0 0-.364-.014h-1.974v2.457Zm9.6 4.431c-.761 0-1.405-.17-1.933-.511a3.261 3.261 0 0 1-1.204-1.407c-.27-.602-.41-1.293-.42-2.072.01-.793.154-1.489.434-2.086a3.202 3.202 0 0 1 1.211-1.4c.528-.336 1.167-.504 1.918-.504.766 0 1.431.187 1.995.56.57.373.959.884 1.169 1.533l-1.008.322a2.121 2.121 0 0 0-.847-1.05 2.337 2.337 0 0 0-1.316-.378c-.555 0-1.015.128-1.379.385a2.24 2.24 0 0 0-.812 1.057c-.177.453-.268.973-.273 1.561.01.905.22 1.633.63 2.184.41.546 1.022.819 1.834.819.514 0 .95-.117 1.31-.35.363-.238.639-.583.825-1.036l1.036.308c-.28.672-.69 1.185-1.232 1.54-.541.35-1.187.525-1.939.525Zm7.814 0c-.737 0-1.376-.163-1.918-.49a3.332 3.332 0 0 1-1.253-1.379c-.298-.593-.448-1.288-.448-2.086 0-.826.147-1.54.441-2.142a3.28 3.28 0 0 1 1.239-1.393c.537-.327 1.169-.49 1.897-.49.747 0 1.384.173 1.911.518.528.341.927.831 1.197 1.47.271.639.395 1.402.371 2.289h-1.05v-.364c-.018-.98-.231-1.72-.637-2.219-.401-.499-.989-.749-1.764-.749-.812 0-1.435.264-1.869.791-.429.527-.644 1.279-.644 2.254 0 .952.215 1.692.644 2.219.434.523 1.048.784 1.841.784.542 0 1.013-.124 1.414-.371.406-.252.726-.614.959-1.085l.959.371a3.421 3.421 0 0 1-1.323 1.533c-.578.359-1.234.539-1.967.539Zm-2.891-3.703v-.861h5.775v.861h-5.775ZM114.291 171v-7.56h.917l2.947 6.188 2.954-6.188h.91V171h-.994v-5.362L118.484 171h-.651l-2.541-5.362V171h-1.001Zm11.85.21c-.569 0-1.048-.103-1.435-.308a2.08 2.08 0 0 1-.861-.819 2.24 2.24 0 0 1-.287-1.113c0-.411.082-.761.245-1.05.168-.294.394-.534.679-.721a3.399 3.399 0 0 1 1.001-.427c.383-.093.805-.175 1.267-.245.467-.075.922-.138 1.365-.189.448-.056.84-.11 1.176-.161l-.364.224c.014-.747-.131-1.3-.434-1.659s-.831-.539-1.582-.539c-.518 0-.957.117-1.316.35-.355.233-.604.602-.749 1.106l-1.001-.294c.173-.677.52-1.202 1.043-1.575.523-.373 1.202-.56 2.037-.56.691 0 1.276.131 1.757.392.485.257.828.63 1.029 1.12.093.219.154.464.182.735.028.271.042.546.042.826V171h-.917v-1.897l.266.112c-.257.649-.656 1.143-1.197 1.484-.541.341-1.19.511-1.946.511Zm.119-.889c.481 0 .901-.086 1.26-.259.359-.173.649-.408.868-.707.219-.303.362-.644.427-1.022.056-.243.086-.509.091-.798.005-.294.007-.513.007-.658l.392.203c-.35.047-.73.093-1.141.14-.406.047-.807.1-1.204.161-.392.061-.747.133-1.064.217a2.902 2.902 0 0 0-.623.259 1.435 1.435 0 0 0-.497.434 1.164 1.164 0 0 0-.189.679c0 .219.054.432.161.637.112.205.289.376.532.511.247.135.574.203.98.203Zm7.548.679v-6.608h-2.681v-.952h6.391v.952h-2.681V171h-1.029Zm8.244.21c-.737 0-1.377-.163-1.918-.49a3.325 3.325 0 0 1-1.253-1.379c-.299-.593-.448-1.288-.448-2.086 0-.826.147-1.54.441-2.142a3.28 3.28 0 0 1 1.239-1.393c.537-.327 1.169-.49 1.897-.49.747 0 1.384.173 1.911.518.527.341.926.831 1.197 1.47s.394 1.402.371 2.289h-1.05v-.364c-.019-.98-.231-1.72-.637-2.219-.401-.499-.989-.749-1.764-.749-.812 0-1.435.264-1.869.791-.429.527-.644 1.279-.644 2.254 0 .952.215 1.692.644 2.219.434.523 1.048.784 1.841.784.541 0 1.013-.124 1.414-.371.406-.252.726-.614.959-1.085l.959.371a3.433 3.433 0 0 1-1.323 1.533c-.579.359-1.234.539-1.967.539Zm-2.891-3.703v-.861h5.775v.861h-5.775Zm11.277 3.703c-.696 0-1.284-.175-1.764-.525-.481-.355-.845-.833-1.092-1.435-.248-.607-.371-1.286-.371-2.037 0-.765.123-1.447.371-2.044.252-.602.62-1.076 1.106-1.421.485-.345 1.082-.518 1.792-.518.69 0 1.283.175 1.778.525.494.35.872.826 1.134 1.428.266.602.399 1.279.399 2.03 0 .756-.133 1.435-.399 2.037a3.41 3.41 0 0 1-1.148 1.435c-.5.35-1.102.525-1.806.525Zm-3.402 3.15v-10.92h.924v5.691h.112v5.229h-1.036Zm3.297-4.109c.527 0 .966-.133 1.316-.399.35-.266.611-.628.784-1.085.177-.462.266-.98.266-1.554 0-.569-.087-1.083-.259-1.54a2.37 2.37 0 0 0-.791-1.085c-.35-.266-.796-.399-1.337-.399-.528 0-.966.128-1.316.385-.346.257-.605.614-.777 1.071-.173.453-.259.975-.259 1.568 0 .583.086 1.106.259 1.568.172.457.434.817.784 1.078.35.261.793.392 1.33.392Zm11.001-6.811V171h-1.001v-5.887L156.189 171h-.868v-7.56h1.001v5.838l4.151-5.838h.861Zm4.127 7.77c-.569 0-1.047-.103-1.435-.308a2.093 2.093 0 0 1-.861-.819 2.24 2.24 0 0 1-.287-1.113c0-.411.082-.761.245-1.05.168-.294.395-.534.679-.721a3.41 3.41 0 0 1 1.001-.427c.383-.093.805-.175 1.267-.245.467-.075.922-.138 1.365-.189.448-.056.84-.11 1.176-.161l-.364.224c.014-.747-.13-1.3-.434-1.659-.303-.359-.83-.539-1.582-.539-.518 0-.956.117-1.316.35-.354.233-.604.602-.749 1.106l-1.001-.294c.173-.677.521-1.202 1.043-1.575.523-.373 1.202-.56 2.037-.56.691 0 1.277.131 1.757.392.486.257.829.63 1.029 1.12.094.219.154.464.182.735.028.271.042.546.042.826V171h-.917v-1.897l.266.112c-.256.649-.655 1.143-1.197 1.484-.541.341-1.19.511-1.946.511Zm.119-.889c.481 0 .901-.086 1.26-.259.36-.173.649-.408.868-.707a2.41 2.41 0 0 0 .427-1.022c.056-.243.087-.509.091-.798.005-.294.007-.513.007-.658l.392.203c-.35.047-.73.093-1.141.14-.406.047-.807.1-1.204.161-.392.061-.746.133-1.064.217a2.923 2.923 0 0 0-.623.259c-.2.107-.366.252-.497.434a1.164 1.164 0 0 0-.189.679c0 .219.054.432.161.637.112.205.29.376.532.511.248.135.574.203.98.203Zm4.798.679v-.903c.28.051.492.04.637-.035a.712.712 0 0 0 .329-.392c.07-.187.128-.418.175-.693.074-.457.142-.961.203-1.512.06-.551.114-1.157.161-1.82.051-.667.102-1.402.154-2.205h5.138V171h-1.022v-6.573h-3.164a78.202 78.202 0 0 1-.245 2.891c-.042.448-.089.861-.14 1.239-.052.378-.105.705-.161.98-.084.415-.196.747-.336.994a.988.988 0 0 1-.609.49c-.271.079-.644.072-1.12-.021Zm8.759 0-.014-7.56h1.036v2.849h1.316c.22 0 .434.005.644.014.21.009.399.028.567.056.374.075.705.201.994.378.29.177.518.422.686.735.168.308.252.698.252 1.169 0 .649-.168 1.16-.504 1.533a2.336 2.336 0 0 1-1.267.728c-.191.042-.399.07-.623.084-.224.009-.443.014-.658.014h-2.429Zm1.022-.882h1.365c.154 0 .329-.005.525-.014a2.31 2.31 0 0 0 .518-.077c.252-.07.479-.21.679-.42.206-.215.308-.537.308-.966 0-.425-.098-.744-.294-.959a1.416 1.416 0 0 0-.784-.434 2.927 2.927 0 0 0-.476-.063 8.657 8.657 0 0 0-.476-.014h-1.365v2.947Zm5.362.882v-7.56h1.029V171h-1.029ZM24.973 191v-7.56h1.029v3.283h4.263v-3.283h1.029V191h-1.029v-3.29h-4.263V191h-1.029Zm10.441.21c-.569 0-1.047-.103-1.434-.308a2.084 2.084 0 0 1-.861-.819 2.237 2.237 0 0 1-.288-1.113c0-.411.082-.761.245-1.05.169-.294.395-.534.68-.721.289-.187.623-.329 1-.427a14.73 14.73 0 0 1 1.267-.245c.467-.075.922-.138 1.365-.189.449-.056.84-.11 1.177-.161l-.364.224c.014-.747-.131-1.3-.434-1.659-.304-.359-.831-.539-1.583-.539-.517 0-.956.117-1.316.35-.354.233-.604.602-.748 1.106l-1.002-.294c.173-.677.52-1.202 1.043-1.575.523-.373 1.202-.56 2.038-.56.69 0 1.276.131 1.757.392.485.257.828.63 1.028 1.12.094.219.154.464.182.735.029.271.043.546.043.826V191h-.918v-1.897l.267.112c-.257.649-.656 1.143-1.197 1.484-.542.341-1.19.511-1.947.511Zm.12-.889c.48 0 .9-.086 1.26-.259.359-.173.648-.408.867-.707.22-.303.362-.644.428-1.022.056-.243.086-.509.09-.798.005-.294.008-.513.008-.658l.392.203c-.35.047-.73.093-1.142.14-.405.047-.807.1-1.203.161-.392.061-.747.133-1.065.217a2.902 2.902 0 0 0-.622.259c-.201.107-.367.252-.497.434a1.164 1.164 0 0 0-.19.679c0 .219.054.432.162.637.111.205.289.376.532.511.247.135.573.203.98.203Zm5.49.679v-7.56h6.013V191h-1.03v-6.573h-3.954V191h-1.03Zm13.983-7.56V191h-1v-5.887L49.862 191h-.867v-7.56h1v5.838l4.152-5.838h.86Zm5.101 7.77c-.76 0-1.404-.17-1.932-.511a3.26 3.26 0 0 1-1.204-1.407c-.27-.602-.41-1.293-.42-2.072.01-.793.154-1.489.434-2.086a3.202 3.202 0 0 1 1.211-1.4c.527-.336 1.167-.504 1.918-.504.765 0 1.43.187 1.995.56.57.373.96.884 1.17 1.533l-1.009.322a2.126 2.126 0 0 0-.847-1.05 2.338 2.338 0 0 0-1.316-.378c-.555 0-1.015.128-1.379.385a2.239 2.239 0 0 0-.812 1.057c-.177.453-.268.973-.273 1.561.01.905.22 1.633.63 2.184.41.546 1.022.819 1.834.819.514 0 .95-.117 1.31-.35.363-.238.639-.583.825-1.036l1.036.308c-.28.672-.69 1.185-1.232 1.54-.541.35-1.188.525-1.939.525Zm6.738 0c-.57 0-1.047-.103-1.435-.308a2.085 2.085 0 0 1-.86-.819 2.237 2.237 0 0 1-.288-1.113c0-.411.082-.761.245-1.05.168-.294.395-.534.68-.721.288-.187.622-.329 1-.427a14.73 14.73 0 0 1 1.267-.245c.467-.075.922-.138 1.365-.189.448-.056.84-.11 1.176-.161l-.364.224c.014-.747-.13-1.3-.434-1.659-.303-.359-.83-.539-1.582-.539-.518 0-.957.117-1.316.35-.355.233-.604.602-.749 1.106l-1-.294c.172-.677.52-1.202 1.042-1.575.523-.373 1.202-.56 2.037-.56.69 0 1.276.131 1.757.392.486.257.829.63 1.03 1.12.093.219.153.464.181.735.028.271.042.546.042.826V191h-.917v-1.897l.266.112c-.257.649-.656 1.143-1.197 1.484-.541.341-1.19.511-1.946.511Zm.12-.889c.48 0 .9-.086 1.26-.259.359-.173.648-.408.867-.707.22-.303.362-.644.427-1.022.056-.243.087-.509.091-.798.005-.294.007-.513.007-.658l.392.203c-.35.047-.73.093-1.14.14-.407.047-.808.1-1.205.161-.392.061-.747.133-1.064.217a2.904 2.904 0 0 0-.623.259c-.2.107-.366.252-.497.434a1.164 1.164 0 0 0-.189.679c0 .219.054.432.161.637.112.205.29.376.532.511.248.135.574.203.98.203Zm5.49.679v-7.56h1.028v3.283h4.263v-3.283h1.03V191h-1.03v-3.29h-4.263V191h-1.029Zm8.285 0-.014-7.56h1.036v2.849h1.316c.22 0 .434.005.644.014.21.009.399.028.567.056.373.075.705.201.994.378.29.177.518.422.686.735.168.308.252.698.252 1.169 0 .649-.168 1.16-.504 1.533a2.337 2.337 0 0 1-1.267.728c-.191.042-.4.07-.623.084-.224.009-.443.014-.658.014h-2.43Zm1.022-.882h1.365c.154 0 .329-.005.525-.014.196-.009.369-.035.518-.077.252-.07.478-.21.679-.42.205-.215.308-.537.308-.966 0-.425-.098-.744-.294-.959a1.417 1.417 0 0 0-.784-.434 2.931 2.931 0 0 0-.476-.063 8.666 8.666 0 0 0-.476-.014h-1.365v2.947Zm5.362.882v-7.56h1.029V191h-1.03Zm5.784 0v-7.56h6.012V191h-1.029v-6.573h-3.954V191h-1.03Zm11.134.21c-.751 0-1.393-.17-1.925-.511a3.33 3.33 0 0 1-1.225-1.414c-.284-.602-.427-1.293-.427-2.072 0-.793.145-1.489.434-2.086a3.29 3.29 0 0 1 1.232-1.393c.537-.336 1.174-.504 1.911-.504.756 0 1.4.17 1.932.511.537.336.945.805 1.225 1.407.285.597.427 1.286.427 2.065 0 .793-.142 1.491-.427 2.093a3.267 3.267 0 0 1-1.232 1.4c-.536.336-1.178.504-1.925.504Zm0-.987c.84 0 1.466-.278 1.876-.833.411-.56.616-1.286.616-2.177 0-.915-.207-1.643-.623-2.184-.41-.541-1.033-.812-1.869-.812-.564 0-1.031.128-1.4.385a2.281 2.281 0 0 0-.819 1.057c-.177.448-.266.966-.266 1.554 0 .91.21 1.64.63 2.191.42.546 1.039.819 1.855.819Zm5.121.777v-7.56h1.029v3.283h4.263v-3.283h1.029V191h-1.029v-3.29h-4.263V191h-1.029Zm13.018 0v-2.849h-1.764c-.205 0-.418-.007-.637-.021a7.036 7.036 0 0 1-.602-.077 2.61 2.61 0 0 1-1.358-.7c-.369-.369-.553-.877-.553-1.526 0-.635.173-1.143.518-1.526a2.39 2.39 0 0 1 1.253-.756c.224-.051.45-.082.679-.091.233-.009.434-.014.602-.014h2.891l.007 7.56h-1.036Zm-5.159 0 2.107-3.171h1.141L118.15 191h-1.127Zm3.339-3.731h1.82v-2.947h-1.82c-.112 0-.268.005-.469.014-.201.009-.39.04-.567.091a1.482 1.482 0 0 0-.462.245 1.372 1.372 0 0 0-.378.455 1.403 1.403 0 0 0-.154.686c0 .378.103.681.308.91.21.224.471.378.784.462.168.037.336.061.504.07.168.009.313.014.434.014Zm6.87 3.731v-6.608h-2.681v-.952h6.391v.952h-2.681V191h-1.029Zm5.038 0v-7.56h1.029v3.283h4.263v-3.283h1.029V191h-1.029v-3.29h-4.263V191h-1.029Zm8.285 0-.014-7.56h1.036v2.849h1.316c.22 0 .434.005.644.014.21.009.399.028.567.056.374.075.705.201.994.378.29.177.518.422.686.735.168.308.252.698.252 1.169 0 .649-.168 1.16-.504 1.533a2.336 2.336 0 0 1-1.267.728c-.191.042-.399.07-.623.084-.224.009-.443.014-.658.014h-2.429Zm1.022-.882h1.365c.154 0 .329-.005.525-.014a2.31 2.31 0 0 0 .518-.077c.252-.07.479-.21.679-.42.206-.215.308-.537.308-.966 0-.425-.098-.744-.294-.959a1.416 1.416 0 0 0-.784-.434 2.927 2.927 0 0 0-.476-.063 8.657 8.657 0 0 0-.476-.014h-1.365v2.947Zm5.362.882v-7.56h1.029V191h-1.029Zm2.981 0v-7.56h.917l2.947 6.188 2.954-6.188h.91V191h-.994v-5.362L154.113 191h-.651l-2.541-5.362V191h-1.001Zm18.496-7.56V191h-1.001v-5.887L163.271 191h-.868v-7.56h1.001v5.838l4.151-5.838h.861Zm4.207 9.24v-2.562c.429 0 .737-.138.924-.413.187-.28.338-.726.455-1.337.079-.397.145-.824.196-1.281.051-.457.096-.98.133-1.568.037-.593.072-1.286.105-2.079h4.998v6.678h.728v2.562h-.994V191h-5.558v1.68h-.987Zm1.743-2.562h4.046v-5.796h-3.024c-.014.355-.035.73-.063 1.127-.023.397-.054.793-.091 1.19-.033.397-.072.77-.119 1.12a8.64 8.64 0 0 1-.154.91c-.07.336-.147.623-.231.861a1.4 1.4 0 0 1-.364.588Zm10.355 1.092c-.751 0-1.393-.17-1.925-.511a3.33 3.33 0 0 1-1.225-1.414c-.285-.602-.427-1.293-.427-2.072 0-.793.145-1.489.434-2.086.289-.597.7-1.062 1.232-1.393.537-.336 1.174-.504 1.911-.504.756 0 1.4.17 1.932.511.537.336.945.805 1.225 1.407.285.597.427 1.286.427 2.065 0 .793-.142 1.491-.427 2.093a3.273 3.273 0 0 1-1.232 1.4c-.537.336-1.178.504-1.925.504Zm0-.987c.84 0 1.465-.278 1.876-.833.411-.56.616-1.286.616-2.177 0-.915-.208-1.643-.623-2.184-.411-.541-1.034-.812-1.869-.812-.565 0-1.031.128-1.4.385a2.281 2.281 0 0 0-.819 1.057c-.177.448-.266.966-.266 1.554 0 .91.21 1.64.63 2.191.42.546 1.038.819 1.855.819Zm8.264.987c-.761 0-1.405-.17-1.932-.511a3.26 3.26 0 0 1-1.204-1.407c-.271-.602-.411-1.293-.42-2.072.009-.793.154-1.489.434-2.086a3.204 3.204 0 0 1 1.211-1.4c.527-.336 1.167-.504 1.918-.504.765 0 1.43.187 1.995.56a2.82 2.82 0 0 1 1.169 1.533l-1.008.322a2.126 2.126 0 0 0-.847-1.05 2.338 2.338 0 0 0-1.316-.378c-.555 0-1.015.128-1.379.385a2.237 2.237 0 0 0-.812 1.057c-.177.453-.268.973-.273 1.561.009.905.219 1.633.63 2.184.411.546 1.022.819 1.834.819.513 0 .95-.117 1.309-.35.364-.238.639-.583.826-1.036l1.036.308c-.28.672-.691 1.185-1.232 1.54-.541.35-1.188.525-1.939.525Zm6.489-.21v-6.608h-2.681v-.952h6.391v.952h-2.681V191h-1.029Zm6.027 3.36 1.463-3.969.021 1.176-3.311-8.127h1.092l2.716 6.797h-.448l2.506-6.797h1.05l-4.06 10.92h-1.029Zm6.298-3.36v-7.56h6.013V191h-1.029v-6.573h-3.955V191h-1.029Zm7.971 0v-7.56h1.029v3.283h4.263v-3.283h1.029V191h-1.029v-3.29h-4.263V191h-1.029Zm8.285 0-.014-7.56h1.036v2.849h1.316c.22 0 .434.005.644.014.21.009.399.028.567.056.374.075.705.201.994.378.29.177.518.422.686.735.168.308.252.698.252 1.169 0 .649-.168 1.16-.504 1.533a2.336 2.336 0 0 1-1.267.728c-.191.042-.399.07-.623.084-.224.009-.443.014-.658.014h-2.429Zm1.022-.882h1.365c.154 0 .329-.005.525-.014a2.31 2.31 0 0 0 .518-.077c.252-.07.479-.21.679-.42.206-.215.308-.537.308-.966 0-.425-.098-.744-.294-.959a1.416 1.416 0 0 0-.784-.434 2.927 2.927 0 0 0-.476-.063 8.657 8.657 0 0 0-.476-.014h-1.365v2.947Zm5.362.882v-7.56h1.029V191h-1.029Zm2.981 0v-7.56h.917l2.947 6.188 2.954-6.188h.91V191h-.994v-5.362L241.613 191h-.651l-2.541-5.362V191h-1.001ZM29.719 211v-2.849h-1.764c-.205 0-.418-.007-.637-.021a7.036 7.036 0 0 1-.602-.077 2.61 2.61 0 0 1-1.358-.7c-.369-.369-.553-.877-.553-1.526 0-.635.173-1.143.518-1.526a2.39 2.39 0 0 1 1.253-.756 3.71 3.71 0 0 1 .679-.091c.233-.009.434-.014.602-.014h2.891l.007 7.56h-1.036Zm-5.159 0 2.107-3.171h1.141L25.687 211H24.56Zm3.339-3.731h1.82v-2.947h-1.82c-.112 0-.268.005-.469.014-.2.009-.39.04-.567.091a1.482 1.482 0 0 0-.462.245c-.15.112-.275.264-.378.455a1.406 1.406 0 0 0-.154.686c0 .378.103.681.308.91.21.224.471.378.784.462.168.037.336.061.504.07.168.009.313.014.434.014Zm7.542 3.941c-.76 0-1.425-.166-1.995-.497a3.618 3.618 0 0 1-1.337-1.393l.826-.525c.276.467.619.821 1.03 1.064.41.243.881.364 1.413.364.556 0 1.001-.128 1.337-.385.336-.257.504-.609.504-1.057 0-.308-.072-.553-.217-.735-.14-.182-.354-.313-.644-.392-.284-.079-.641-.119-1.07-.119h-.897v-.882h.882c.523 0 .943-.093 1.26-.28.322-.191.483-.49.483-.896 0-.429-.16-.747-.483-.952-.317-.21-.697-.315-1.14-.315a2.98 2.98 0 0 0-1.275.28c-.396.182-.73.418-1 .707l-.659-.693c.378-.415.82-.73 1.323-.945a4.222 4.222 0 0 1 1.687-.329c.486 0 .924.086 1.316.259.397.168.71.415.938.742.234.327.35.719.35 1.176 0 .429-.105.8-.315 1.113a2.37 2.37 0 0 1-.875.777l-.056-.385c.327.061.598.191.812.392.215.201.374.441.476.721.103.28.154.565.154.854 0 .481-.126.896-.378 1.246a2.436 2.436 0 0 1-1.015.805c-.424.187-.903.28-1.435.28Zm4.38-.21-.014-7.56h1.036v2.849h1.316c.22 0 .434.005.644.014.21.009.399.028.567.056.373.075.705.201.994.378.29.177.518.422.686.735.168.308.252.698.252 1.169 0 .649-.168 1.16-.504 1.533a2.337 2.337 0 0 1-1.267.728c-.191.042-.399.07-.623.084-.224.009-.443.014-.658.014h-2.429Zm1.022-.882h1.365c.154 0 .329-.005.525-.014.196-.009.369-.035.518-.077.252-.07.478-.21.679-.42.205-.215.308-.537.308-.966 0-.425-.098-.744-.294-.959a1.417 1.417 0 0 0-.784-.434 2.931 2.931 0 0 0-.476-.063 8.666 8.666 0 0 0-.476-.014h-1.365v2.947Zm5.362.882v-7.56h1.029V211h-1.029Zm2.98 0 .008-7.56h1.036v3.64l3.374-3.64h1.372l-3.542 3.78 4.004 3.78h-1.498l-3.71-3.64V211h-1.043Zm9.973.21c-.75 0-1.392-.17-1.925-.511a3.327 3.327 0 0 1-1.224-1.414c-.285-.602-.428-1.293-.428-2.072 0-.793.145-1.489.434-2.086.29-.597.7-1.062 1.233-1.393.536-.336 1.173-.504 1.91-.504.756 0 1.4.17 1.932.511.537.336.945.805 1.225 1.407.285.597.428 1.286.428 2.065 0 .793-.143 1.491-.428 2.093a3.273 3.273 0 0 1-1.231 1.4c-.537.336-1.179.504-1.926.504Zm0-.987c.84 0 1.466-.278 1.877-.833.41-.56.616-1.286.616-2.177 0-.915-.208-1.643-.623-2.184-.411-.541-1.034-.812-1.87-.812-.564 0-1.03.128-1.4.385a2.281 2.281 0 0 0-.819 1.057c-.177.448-.266.966-.266 1.554 0 .91.21 1.64.63 2.191.42.546 1.039.819 1.855.819Zm5.122.777v-7.56h.917l2.947 6.188 2.954-6.188h.91V211h-.994v-5.362L68.473 211h-.651l-2.541-5.362V211H64.28Zm9.546 1.463.063-.511c.187.014.322-.023.406-.112a.615.615 0 0 0 .154-.357c.019-.149.024-.31.014-.483h-.637v-1.477h1.197v1.757c0 .429-.11.751-.329.966-.214.215-.504.287-.868.217ZM80.481 211v-7.56h6.013V211h-1.03v-6.573H81.51V211h-1.03Zm11.135.21c-.752 0-1.394-.17-1.925-.511a3.327 3.327 0 0 1-1.225-1.414c-.285-.602-.427-1.293-.427-2.072 0-.793.144-1.489.433-2.086.29-.597.7-1.062 1.233-1.393.536-.336 1.173-.504 1.91-.504.757 0 1.4.17 1.933.511.536.336.945.805 1.224 1.407.285.597.427 1.286.427 2.065 0 .793-.142 1.491-.427 2.093a3.273 3.273 0 0 1-1.232 1.4c-.536.336-1.178.504-1.925.504Zm0-.987c.84 0 1.465-.278 1.876-.833.41-.56.615-1.286.615-2.177 0-.915-.207-1.643-.623-2.184-.41-.541-1.033-.812-1.868-.812-.565 0-1.032.128-1.4.385a2.281 2.281 0 0 0-.82 1.057c-.177.448-.266.966-.266 1.554 0 .91.21 1.64.63 2.191.42.546 1.039.819 1.855.819Zm7.795.987c-.752 0-1.398-.175-1.94-.525-.54-.355-.954-.868-1.238-1.54l1.036-.308c.191.453.466.798.826 1.036.364.233.8.35 1.309.35.746 0 1.32-.231 1.722-.693.406-.467.641-1.09.707-1.869h-3.381v-.882h3.381c-.056-.761-.283-1.377-.679-1.848-.397-.476-.973-.714-1.73-.714-.503 0-.949.124-1.336.371-.383.247-.665.6-.847 1.057l-1.008-.322a2.863 2.863 0 0 1 1.169-1.533c.569-.373 1.246-.56 2.03-.56.737 0 1.369.168 1.897.504.527.331.931.798 1.211 1.4.28.597.42 1.295.42 2.093 0 .793-.143 1.489-.427 2.086a3.26 3.26 0 0 1-1.211 1.4c-.528.331-1.165.497-1.911.497Zm6.958-.21v-6.608h-2.681v-.952h6.391v.952h-2.681V211h-1.029Zm8.065.21c-.751 0-1.393-.17-1.925-.511a3.33 3.33 0 0 1-1.225-1.414c-.285-.602-.427-1.293-.427-2.072 0-.793.145-1.489.434-2.086.289-.597.7-1.062 1.232-1.393.537-.336 1.174-.504 1.911-.504.756 0 1.4.17 1.932.511.537.336.945.805 1.225 1.407.285.597.427 1.286.427 2.065 0 .793-.142 1.491-.427 2.093a3.273 3.273 0 0 1-1.232 1.4c-.537.336-1.178.504-1.925.504Zm0-.987c.84 0 1.465-.278 1.876-.833.411-.56.616-1.286.616-2.177 0-.915-.208-1.643-.623-2.184-.411-.541-1.034-.812-1.869-.812-.565 0-1.031.128-1.4.385a2.281 2.281 0 0 0-.819 1.057c-.177.448-.266.966-.266 1.554 0 .91.21 1.64.63 2.191.42.546 1.038.819 1.855.819Zm5.121.777v-7.56h.917l2.947 6.188 2.954-6.188h.91V211h-.994v-5.362L123.748 211h-.651l-2.541-5.362V211h-1.001Zm10.765 3.36 1.463-3.969.021 1.176-3.311-8.127h1.092l2.716 6.797h-.448l2.506-6.797h1.05l-4.06 10.92h-1.029Zm9.1-3.36v-7.56h6.013V211h-1.029v-6.573h-3.955V211h-1.029Zm11.135.21c-.751 0-1.393-.17-1.925-.511a3.33 3.33 0 0 1-1.225-1.414c-.285-.602-.427-1.293-.427-2.072 0-.793.145-1.489.434-2.086.289-.597.7-1.062 1.232-1.393.537-.336 1.174-.504 1.911-.504.756 0 1.4.17 1.932.511.537.336.945.805 1.225 1.407.285.597.427 1.286.427 2.065 0 .793-.142 1.491-.427 2.093a3.273 3.273 0 0 1-1.232 1.4c-.537.336-1.178.504-1.925.504Zm0-.987c.84 0 1.465-.278 1.876-.833.411-.56.616-1.286.616-2.177 0-.915-.208-1.643-.623-2.184-.411-.541-1.034-.812-1.869-.812-.565 0-1.031.128-1.4.385a2.281 2.281 0 0 0-.819 1.057c-.177.448-.266.966-.266 1.554 0 .91.21 1.64.63 2.191.42.546 1.038.819 1.855.819Zm4.568 2.457v-2.562c.429 0 .737-.138.924-.413.187-.28.338-.726.455-1.337.079-.397.145-.824.196-1.281.051-.457.096-.98.133-1.568.037-.593.072-1.286.105-2.079h4.998v6.678h.728v2.562h-.994V211h-5.558v1.68h-.987Zm1.743-2.562h4.046v-5.796h-3.024c-.014.355-.035.73-.063 1.127-.023.397-.054.793-.091 1.19-.033.397-.072.77-.119 1.12a8.64 8.64 0 0 1-.154.91c-.07.336-.147.623-.231.861a1.4 1.4 0 0 1-.364.588Zm10.355 1.092c-.751 0-1.393-.17-1.925-.511a3.33 3.33 0 0 1-1.225-1.414c-.285-.602-.427-1.293-.427-2.072 0-.793.145-1.489.434-2.086.289-.597.7-1.062 1.232-1.393.537-.336 1.174-.504 1.911-.504.756 0 1.4.17 1.932.511.537.336.945.805 1.225 1.407.285.597.427 1.286.427 2.065 0 .793-.142 1.491-.427 2.093a3.273 3.273 0 0 1-1.232 1.4c-.537.336-1.178.504-1.925.504Zm0-.987c.84 0 1.465-.278 1.876-.833.411-.56.616-1.286.616-2.177 0-.915-.208-1.643-.623-2.184-.411-.541-1.034-.812-1.869-.812-.565 0-1.031.128-1.4.385a2.281 2.281 0 0 0-.819 1.057c-.177.448-.266.966-.266 1.554 0 .91.21 1.64.63 2.191.42.546 1.038.819 1.855.819Zm8.264-7.679c-.331 0-.635-.082-.91-.245a1.865 1.865 0 0 1-.658-.651 1.787 1.787 0 0 1-.238-.91h.854c0 .261.093.485.28.672.187.187.411.28.672.28a.9.9 0 0 0 .672-.28.916.916 0 0 0 .28-.672h.854c0 .331-.082.635-.245.91a1.813 1.813 0 0 1-.651.651 1.754 1.754 0 0 1-.91.245Zm2.87.896V211h-1.001v-5.887L173.21 211h-.868v-7.56h1.001v5.838l4.151-5.838h.861Zm1.405 9.24v-2.562c.429 0 .737-.138.924-.413.187-.28.338-.726.455-1.337.079-.397.145-.824.196-1.281.051-.457.096-.98.133-1.568.037-.593.072-1.286.105-2.079h4.998v6.678h.728v2.562h-.994V211h-5.558v1.68h-.987Zm1.743-2.562h4.046v-5.796h-3.024c-.014.355-.035.73-.063 1.127-.023.397-.054.793-.091 1.19-.033.397-.072.77-.119 1.12a8.64 8.64 0 0 1-.154.91c-.07.336-.147.623-.231.861a1.4 1.4 0 0 1-.364.588Zm8.276 4.242 1.463-3.969.021 1.176-3.311-8.127h1.092l2.716 6.797h-.448l2.506-6.797h1.05l-4.06 10.92h-1.029Zm8.356-3.36v-6.608h-2.681v-.952h6.391v.952h-2.681V211h-1.029Zm7.84 0 .007-7.56h1.036v3.64l3.374-3.64h1.372l-3.542 3.78 4.004 3.78h-1.498l-3.71-3.64V211h-1.043Zm9.115.21c-.569 0-1.047-.103-1.435-.308a2.093 2.093 0 0 1-.861-.819 2.24 2.24 0 0 1-.287-1.113c0-.411.082-.761.245-1.05.168-.294.395-.534.679-.721a3.41 3.41 0 0 1 1.001-.427c.383-.093.805-.175 1.267-.245.467-.075.922-.138 1.365-.189.448-.056.84-.11 1.176-.161l-.364.224c.014-.747-.13-1.3-.434-1.659-.303-.359-.83-.539-1.582-.539-.518 0-.956.117-1.316.35-.354.233-.604.602-.749 1.106l-1.001-.294c.173-.677.521-1.202 1.043-1.575.523-.373 1.202-.56 2.037-.56.691 0 1.277.131 1.757.392.486.257.829.63 1.029 1.12.094.219.154.464.182.735.028.271.042.546.042.826V211h-.917v-1.897l.266.112c-.256.649-.655 1.143-1.197 1.484-.541.341-1.19.511-1.946.511Zm.119-.889c.481 0 .901-.086 1.26-.259.36-.173.649-.408.868-.707a2.41 2.41 0 0 0 .427-1.022c.056-.243.087-.509.091-.798.005-.294.007-.513.007-.658l.392.203c-.35.047-.73.093-1.141.14-.406.047-.807.1-1.204.161-.392.061-.746.133-1.064.217a2.923 2.923 0 0 0-.623.259c-.2.107-.366.252-.497.434a1.164 1.164 0 0 0-.189.679c0 .219.054.432.161.637.112.205.29.376.532.511.248.135.574.203.98.203Zm5.491.679.007-7.56h1.036v3.64l3.374-3.64h1.372l-3.542 3.78 4.004 3.78h-1.498l-3.71-3.64V211H220.7ZM24.973 231v-7.56h6.013V231h-1.029v-6.573h-3.955V231h-1.029Zm11.373.21c-.696 0-1.284-.175-1.764-.525-.481-.355-.845-.833-1.092-1.435-.248-.607-.371-1.286-.371-2.037 0-.765.123-1.447.37-2.044.253-.602.621-1.076 1.107-1.421.485-.345 1.082-.518 1.792-.518.69 0 1.283.175 1.778.525.494.35.872.826 1.134 1.428.266.602.399 1.279.399 2.03 0 .756-.133 1.435-.4 2.037a3.407 3.407 0 0 1-1.147 1.435c-.5.35-1.102.525-1.806.525Zm-3.402 3.15v-10.92h.924v5.691h.112v5.229h-1.036Zm3.297-4.109c.527 0 .966-.133 1.316-.399.35-.266.611-.628.784-1.085.177-.462.266-.98.266-1.554 0-.569-.087-1.083-.26-1.54a2.362 2.362 0 0 0-.79-1.085c-.35-.266-.796-.399-1.337-.399-.528 0-.966.128-1.316.385-.346.257-.605.614-.777 1.071-.173.453-.26.975-.26 1.568 0 .583.087 1.106.26 1.568.172.457.434.817.784 1.078.35.261.793.392 1.33.392Zm7.158.959c-.57 0-1.048-.103-1.435-.308a2.084 2.084 0 0 1-.861-.819 2.236 2.236 0 0 1-.287-1.113c0-.411.081-.761.245-1.05.168-.294.394-.534.679-.721.29-.187.623-.329 1-.427.383-.093.806-.175 1.268-.245.466-.075.921-.138 1.365-.189.448-.056.84-.11 1.176-.161l-.364.224c.014-.747-.13-1.3-.434-1.659-.303-.359-.83-.539-1.582-.539-.518 0-.957.117-1.316.35-.355.233-.605.602-.75 1.106l-1-.294c.172-.677.52-1.202 1.043-1.575.523-.373 1.201-.56 2.037-.56.69 0 1.276.131 1.757.392.485.257.828.63 1.029 1.12.093.219.154.464.182.735.028.271.042.546.042.826V231h-.917v-1.897l.266.112c-.257.649-.656 1.143-1.197 1.484-.541.341-1.19.511-1.946.511Zm.119-.889c.48 0 .9-.086 1.26-.259a2.28 2.28 0 0 0 .868-.707c.22-.303.361-.644.427-1.022.056-.243.086-.509.09-.798.006-.294.008-.513.008-.658l.392.203c-.35.047-.73.093-1.141.14-.406.047-.807.1-1.204.161-.392.061-.747.133-1.064.217a2.9 2.9 0 0 0-.623.259c-.2.107-.367.252-.497.434a1.164 1.164 0 0 0-.19.679c0 .219.054.432.162.637.112.205.29.376.532.511.247.135.574.203.98.203Zm5.49.679.007-7.56h1.036v3.64l3.374-3.64h1.372l-3.542 3.78L55.26 231h-1.498l-3.71-3.64V231h-1.043Zm9.003 0v-6.608h-2.68v-.952h6.39v.952h-2.68V231h-1.03Zm11.051-7.56V231h-1v-5.887L63.916 231h-.868v-7.56h1.001v5.838l4.151-5.838h.861ZM71.02 231l.007-7.56h1.036v3.64l3.374-3.64h1.372l-3.542 3.78L77.27 231h-1.498l-3.71-3.64V231H71.02Zm8.03 3.36 1.463-3.969.021 1.176-3.31-8.127h1.091l2.716 6.797h-.448l2.506-6.797h1.05l-4.06 10.92H79.05Zm12.255-3.15c-.667 0-1.248-.142-1.743-.427a3.203 3.203 0 0 1-1.183-1.211c-.29-.523-.464-1.136-.525-1.841h-1.477V231h-1.029v-7.56h1.029v3.269h1.47c.06-.714.238-1.33.532-1.848a3.137 3.137 0 0 1 1.19-1.204c.5-.285 1.08-.427 1.743-.427.751 0 1.393.17 1.925.511.537.341.945.81 1.225 1.407.285.597.427 1.283.427 2.058 0 .793-.145 1.491-.434 2.093a3.263 3.263 0 0 1-1.232 1.407c-.532.336-1.171.504-1.918.504Zm-.021-.987c.85 0 1.48-.275 1.89-.826.415-.555.623-1.283.623-2.184 0-.919-.21-1.647-.63-2.184-.415-.541-1.04-.812-1.876-.812-.798 0-1.41.266-1.834.798-.425.527-.637 1.258-.637 2.191 0 .915.208 1.647.623 2.198.42.546 1.034.819 1.841.819Zm13.762 2.086V231h-8.624v-7.56h1.001v6.608h2.835v-6.608h1.001v6.608h2.828v-6.608h1.001v6.608h.987v2.261h-1.029Zm8.149-8.869V231h-1.001v-5.887L108.05 231h-.868v-7.56h1.001v5.838l4.151-5.838h.861Zm1.958 7.56v-7.56h.917l2.947 6.188 2.954-6.188h.91V231h-.994v-5.362L119.346 231h-.651l-2.541-5.362V231h-1.001Zm15.625.21c-.761 0-1.405-.17-1.932-.511a3.26 3.26 0 0 1-1.204-1.407c-.271-.602-.411-1.293-.42-2.072.009-.793.154-1.489.434-2.086a3.204 3.204 0 0 1 1.211-1.4c.527-.336 1.167-.504 1.918-.504.765 0 1.43.187 1.995.56a2.82 2.82 0 0 1 1.169 1.533l-1.008.322a2.126 2.126 0 0 0-.847-1.05 2.338 2.338 0 0 0-1.316-.378c-.555 0-1.015.128-1.379.385a2.237 2.237 0 0 0-.812 1.057c-.177.453-.268.973-.273 1.561.009.905.219 1.633.63 2.184.411.546 1.022.819 1.834.819.513 0 .95-.117 1.309-.35.364-.238.639-.583.826-1.036l1.036.308c-.28.672-.691 1.185-1.232 1.54-.541.35-1.188.525-1.939.525Zm4.609-.21v-7.56h6.013V231h-1.029v-6.573h-3.955V231h-1.029Zm11.177.21c-.738 0-1.377-.163-1.918-.49a3.319 3.319 0 0 1-1.253-1.379c-.299-.593-.448-1.288-.448-2.086 0-.826.147-1.54.441-2.142a3.28 3.28 0 0 1 1.239-1.393c.536-.327 1.169-.49 1.897-.49.746 0 1.383.173 1.911.518.527.341.926.831 1.197 1.47.27.639.394 1.402.371 2.289h-1.05v-.364c-.019-.98-.231-1.72-.637-2.219-.402-.499-.99-.749-1.764-.749-.812 0-1.435.264-1.869.791-.43.527-.644 1.279-.644 2.254 0 .952.214 1.692.644 2.219.434.523 1.047.784 1.841.784.541 0 1.012-.124 1.414-.371.406-.252.725-.614.959-1.085l.959.371a3.433 3.433 0 0 1-1.323 1.533c-.579.359-1.235.539-1.967.539Zm-2.891-3.703v-.861h5.775v.861h-5.775Zm14.377 4.802V231h-6.503v-7.56h1.029v6.573h3.955v-6.573h1.029v6.608h1.519v2.261h-1.029Zm8.151-8.869V231H165.2v-5.887L161.056 231h-.868v-7.56h1.001v5.838l4.151-5.838h.861Zm4.128 7.77c-.57 0-1.048-.103-1.435-.308a2.08 2.08 0 0 1-.861-.819 2.23 2.23 0 0 1-.287-1.113c0-.411.081-.761.245-1.05.168-.294.394-.534.679-.721a3.399 3.399 0 0 1 1.001-.427c.382-.093.805-.175 1.267-.245.466-.075.921-.138 1.365-.189.448-.056.84-.11 1.176-.161l-.364.224c.014-.747-.131-1.3-.434-1.659-.304-.359-.831-.539-1.582-.539-.518 0-.957.117-1.316.35-.355.233-.605.602-.749 1.106l-1.001-.294c.172-.677.52-1.202 1.043-1.575.522-.373 1.201-.56 2.037-.56.69 0 1.276.131 1.757.392.485.257.828.63 1.029 1.12.093.219.154.464.182.735.028.271.042.546.042.826V231h-.917v-1.897l.266.112c-.257.649-.656 1.143-1.197 1.484-.542.341-1.19.511-1.946.511Zm.119-.889c.48 0 .9-.086 1.26-.259.359-.173.648-.408.868-.707.219-.303.361-.644.427-1.022.056-.243.086-.509.091-.798.004-.294.007-.513.007-.658l.392.203c-.35.047-.731.093-1.141.14-.406.047-.808.1-1.204.161-.392.061-.747.133-1.064.217a2.88 2.88 0 0 0-.623.259 1.426 1.426 0 0 0-.497.434 1.164 1.164 0 0 0-.189.679c0 .219.053.432.161.637.112.205.289.376.532.511.247.135.574.203.98.203Zm4.797.679v-.903c.28.051.492.04.637-.035a.712.712 0 0 0 .329-.392c.07-.187.128-.418.175-.693.075-.457.142-.961.203-1.512.061-.551.114-1.157.161-1.82.051-.667.103-1.402.154-2.205h5.138V231h-1.022v-6.573h-3.164a78.202 78.202 0 0 1-.245 2.891c-.042.448-.089.861-.14 1.239-.051.378-.105.705-.161.98-.084.415-.196.747-.336.994a.983.983 0 0 1-.609.49c-.271.079-.644.072-1.12-.021Zm14.759-7.56V231h-1.001v-5.887L184.859 231h-.868v-7.56h1.001v5.838l4.151-5.838h.861Zm5.1 7.77c-.76 0-1.404-.17-1.932-.511a3.267 3.267 0 0 1-1.204-1.407c-.27-.602-.41-1.293-.42-2.072.01-.793.154-1.489.434-2.086a3.204 3.204 0 0 1 1.211-1.4c.528-.336 1.167-.504 1.918-.504.766 0 1.431.187 1.995.56.57.373.959.884 1.169 1.533l-1.008.322a2.121 2.121 0 0 0-.847-1.05 2.336 2.336 0 0 0-1.316-.378c-.555 0-1.015.128-1.379.385a2.243 2.243 0 0 0-.812 1.057c-.177.453-.268.973-.273 1.561.01.905.22 1.633.63 2.184.411.546 1.022.819 1.834.819.514 0 .95-.117 1.309-.35.364-.238.64-.583.826-1.036l1.036.308c-.28.672-.69 1.185-1.232 1.54-.541.35-1.187.525-1.939.525Zm6.49-.21v-6.608h-2.681v-.952h6.391v.952h-2.681V231h-1.029Zm6.92.21c-.569 0-1.048-.103-1.435-.308a2.08 2.08 0 0 1-.861-.819 2.24 2.24 0 0 1-.287-1.113c0-.411.082-.761.245-1.05.168-.294.394-.534.679-.721a3.399 3.399 0 0 1 1.001-.427c.383-.093.805-.175 1.267-.245.467-.075.922-.138 1.365-.189.448-.056.84-.11 1.176-.161l-.364.224c.014-.747-.131-1.3-.434-1.659s-.831-.539-1.582-.539c-.518 0-.957.117-1.316.35-.355.233-.604.602-.749 1.106l-1.001-.294c.173-.677.52-1.202 1.043-1.575.523-.373 1.202-.56 2.037-.56.691 0 1.276.131 1.757.392.485.257.828.63 1.029 1.12.093.219.154.464.182.735.028.271.042.546.042.826V231h-.917v-1.897l.266.112c-.257.649-.656 1.143-1.197 1.484-.541.341-1.19.511-1.946.511Zm.119-.889c.481 0 .901-.086 1.26-.259.359-.173.649-.408.868-.707.219-.303.362-.644.427-1.022.056-.243.086-.509.091-.798.005-.294.007-.513.007-.658l.392.203c-.35.047-.73.093-1.141.14-.406.047-.807.1-1.204.161-.392.061-.747.133-1.064.217a2.902 2.902 0 0 0-.623.259 1.435 1.435 0 0 0-.497.434 1.164 1.164 0 0 0-.189.679c0 .219.054.432.161.637.112.205.289.376.532.511.247.135.574.203.98.203Zm5.49.679v-7.56h.917l2.947 6.188 2.954-6.188h.91V231h-.994v-5.362L218.316 231h-.651l-2.541-5.362V231h-1.001Zm9.547 1.463.063-.511c.187.014.322-.023.406-.112a.618.618 0 0 0 .154-.357c.019-.149.023-.31.014-.483h-.637v-1.477h1.197v1.757c0 .429-.11.751-.329.966-.215.215-.504.287-.868.217Zm8.713-1.463v-6.608h-2.681v-.952h6.391v.952h-2.681V231h-1.029Zm6.92.21c-.569 0-1.048-.103-1.435-.308a2.08 2.08 0 0 1-.861-.819 2.24 2.24 0 0 1-.287-1.113c0-.411.082-.761.245-1.05.168-.294.394-.534.679-.721a3.399 3.399 0 0 1 1.001-.427c.383-.093.805-.175 1.267-.245.467-.075.922-.138 1.365-.189.448-.056.84-.11 1.176-.161l-.364.224c.014-.747-.131-1.3-.434-1.659s-.831-.539-1.582-.539c-.518 0-.957.117-1.316.35-.355.233-.604.602-.749 1.106l-1.001-.294c.173-.677.52-1.202 1.043-1.575.523-.373 1.202-.56 2.037-.56.691 0 1.276.131 1.757.392.485.257.828.63 1.029 1.12.093.219.154.464.182.735.028.271.042.546.042.826V231h-.917v-1.897l.266.112c-.257.649-.656 1.143-1.197 1.484-.541.341-1.19.511-1.946.511Zm.119-.889c.481 0 .901-.086 1.26-.259.359-.173.649-.408.868-.707.219-.303.362-.644.427-1.022.056-.243.086-.509.091-.798.005-.294.007-.513.007-.658l.392.203c-.35.047-.73.093-1.141.14-.406.047-.807.1-1.204.161-.392.061-.747.133-1.064.217a2.902 2.902 0 0 0-.623.259 1.435 1.435 0 0 0-.497.434 1.164 1.164 0 0 0-.189.679c0 .219.054.432.161.637.112.205.289.376.532.511.247.135.574.203.98.203Zm5.49.679.007-7.56h1.036v3.64l3.374-3.64h1.372l-3.542 3.78 4.004 3.78h-1.498l-3.71-3.64V231h-1.043Zm15.762-7.56V231h-1.001v-5.887L255.529 231h-.868v-7.56h1.001v5.838l4.151-5.838h.861ZM24.973 251v-7.56h1.029v3.283h4.263v-3.283h1.029V251h-1.029v-3.29h-4.263V251h-1.029Zm11.435.21c-.75 0-1.392-.17-1.925-.511a3.327 3.327 0 0 1-1.224-1.414c-.285-.602-.428-1.293-.428-2.072 0-.793.145-1.489.434-2.086.29-.597.7-1.062 1.233-1.393.536-.336 1.173-.504 1.91-.504.756 0 1.4.17 1.932.511.537.336.945.805 1.225 1.407.285.597.428 1.286.428 2.065 0 .793-.143 1.491-.428 2.093a3.273 3.273 0 0 1-1.231 1.4c-.537.336-1.179.504-1.926.504Zm0-.987c.84 0 1.466-.278 1.877-.833.41-.56.616-1.286.616-2.177 0-.915-.208-1.643-.623-2.184-.411-.541-1.034-.812-1.87-.812-.564 0-1.03.128-1.4.385a2.281 2.281 0 0 0-.819 1.057c-.177.448-.266.966-.266 1.554 0 .91.21 1.64.63 2.191.42.546 1.039.819 1.855.819Zm5.122.777v-7.56h3.115c.158 0 .35.009.574.028.228.019.44.054.637.105.424.112.765.341 1.022.686.261.345.392.761.392 1.246 0 .271-.042.513-.126.728-.08.21-.194.392-.343.546-.07.079-.147.149-.231.21a1.868 1.868 0 0 1-.245.14c.149.028.31.093.483.196.27.159.476.373.616.644.14.266.21.59.21.973 0 .518-.124.94-.371 1.267a1.861 1.861 0 0 1-.994.672c-.187.051-.39.084-.61.098a9.377 9.377 0 0 1-.608.021H41.53Zm1.036-.875h2.436c.098 0 .221-.007.37-.021.15-.019.283-.042.4-.07.275-.07.476-.21.602-.42.13-.215.196-.448.196-.7 0-.331-.098-.602-.294-.812-.192-.215-.448-.345-.77-.392a2.012 2.012 0 0 0-.336-.042 7.36 7.36 0 0 0-.315-.007h-2.29v2.464Zm0-3.346h2.114c.121 0 .256-.007.406-.021.154-.019.287-.049.399-.091a.923.923 0 0 0 .532-.434c.116-.205.175-.429.175-.672a1.29 1.29 0 0 0-.19-.7.959.959 0 0 0-.552-.42 1.838 1.838 0 0 0-.546-.105 11.213 11.213 0 0 0-.364-.014h-1.974v2.457Zm12.469-3.339V251h-1.001v-5.887L49.89 251h-.868v-7.56h1v5.838l4.152-5.838h.86Zm6.592 7.56v-2.814a4.63 4.63 0 0 1-.931.329c-.37.093-.766.14-1.19.14-.766 0-1.386-.17-1.862-.511-.477-.341-.787-.833-.931-1.477a4.048 4.048 0 0 1-.099-.609 15.474 15.474 0 0 1-.034-.952v-1.666h1.035v1.666c0 .154.005.329.014.525.01.196.03.387.064.574.093.509.303.894.63 1.155.33.261.795.392 1.392.392.374 0 .726-.047 1.057-.14a2.9 2.9 0 0 0 .855-.392v-3.78h1.029V251h-1.03Zm2.98 0 .008-7.56h1.036v3.64l3.374-3.64h1.372l-3.542 3.78 4.004 3.78H69.36l-3.71-3.64V251h-1.043Zm9.116.21c-.57 0-1.048-.103-1.435-.308a2.084 2.084 0 0 1-.86-.819 2.236 2.236 0 0 1-.288-1.113c0-.411.082-.761.245-1.05.168-.294.394-.534.68-.721.288-.187.622-.329 1-.427.383-.093.805-.175 1.267-.245.467-.075.922-.138 1.365-.189.448-.056.84-.11 1.176-.161l-.364.224c.014-.747-.13-1.3-.434-1.659-.303-.359-.83-.539-1.582-.539-.518 0-.957.117-1.316.35-.355.233-.604.602-.749 1.106l-1-.294c.172-.677.52-1.202 1.042-1.575.523-.373 1.202-.56 2.037-.56.69 0 1.276.131 1.757.392.485.257.828.63 1.03 1.12.092.219.153.464.181.735.028.271.042.546.042.826V251H76.6v-1.897l.266.112c-.257.649-.656 1.143-1.197 1.484-.541.341-1.19.511-1.946.511Zm.12-.889c.48 0 .9-.086 1.26-.259a2.28 2.28 0 0 0 .867-.707c.22-.303.362-.644.427-1.022.056-.243.086-.509.091-.798.005-.294.007-.513.007-.658l.392.203c-.35.047-.73.093-1.14.14-.407.047-.808.1-1.205.161-.392.061-.747.133-1.064.217a2.9 2.9 0 0 0-.623.259c-.2.107-.366.252-.497.434a1.164 1.164 0 0 0-.189.679c0 .219.054.432.161.637.112.205.29.376.532.511.247.135.574.203.98.203Zm5.49.679v-7.56h.916l2.947 6.188 2.954-6.188h.91V251h-.994v-5.362L83.526 251h-.652l-2.54-5.362V251h-1.002Zm9.882 0v-1.197h1.197V251h-1.197Z" fill="#434035"/></svg>