<svg width="72" height="72" fill="none" xmlns="http://www.w3.org/2000/svg"><g clip-path="url(#a)"><path d="M90.286-.19H-18.285V72.19H90.286V-.19Z" fill="#F0F0F0"/><path d="M90.286 8.856H-18.285v9.047H90.286V8.856ZM90.286 26.953H-18.285V36H90.286v-9.047ZM90.286 45.047H-18.285v9.047H90.286v-9.047ZM90.286 63.142H-18.285v9.047H90.286v-9.047Z" fill="#D80027"/><path d="M36-.19h-54.285v38.974H36V-.19Z" fill="#2E52B2"/><path d="m2.882 15.775-.874 2.69H-.82l2.288 1.661-.874 2.69 2.288-1.662 2.287 1.662-.874-2.69 2.288-1.661H3.755l-.873-2.69ZM3.755 28.172l-.873-2.69-.874 2.69H-.82l2.288 1.662-.874 2.689 2.288-1.662 2.287 1.662-.874-2.69 2.288-1.661H3.755ZM2.882 6.069l-.874 2.69H-.82l2.288 1.661-.874 2.69 2.288-1.662 2.287 1.662-.874-2.69L6.583 8.76H3.755l-.873-2.69ZM14.835 15.775l-.874 2.69h-2.828l2.288 1.661-.874 2.69 2.288-1.662 2.287 1.662-.874-2.69 2.288-1.661h-2.828l-.873-2.69ZM15.708 28.172l-.873-2.69-.874 2.69h-2.828l2.288 1.662-.874 2.689 2.288-1.662 2.287 1.662-.874-2.69 2.288-1.661h-2.828ZM27.657 28.172l-.873-2.69-.874 2.69h-2.828l2.288 1.662-.874 2.689 2.288-1.662 2.287 1.662-.874-2.69 2.288-1.661h-2.828ZM26.784 15.775l-.874 2.69h-2.828l2.288 1.661-.874 2.69 2.288-1.662 2.287 1.662-.874-2.69 2.288-1.661h-2.828l-.873-2.69ZM14.835 6.069l-.874 2.69h-2.828l2.288 1.661-.874 2.69 2.288-1.662 2.287 1.662-.874-2.69 2.288-1.661h-2.828l-.873-2.69ZM26.784 6.069l-.874 2.69h-2.828l2.288 1.661-.874 2.69 2.288-1.662 2.287 1.662-.874-2.69 2.288-1.661h-2.828l-.873-2.69Z" fill="#F0F0F0"/></g><defs><clipPath id="a"><rect width="72" height="72" rx="36" fill="#fff"/></clipPath></defs></svg>