<svg width="72" height="72" viewBox="0 0 72 72" fill="none" xmlns="http://www.w3.org/2000/svg">
<g clip-path="url(#clip0_324_3395)">
<path d="M90.2863 -0.19043H-18.2852V72.1913H90.2863V-0.19043Z" fill="#F0F0F0"/>
<path d="M90.2863 8.85645H-18.2852V17.9033H90.2863V8.85645Z" fill="#D80027"/>
<path d="M90.2863 26.9531H-18.2852V36H90.2863V26.9531Z" fill="#D80027"/>
<path d="M90.2863 45.0469H-18.2852V54.0937H90.2863V45.0469Z" fill="#D80027"/>
<path d="M90.2863 63.1421H-18.2852V72.1889H90.2863V63.1421Z" fill="#D80027"/>
<path d="M36.0006 -0.19043H-18.2852V38.7844H36.0006V-0.19043Z" fill="#2E52B2"/>
<path d="M2.88193 15.7749L2.00763 18.4646H-0.820312L1.46796 20.126L0.59366 22.8155L2.88193 21.1541L5.16872 22.8155L4.29463 20.126L6.5829 18.4646H3.75474L2.88193 15.7749Z" fill="#F0F0F0"/>
<path d="M3.75474 28.1719L2.88193 25.4824L2.00763 28.1719H-0.820312L1.46796 29.8335L0.59366 32.523L2.88193 30.8614L5.16872 32.523L4.29463 29.8335L6.5829 28.1719H3.75474Z" fill="#F0F0F0"/>
<path d="M2.88193 6.06885L2.00763 8.75875H-0.820312L1.46796 10.4204L0.59366 13.1099L2.88193 11.4482L5.16872 13.1099L4.29463 10.4204L6.5829 8.75875H3.75474L2.88193 6.06885Z" fill="#F0F0F0"/>
<path d="M14.8348 15.7749L13.9608 18.4646H11.1328L13.4209 20.126L12.547 22.8155L14.8348 21.1541L17.1221 22.8155L16.2478 20.126L18.536 18.4646H15.7081L14.8348 15.7749Z" fill="#F0F0F0"/>
<path d="M15.7081 28.1719L14.8348 25.4824L13.9608 28.1719H11.1328L13.4209 29.8335L12.547 32.523L14.8348 30.8614L17.1221 32.523L16.2478 29.8335L18.536 28.1719H15.7081Z" fill="#F0F0F0"/>
<path d="M27.6571 28.1719L26.7841 25.4824L25.9098 28.1719H23.082L25.3699 29.8335L24.4958 32.523L26.7841 30.8614L29.0711 32.523L28.1968 29.8335L30.485 28.1719H27.6571Z" fill="#F0F0F0"/>
<path d="M26.7841 15.7749L25.9098 18.4646H23.082L25.3699 20.126L24.4958 22.8155L26.7841 21.1541L29.0711 22.8155L28.1968 20.126L30.485 18.4646H27.6571L26.7841 15.7749Z" fill="#F0F0F0"/>
<path d="M14.8348 6.06885L13.9608 8.75875H11.1328L13.4209 10.4204L12.547 13.1099L14.8348 11.4482L17.1221 13.1099L16.2478 10.4204L18.536 8.75875H15.7081L14.8348 6.06885Z" fill="#F0F0F0"/>
<path d="M26.7841 6.06885L25.9098 8.75875H23.082L25.3699 10.4204L24.4958 13.1099L26.7841 11.4482L29.0711 13.1099L28.1968 10.4204L30.485 8.75875H27.6571L26.7841 6.06885Z" fill="#F0F0F0"/>
</g>
<defs>
<clipPath id="clip0_324_3395">
<rect width="72" height="72" rx="36" fill="white"/>
</clipPath>
</defs>
</svg>
