<svg width="96" height="96" fill="none" xmlns="http://www.w3.org/2000/svg"><g clip-path="url(#a)"><path d="M64.696 2.986A47.897 47.897 0 0 0 48 0a47.897 47.897 0 0 0-16.695 2.986L27.13 48l4.174 45.014A47.892 47.892 0 0 0 48 96a47.892 47.892 0 0 0 16.696-2.986L68.87 48 64.696 2.986Z" fill="#FFDA44"/><path d="M96 48C96 27.362 82.974 9.768 64.695 2.986v90.029C82.974 86.233 96 68.639 96 48Z" fill="#D80027"/><path d="M0 48C0 68.64 13.026 86.233 31.304 93.015V2.985C13.026 9.769 0 27.363 0 48Z" fill="#000"/></g><defs><clipPath id="a"><path fill="#fff" d="M0 0h96v96H0z"/></clipPath></defs></svg>