<svg width="96" height="96" fill="none" xmlns="http://www.w3.org/2000/svg"><g clip-path="url(#a)"><path d="M2.986 64.696C9.768 82.974 27.362 96 48.001 96c20.638 0 38.232-13.026 45.014-31.304l-45.014-4.174-45.015 4.174Z" fill="#FFDA44"/><path d="M48 0C27.363 0 9.769 13.026 2.987 31.304l45.015 4.174 45.014-4.174C86.233 13.026 68.64 0 48.001 0Z" fill="#000"/><path d="M2.986 31.304A47.897 47.897 0 0 0 0 48a47.897 47.897 0 0 0 2.986 16.695h90.029A47.896 47.896 0 0 0 96 48a47.892 47.892 0 0 0-2.986-16.696H2.986Z" fill="#D80027"/></g><defs><clipPath id="a"><path fill="#fff" d="M0 0h96v96H0z"/></clipPath></defs></svg>