<svg width="96" height="96" viewBox="0 0 96 96" fill="none" xmlns="http://www.w3.org/2000/svg">
<g clip-path="url(#clip0_324_3879)">
<rect width="96" height="96" rx="48" fill="#BCBCBC"/>
<path d="M120 0.238281H-24V95.7617H120V0.238281Z" fill="#F0F0F0"/>
<path d="M57 0.238281H39V39.0441H-24V56.9545H39V95.7603H57V56.9545H120V39.0441H57V0.238281Z" fill="#D80027"/>
<path d="M86.7537 64.6113L120.002 82.9908V64.6113H86.7537Z" fill="#0052B4"/>
<path d="M63.6521 64.6113L120 95.7598V86.9518L79.5863 64.6113H63.6521Z" fill="#0052B4"/>
<path d="M104.991 95.76L63.6521 72.9062V95.76H104.991Z" fill="#0052B4"/>
<path d="M63.6521 64.6113L120 95.7598V86.9518L79.5863 64.6113H63.6521Z" fill="#F0F0F0"/>
<path d="M63.6521 64.6113L120 95.7598V86.9518L79.5863 64.6113H63.6521Z" fill="#D80027"/>
<path d="M1.40841 64.6104L-24 78.6561V64.6104H1.40841Z" fill="#0052B4"/>
<path d="M32.3465 68.5713V95.7591H-16.832L32.3465 68.5713Z" fill="#0052B4"/>
<path d="M16.4137 64.6113L-24 86.9518V95.7598L32.3479 64.6113H16.4137Z" fill="#D80027"/>
<path d="M9.24797 31.3863L-24 13.0068V31.3863H9.24797Z" fill="#0052B4"/>
<path d="M32.3479 31.3868L-24 0.238281V9.0463L16.4137 31.3868H32.3479Z" fill="#0052B4"/>
<path d="M-8.99219 0.238281L32.3465 23.092V0.238281H-8.99219Z" fill="#0052B4"/>
<path d="M32.3479 31.3868L-24 0.238281V9.0463L16.4137 31.3868H32.3479Z" fill="#F0F0F0"/>
<path d="M32.3479 31.3868L-24 0.238281V9.0463L16.4137 31.3868H32.3479Z" fill="#D80027"/>
<path d="M94.5916 31.3865L120 17.3408V31.3865H94.5916Z" fill="#0052B4"/>
<path d="M63.6521 27.4261V0.238281H112.831L63.6521 27.4261Z" fill="#0052B4"/>
<path d="M79.5866 31.3868L120 9.0463V0.238281L63.6523 31.3868H79.5866Z" fill="#D80027"/>
</g>
<defs>
<clipPath id="clip0_324_3879">
<rect width="96" height="96" rx="48" fill="white"/>
</clipPath>
</defs>
</svg>
