<svg width="96" height="96" viewBox="0 0 96 96" fill="none" xmlns="http://www.w3.org/2000/svg">
<g clip-path="url(#clip0_324_3855)">
<path d="M48 96C74.5097 96 96 74.5097 96 48C96 21.4903 74.5097 0 48 0C21.4903 0 0 21.4903 0 48C0 74.5097 21.4903 96 48 96Z" fill="#F0F0F0"/>
<path d="M95.9998 47.9998C95.9998 27.3615 82.9738 9.76741 64.6953 2.98535V93.0144C82.9738 86.2322 95.9998 68.6381 95.9998 47.9998Z" fill="#D80027"/>
<path d="M0 47.9998C0 68.6381 13.026 86.2322 31.3044 93.0142V2.98535C13.026 9.76741 0 27.3615 0 47.9998Z" fill="#6DA544"/>
</g>
<defs>
<clipPath id="clip0_324_3855">
<rect width="96" height="96" fill="white"/>
</clipPath>
</defs>
</svg>
