<svg width="96" height="96" viewBox="0 0 96 96" fill="none" xmlns="http://www.w3.org/2000/svg">
<g clip-path="url(#clip0_324_3861)">
<path d="M2.98633 64.6957C9.76839 82.974 27.3624 96.0002 48.0008 96.0002C68.6391 96.0002 86.2331 82.974 93.0152 64.6957L48.0008 60.522L2.98633 64.6957Z" fill="#FFDA44"/>
<path d="M48.0008 0C27.3624 0 9.76839 13.026 2.98633 31.3044L48.0008 35.4782L93.0152 31.3042C86.2331 13.026 68.6391 0 48.0008 0Z" fill="black"/>
<path d="M2.98556 31.3042C1.05619 36.5041 0 42.1284 0 47.9998C0 53.8711 1.05619 59.4954 2.98556 64.6953H93.0146C94.944 59.4954 96 53.8711 96 47.9998C96 42.1284 94.944 36.5041 93.0144 31.3042H2.98556Z" fill="#D80027"/>
</g>
<defs>
<clipPath id="clip0_324_3861">
<rect width="96" height="96" fill="white"/>
</clipPath>
</defs>
</svg>
