<svg width="288" height="55" fill="none" xmlns="http://www.w3.org/2000/svg"><path d="M16.506 18.824v15.89c2.104-1.16 3.578-3.178 4.293-5.455l.169.088c-.464 5.668-4.252 11.336-10.145 11.336C4.888 40.683.51 36.174.51 28.96c0-5.41 3.451-8.804 7.872-11.854a7.576 7.576 0 0 0-1.98-.257c-3.03 0-4.798 2.104-4.798 4.252H1.35c-.042-.3-.042-.601-.042-.902 0-3.822 1.979-8.46 6.778-8.46 3.073 0 5.43 2.877 9.008 2.877 1.431 0 3.2-.688 3.915-2.277h.126c-.042 2.793-.883 5.67-4.63 6.486ZM18.778 35.1c-2.104 2.276-4.377 4.209-7.323 4.209-5.473 0-9.682-4.38-9.682-10.736 0-3.736 1.515-5.755 3.199-8.117h-.169C3.751 21.529.973 24.235.973 28.83c0 7.044 4.336 11.38 10.018 11.38 3.957 0 6.65-2.79 7.872-5.066l-.085-.044Zm1.684-20.828c-.715 1.374-2.23 3.135-5.303 3.135-3.074 0-5.893-2.148-8.378-2.148-2.273 0-3.83 1.546-4.42 2.706l.043.086c.8-.816 2.02-1.632 3.999-1.632 3.283 0 5.388 2.062 8.713 2.062 3.536 0 5.136-2.363 5.43-4.166l-.084-.043ZM8.76 17.235c-2.147 2.277-4.126 4.767-4.126 9.62 0 2.662.884 5.411 2.863 7.129l1.22-.645v-11.51l-1.136.601-.21-.43 5.893-3.264c-1.6-.342-3.03-1.073-4.504-1.502Zm7.282 1.675c-.295.042-.59.042-.926.042-.59 0-1.136-.042-1.683-.172v12.54l-5.515 3.052c1.136.859 2.525 1.373 4.293 1.373 1.432 0 2.694-.3 3.83-.816V18.91ZM9.98 21.1l-.8.472v11.51l.8-.429V21.101Zm24.204 1.632v14.86c0 4.122-3.578 6.914-7.577 7.73l-.084-.172c1.979-.988 3.116-3.007 3.116-5.154V24.621l-2.273-2.103-.884.987v11.982l1.262 1.16v.086l-3.41 3.78-3.914-3.651v-.173l1.515-1.632V16.075l4.462-4.851.085.042v11.51l3.662-4.037 3.83 3.522.715-.774.338.301-.843.944ZM22.398 36.775v-.086l.884-.902V15.346l-.884.944v19.067l-1.347 1.375v.086l3.283 3.006.59-.688-2.526-2.36Zm8.588-12.84-2.735-2.406-.59.644 2.442 2.235v15.46c0 1.03-.21 2.104-.59 2.706l.043.043c1.052-.774 1.431-1.934 1.431-3.436V23.934Zm9.892 7.43v2.189l4.083 3.264 2.358-2.576.337.342-5.472 5.97-5.557-4.552-.841.902-.337-.343.968-1.031V24.664l7.956-5.926 4.167 6.871-7.662 5.755Zm-3.115 3.78v-10.91l-.884.645v10.694l5.22 4.337.674-.73-5.01-4.037Zm3.2-13.23-.085.044v8.804l3.746-2.791-3.661-6.056Zm1.094-.858-.758.558 3.705 6.056.758-.559-3.705-6.055ZM75.979 40.51l-5.852-5.153-4.461 5.154-6.063-5.326v-8.418h-1.178c-1.053 0-1.6.688-1.852 1.504h-.127a6.953 6.953 0 0 1-.21-1.632c0-1.117.295-4.037 3.367-4.037v-7.387c0-1.417-1.641-1.975-1.641-3.865 0-2.447 2.272-4.852 6.44-6.357l.17.129c-1.516.903-2.316 1.761-2.316 3.608 0 2.835 2.694 2.104 2.694 6.57v1.718l4.926-5.282 5.177 5.197 4.883-5.197 4.714 4.724v15.89l-8.671 8.16ZM60.95 34.5v-9.061h-2.358c-1.22 0-1.767.815-1.852 1.546l.042.044c.421-.473.842-.73 1.81-.73h1.473v8.674l5.557 4.897.63-.774-5.302-4.596Zm0-19.713c0-1.76-1.515-2.362-1.515-3.478 0-1.546.589-2.834 1.515-4.036l-.084-.043c-1.263.988-2.441 2.577-2.441 4.122 0 1.547 1.641 2.276 1.641 3.651v7.602h.884v-7.818Zm8.882 4.295-3.199-3.178-1.684 1.761v15.203l3.83 3.307 1.053-1.203V19.08Zm1.347 15.333V18.481l-3.578-3.607-.674.687 3.368 3.306v16.02l5.683 5.024.674-.645-5.473-4.852Zm8.166-15.89-2.651-2.578-1.515 1.59v15.29l4.125 3.692.041-.043V18.523v.002Zm1.347-.601-3.073-3.05-.63.688 2.82 2.748v17.952l.883-.86v-17.48.002ZM98.58 40.51l-4-3.693-3.578 3.694-4.377-3.951-.59.643-.337-.343.758-.816V24.536l7.914-5.841 4.546 3.608.8-.859.337.344-.926.987v11.897l2.231 2.103.716-.773.336.3-3.83 4.21Zm-10.777-4.766V24.15l-.883.643v11.381l4.041 3.694.673-.687-3.83-3.436Zm6.778-11.295-3.452-2.749-.127.087v12.497l2.863 2.533.715-.73V24.45v.001Zm1.347 11.681V23.806l-3.578-2.964-.841.601 3.535 2.835V36.56l3.536 3.264.632-.688-3.284-3.006Zm14.901-9.62h4.336v9.191l-6.693 4.81c-.884-1.03-2.148-1.76-3.705-1.76-1.263 0-2.273.429-3.619 1.588l-.211-.085 5.725-8.504h-3.536v-7.989l7.03-4.981c.841.687 1.472 1.073 2.568 1.073.842 0 2.062-.172 2.989-.944l.168.085-5.052 7.516Zm-4.714 10.994c-1.221 0-2.189.43-3.031 1.031v.086c.673-.3 1.347-.386 1.978-.386.968 0 2.484.473 3.494 1.675l.969-.73c-.801-.946-1.768-1.676-3.41-1.676Zm4.503-7.215h-2.357l-4.925 7.259.042.086c1.221-.903 2.399-1.503 3.83-1.503 1.263 0 2.568.601 3.368 1.632l.043-.043-.001-7.431Zm-6.146 0v-6.913l-.883.644v7.214h3.409l.674-.944h-3.199l-.001-.001Zm8.799-8.417c-.884.645-1.39.987-2.863.987-.842 0-1.852-.385-2.651-1.245l-.085.044v6.269h1.6l4.041-6.012-.043-.044h.001Zm-2.021-.387c-.757 0-1.725-.386-2.358-1.244l-1.052.729c.801.988 1.558 1.417 2.736 1.417.757 0 1.852-.215 2.989-1.203l.042-.128c-.715.301-1.599.43-2.357.43Zm.715 7.388h-2.736l-.631.901h2.484v8.332l.884-.645v-8.589l-.001.001Zm17.722-6.142v14.86c0 4.122-3.578 6.914-7.577 7.73l-.084-.172c1.979-.988 3.116-3.007 3.116-5.154V24.621l-2.273-2.103-.885.987v11.982l1.263 1.16v.086l-3.409 3.78-3.915-3.651v-.173l1.515-1.632V16.075l4.463-4.852.083.042v11.51l3.663-4.036 3.83 3.522.716-.774.337.301-.843.944Zm-11.786 14.043v-.086l.884-.902V15.346l-.884.944v19.067l-1.347 1.375v.086l3.283 3.006.589-.688-2.525-2.36Zm8.587-12.84-2.736-2.406-.589.644 2.441 2.235v15.46c0 1.03-.21 2.104-.589 2.706l.043.043c1.052-.774 1.431-1.934 1.431-3.436l-.001-15.247Zm10.861 16.576-3.62-3.392-.843.902-.337-.345.969-1.073v-12.41l-1.768-1.718-.674.773-.337-.344 3.788-4.21 3.368 3.094.842-.945.379.3-1.052 1.16v12.541l2.021 1.932.926-.988.336.344-3.998 4.38Zm-2.484-4.208V23.505l-2.189-2.062-.589.688 1.894 1.847v12.755l3.368 3.091.631-.687-3.115-2.834Zm1.263-17.95-3.452-3.222 3.157-3.435 3.452 3.22-3.157 3.435v.001Zm-2.147-3.91-.631.645 2.736 2.62.631-.73-2.736-2.535Zm21.167 26.069-3.663-3.393v-12.54l-2.231-2.061-1.179 1.288v11.595l1.306 1.245v.172l-3.452 3.694-3.915-3.65v-.13l1.515-1.632V24.278l-1.978-1.847-.8.902-.336-.344 3.83-4.251 3.831 3.48v.858l3.999-4.338 3.745 3.435.843-.901.379.343-1.011 1.074V34.97l1.894 1.804.927-1.031.336.343-4.04 4.424Zm-11.113-3.737v-.086c0 .086.842-.858.842-.858V23.633l-2.4-2.233-.589.644 2.104 1.975v11.338l-1.305 1.375v.086l3.242 3.006.673-.73-2.567-2.319Zm8.797-.343V23.849l-2.609-2.406-.674.73 2.399 2.19v12.498l3.157 3.006.674-.73-2.947-2.705Zm14.186 11.81c-1.388-1.546-2.357-2.19-3.662-2.19-1.388 0-2.988.558-4.63 1.46l-.126-.129 5.809-6.87-4.126-3.35-.799.858-.336-.3.924-1.03V24.536l7.999-5.841 4.462 3.608.757-.86.338.344-.884.988v14.689c0 2.232 1.22 2.147 1.22 3.821 0 1.932-2.737 3.735-6.946 6.956Zm-5.598-11.896V24.193l-.884.644v11.896l4.167 3.436.632-.774-3.915-3.05Zm2.947 8.589c-1.389 0-2.653.43-3.831 1.245v.087c.758-.3 1.6-.687 3.03-.687 1.306 0 2.4.729 3.495 2.018l.842-.687c-1.053-1.245-2.316-1.976-3.536-1.976Zm5.135-4.123c-1.052-.687-1.305-1.417-1.305-3.264v-.773l-6.988 8.245.043.043c1.346-.815 2.567-1.417 4.546-1.417 1.684 0 2.82.687 4.125 1.804.8-.687 1.347-1.374 1.347-2.448 0-.859-.716-1.503-1.768-2.19Zm-1.305-16.362-3.494-2.791-.085.086v13.184l2.695 2.147.884-1.03V24.45Zm2.568 15.76c-1.095-.858-1.221-1.588-1.221-3.435V23.72l-3.536-2.92-.799.558 3.451 2.79v13.229c0 1.846.085 2.362 1.221 3.134 1.01.688 1.809 1.418 1.809 2.405 0 .257-.041.688-.041.688l.041.042c.211-.215.464-.558.464-1.117 0-.944-.463-1.588-1.389-2.318Zm10.103.301-3.874-3.092-.799.902-.336-.344.925-1.03v-15.03h-2.442l-.084-.087 1.474-2.234h1.052v-2.877l4.462-4.852.084.086v7.644h3.368l.085.086-1.474 2.233h-1.98V34.93l2.317 1.805.884-.989.336.344-3.998 4.422Zm-2.737-24.522-.884.988v2.62h.884V15.99Zm0 20.529V21.916h-.884v15.117l3.579 2.835.631-.687-3.326-2.663Zm20.5-13.357v12.025l-7.114 5.368-5.347-4.122-.631.73-.336-.344.757-.859V24.193l7.452-5.455 4.967 3.951.799-.858.337.342-.884.988ZM187.308 35.53V23.806l-.884.644v11.552l5.051 3.951.801-.6-4.967-3.823h-.001Zm6.777-10.95-3.536-2.836-.041.044v12.796l3.577 2.749V24.579Zm1.348-.774-3.916-3.093-.799.601 3.831 3.007v13.356l.884-.686V23.806Zm19.279 16.705-3.663-3.392v-12.54l-2.231-2.061-1.179 1.288v11.595l1.306 1.245v.172l-3.452 3.694-3.915-3.65v-.13l1.515-1.632V24.278l-1.978-1.847-.8.902-.336-.344 3.83-4.251 3.831 3.48v.858l3.999-4.338 3.746 3.435.842-.901.379.343-1.011 1.074V34.97l1.894 1.804.927-1.031.336.343-4.04 4.424Zm-11.114-3.736v-.086c0 .086.842-.858.842-.858V23.633l-2.399-2.233-.589.644 2.105 1.975v11.338l-1.305 1.375v.086l3.242 3.006.673-.73-2.569-2.319Zm8.798-.343V23.849l-2.609-2.406-.674.73 2.399 2.19v12.498l3.157 3.006.674-.73-2.947-2.705Zm28.321 4.08c-1.179-1.289-1.6-1.718-2.99-2.105v8.417l-.084.043-1.684-1.546-4.883 4.595-.084-.043V38.321c-1.474.344-3.031 1.117-4.547 2.662l-.084-.042c.295-3.307 1.894-5.755 4.63-6.7v-8.374h-.884c-1.22 0-1.894.644-2.483 1.803h-.126c-.126-.385-.211-.987-.211-1.974 0-1.805 1.305-3.694 3.452-3.694h.252v-4.638l-1.726-1.59-.841.86-.296-.301 4.253-4.595 3.956 3.693v3.909l.926-1.032V13.37h.463v4.509l5.598-6.142 4.756 4.424v18.682l-7.363 5.668Zm-9.724-3.78c-1.725.343-2.946 1.418-3.746 2.835l.042.086c1.179-1.031 2.272-1.503 3.704-1.847v-1.074Zm1.347-12.325h-2.315c-1.6 0-2.231 1.03-2.272 2.233l.041.043c.505-.859 1.01-1.16 2.02-1.288h1.642V48.8l.884-.858V24.407Zm0-7.73-2.105-1.975-.673.73 1.894 1.717v4.853h.884v-5.326Zm4.926 2.447-.926.988v24.866l.926.86V19.123Zm5.514-.987-2.484-2.32-2.568 2.836v15.116c2.189.216 3.704.86 5.01 2.32l.042-.044V18.137Zm-5.052 18.595v1.117c1.432.344 2.02.773 3.03 1.975l.969-.773c-1.01-1.288-2.021-2.06-3.999-2.319Zm6.398-19.282-2.862-2.706-.674.73 2.652 2.49v19.97l.884-.686V17.45Zm18.648 5.712v12.024l-7.115 5.368-5.345-4.122-.632.73-.337-.344.758-.859V24.193l7.451-5.455 4.967 3.951.799-.858.337.342-.883.989ZM251.451 35.53V23.806l-.884.644v11.552l5.051 3.951.8-.6-4.967-3.823Zm6.777-10.95-3.536-2.836-.043.044v12.796l3.579 2.749V24.579Zm1.347-.774-3.915-3.093-.799.601 3.83 3.007v13.356l.884-.686V23.806Zm12.964 2.705h4.336v9.191l-6.692 4.81c-.884-1.03-2.147-1.76-3.704-1.76-1.263 0-2.273.429-3.62 1.588l-.211-.085 5.725-8.504h-3.536v-7.989l7.03-4.981c.842.687 1.472 1.073 2.567 1.073.843 0 2.063-.172 2.989-.944l.169.085-5.053 7.516Zm-4.714 10.994c-1.22 0-2.189.43-3.03 1.031v.086c.673-.3 1.347-.386 1.978-.386.969 0 2.484.473 3.493 1.675l.97-.73c-.8-.946-1.769-1.676-3.411-1.676Zm4.505-7.215h-2.357l-4.925 7.259.042.086c1.22-.903 2.399-1.503 3.83-1.503 1.263 0 2.568.601 3.367 1.632l.043-.043V30.29Zm-6.146 0v-6.913l-.884.644v7.214h3.409l.673-.944h-3.198v-.001Zm8.798-8.417c-.885.645-1.39.987-2.863.987-.843 0-1.853-.385-2.652-1.245l-.085.044v6.269h1.599l4.041-6.012-.04-.044Zm-2.021-.387c-.758 0-1.725-.386-2.357-1.244l-1.053.729c.801.988 1.558 1.417 2.737 1.417.758 0 1.852-.215 2.989-1.203l.041-.128c-.715.301-1.599.43-2.357.43Zm.716 7.388h-2.736l-.632.901h2.484v8.332l.884-.645v-8.588Zm10.187 11.637-3.873-3.092-.8.902-.336-.344.925-1.03v-15.03h-2.441l-.084-.087 1.472-2.234h1.053v-2.877l4.462-4.852.084.086v7.644h3.368l.084.086-1.474 2.233h-1.978V34.93l2.316 1.805.884-.989.336.344-3.998 4.422Zm-2.737-24.522-.883.988v2.62h.884V15.99h-.001Zm0 20.529V21.916h-.883v15.117l3.577 2.835.632-.687-3.325-2.663h-.001Z" fill="#111"/></svg>