<svg width="260" height="35" viewBox="0 0 260 35" fill="none" xmlns="http://www.w3.org/2000/svg">
<path d="M20.5886 3.59795C20.5886 0.769948 17.8755 -0.0840521 15.6005 0.0139479V0.265948C16.957 0.363948 18.0027 0.909948 18.0027 1.81995C18.0027 2.44995 17.5505 3.23395 16.194 3.23395C15.1201 3.23395 13.3396 2.60395 11.6722 2.05795C9.83529 1.42795 8.08312 0.839948 6.62768 0.839948C3.77334 0.839948 1.61138 2.93995 1.61138 5.54395C1.61138 7.64395 3.25051 8.37195 3.91464 8.63795L3.95703 8.53995C3.53312 8.25995 3.26464 7.95195 3.26464 7.05595C3.26464 6.29995 3.81573 5.29195 5.28529 5.29195C6.61355 5.29195 8.3516 5.87995 10.6549 6.52395C12.6331 7.06995 14.7668 7.58795 15.9538 7.74195V12.3339L13.7212 14.1539L15.9538 16.0579V22.3439C14.8092 22.9879 13.4809 23.1979 12.3364 23.1979C10.2168 23.1979 8.26681 22.6099 6.65594 20.8459L12.6755 17.9479V8.02195L5.32768 11.2699C6.09073 9.33795 7.5179 7.89595 9.08638 6.95795L9.04399 6.84595C4.67768 8.02195 0.707031 11.9839 0.707031 16.8839C0.707031 22.7499 5.44073 27.1039 10.9092 27.1039C16.8299 27.1039 20.3059 22.5119 20.2494 17.6539H20.1364C19.2744 19.5159 17.8331 21.2799 16.2081 22.2039V16.0719L18.5396 14.2099L16.2081 12.3479V7.75595C18.3701 7.75595 20.6027 6.34195 20.6027 3.61195M8.19616 19.7819L6.48638 20.6359C5.44073 19.2919 4.74834 17.3879 4.74834 14.9379C4.74834 13.9299 4.86138 12.5579 5.20051 11.5919L8.22442 10.2479L8.18203 19.7679L8.19616 19.7819ZM35.7081 11.7179L34.5635 12.6139L31.0733 9.53395L27.032 12.6279V0.671948L21.5353 4.43795C22.1712 4.64795 22.9342 4.98395 22.9342 6.43995V22.9739L21.0549 24.3879L21.2244 24.5559L22.1712 23.9119L25.4494 26.8799L29.844 23.9819L29.7027 23.7719L28.5864 24.4999L27.0603 22.9879V13.0199L28.1059 12.2639L30.5081 14.3359V23.0019C30.5081 28.4899 29.2788 29.6239 26.7918 30.5199V30.6599C30.932 30.8279 34.6625 29.4419 34.6625 22.4139V12.9639L35.9059 11.9559L35.7364 11.7459L35.7081 11.7179ZM43.0842 26.8379L49.457 21.7699L49.2875 21.5319L45.9527 24.1499L42.1233 21.1539V19.2919L48.7364 14.6719L45.4016 9.53395L38.0538 13.5379V23.0579L36.6266 24.1639L36.7962 24.3739L38.1527 23.3099L43.0983 26.8659H43.0842V26.8379ZM42.1092 18.8999V11.6899L45.3168 16.6599L42.1092 18.8999ZM75.8103 2.25395C75.8103 1.80595 75.6972 1.42795 75.5277 0.909948H75.4288C74.9766 2.12795 74.482 2.77195 73.0549 2.77195C71.8114 2.77195 70.8222 2.01595 70.2994 1.45595C70.2994 1.49795 66.1168 6.24395 66.1168 6.24395L66.3288 6.41195L67.5157 5.06795C68.4201 5.75395 69.2255 6.55195 71.232 6.57995V18.6759L62.669 3.97595C62.0049 2.86995 60.8603 1.21795 58.9103 1.21795C56.607 1.21795 54.869 3.17795 55.1516 6.49595H55.2929C55.4625 5.66995 55.957 4.63395 56.9603 4.63395C57.7657 4.63395 58.4157 5.38995 58.7972 6.07595V10.8079C56.1549 10.8079 54.657 12.0259 54.657 14.0839C54.657 14.9379 55.2929 16.7999 57.0875 17.1219V17.0239C56.8472 16.7859 56.607 16.5759 56.607 16.0859C56.607 15.2879 57.2005 14.8539 58.2744 14.8539C58.444 14.8539 58.6983 14.8959 58.7972 14.9239V21.0559C55.6885 21.0979 53.3005 22.7779 53.3005 25.6899C53.3005 28.6019 55.7027 29.7219 58.2038 29.5819V29.4839C56.6353 29.3159 55.8298 28.5179 55.8298 27.3839C55.8298 26.1519 56.7342 25.4799 57.8788 25.4799C59.0233 25.4799 59.8994 26.2079 60.6342 27.0339L64.8168 22.3719L64.6472 22.2039L63.5733 23.4219C61.9625 22.0079 60.9309 21.3499 59.0799 21.0699V6.53795L70.8929 26.9359H71.5288V6.60795C73.7896 6.46795 75.8103 4.78795 75.8103 2.25395ZM79.7809 26.8099L86.1538 21.7419L85.9842 21.5039L82.6494 24.1219L78.8201 21.1259V19.2639L85.4331 14.6439L82.0983 9.50595L74.7505 13.5099V23.0299L73.3233 24.1359L73.4929 24.3459L74.8494 23.2819L79.7951 26.8379L79.7809 26.8099ZM78.8059 18.8719V11.6619L82.0135 16.6319L78.8059 18.8719ZM108.791 11.1439L107.816 11.8719L105.032 9.51995L101.796 12.4179L103.124 13.6499V24.4579L99.8179 22.2179V13.4539L100.962 12.6559L97.557 9.51995L94.3918 12.4179L95.7201 13.6499V24.0939L95.5081 24.2339L92.3994 21.9939V13.4119C92.3994 11.4099 91.382 10.8219 90.0962 10.0379C89.0222 9.37995 88.457 8.76395 88.457 7.75595C88.457 6.64995 89.432 6.20195 89.7429 6.03395C88.6266 5.99195 85.532 7.09795 85.4614 9.89795C85.419 11.3399 86.1255 11.9699 86.8603 12.6559C87.5951 13.3419 88.2875 13.9999 88.2875 15.2179V23.6319L86.7896 24.8079L86.9592 24.9759L88.3864 23.8699L92.1027 26.8659L95.6494 24.4159L99.5494 26.8659L107.208 22.3859V12.6559L108.918 11.3399L108.777 11.1299L108.791 11.1439ZM134.437 2.96795L132.982 4.28395L129.704 1.45595L125.281 4.96995V1.66595H125.012V25.3679C124.532 25.2979 123.515 25.0179 122.398 24.8499V5.01195C122.398 3.56995 121.353 1.55395 118.739 1.55395C116.124 1.55395 114.485 3.73795 114.485 5.62795H114.598C114.74 4.77395 115.333 4.00395 116.195 4.00395C117.057 4.00395 117.862 4.54995 117.862 6.49595V12.1519C115.39 12.2499 113.892 13.7759 113.892 15.4279C113.892 16.3659 114.485 18.1159 116.365 18.1859V18.0459C115.729 17.7799 115.602 17.4579 115.602 17.1079C115.602 16.2819 116.407 16.0019 117.523 16.0019H117.792V25.1159C115.672 25.8439 114.683 27.2579 114.683 29.0079C114.683 31.4159 116.633 33.2779 119.487 33.2779C121.508 33.2779 122.935 32.9279 124.786 32.5219C126.284 32.2139 127.909 31.8639 128.785 31.8639C129.902 31.8639 130.396 32.3539 130.396 33.1379C130.396 34.1459 130.015 34.6499 129.421 34.8319V34.9719C131.823 34.5239 133.222 33.1519 133.222 31.0099C133.222 28.8679 131.103 27.4539 128.729 27.4539C127.499 27.4539 125.281 27.8319 123.472 28.2519C121.452 28.6999 119.714 28.9099 119.078 28.9099C118.06 28.9099 116.817 28.4619 116.817 27.1179C116.817 25.8999 117.834 24.9339 120.335 24.9339C121.692 24.9339 123.02 25.1439 124.687 25.5219C126.468 25.8999 127.683 26.4179 129.209 26.4179C131.329 26.4179 133.039 25.6619 133.039 22.5819V4.60595L134.607 3.19195L134.437 2.98195V2.96795ZM128.446 12.4599C128.065 12.8799 127.612 13.2159 126.878 13.2159C126.072 13.2159 125.648 12.7959 125.267 12.4599V5.33395L126.312 4.50795L128.432 6.29995V12.4739L128.446 12.4599ZM128.446 15.8339C128.093 15.4839 127.641 15.1759 126.878 15.1759C126.115 15.1759 125.592 15.5539 125.267 15.8339V12.7959C125.578 13.0619 126.101 13.4819 126.878 13.4819C127.655 13.4819 128.107 13.1319 128.446 12.7959V15.8339ZM128.446 22.9739C128.446 24.1499 127.853 25.4659 126.327 25.4659C126.086 25.4659 125.521 25.4239 125.281 25.3959V16.1839C125.634 15.8759 126.086 15.4559 126.892 15.4559C127.627 15.4559 128.036 15.8059 128.46 16.1839V22.9879L128.446 22.9739ZM140.853 26.8099L147.96 22.4279V12.8379L143.368 9.49195L136.26 13.5239V23.0159L134.861 24.1219L135.003 24.3319L136.147 23.3939L140.853 26.8099ZM140.33 21.8399V11.6199L143.877 14.2379V24.4579L140.33 21.8399ZM161.54 9.72995C160.989 10.1079 160.494 10.3179 159.971 10.3179C159.42 10.3179 158.728 9.96795 158.36 9.51995C158.36 9.56195 155.718 12.3479 155.718 12.3479L153.076 9.51995L148.766 12.4879L148.907 12.7259L150.052 11.9699L151.62 13.6639V22.9459L149.741 24.3599L149.91 24.5279L150.857 23.8839L154.376 26.8519L158.827 23.9259L158.685 23.7159L157.541 24.4019L155.732 22.7779V12.5859C156.467 13.3839 157.3 14.0699 158.304 14.0699C160.112 14.0699 161.328 11.9279 161.54 9.71595M178.327 23.4499L176.998 24.2759L169.65 13.4119L170.032 12.8939C170.837 13.3699 171.558 14.0279 173.098 14.0279C174.639 14.0279 176.589 12.4319 176.758 9.50595C176.377 10.0239 175.614 10.6399 174.356 10.6399C173.452 10.6399 172.547 10.0519 171.996 9.50595L166.98 16.8139L173.635 26.8519L178.468 23.6739L178.327 23.4359V23.4499ZM169.41 23.7159L168.294 24.4439L166.768 22.9319V0.671948L161.271 4.43795C161.907 4.64795 162.67 4.98395 162.67 6.43995V22.9739L160.791 24.3879L160.96 24.5559L161.907 23.9119L165.185 26.8799L169.58 23.9819L169.439 23.7719L169.41 23.7159ZM201.755 3.56995C201.755 0.741948 199.042 -0.112052 196.767 -0.0140521V0.265948C198.123 0.363948 199.169 0.909948 199.169 1.81995C199.169 2.44995 198.717 3.23395 197.36 3.23395C196.286 3.23395 194.506 2.60395 192.839 2.05795C191.002 1.42795 189.249 0.839948 187.794 0.839948C184.94 0.839948 182.778 2.93995 182.778 5.52995C182.778 7.62995 184.417 8.35795 185.081 8.62395L185.123 8.52595C184.699 8.24595 184.431 7.93795 184.431 7.04195C184.431 6.28595 184.982 5.27795 186.452 5.27795C187.78 5.27795 189.518 5.86595 191.821 6.50995C193.799 7.05595 195.933 7.57395 197.12 7.72795V12.3199L194.887 14.1399L197.12 16.0439V22.3299C195.975 22.9739 194.647 23.1839 193.503 23.1839C191.383 23.1839 189.419 22.5959 187.822 20.8319L193.842 17.9339V8.02195L186.494 11.2699C187.257 9.33795 188.684 7.89595 190.253 6.95795L190.21 6.84595C185.858 8.02195 181.887 11.9839 181.887 16.8839C181.887 22.7499 186.621 27.1039 192.09 27.1039C198.01 27.1039 201.486 22.5119 201.43 17.6539H201.331C200.469 19.5159 199.028 21.2799 197.403 22.2039V16.0719L199.734 14.2099L197.403 12.3479V7.75595C199.565 7.75595 201.797 6.34195 201.797 3.61195M189.391 19.7959L187.681 20.6499C186.635 19.3059 185.943 17.4019 185.943 14.9519C185.943 13.9439 186.042 12.5719 186.395 11.6059L189.419 10.2619L189.377 19.7819L189.391 19.7959ZM206.248 2.56195L203.182 5.10995L205.796 8.03595L208.862 5.48795L206.248 2.56195ZM210.911 23.7719L209.795 24.4999L208.269 22.9879V12.9499L209.555 11.9419L209.385 11.7319L208.311 12.5579L205.768 9.56195L201.585 12.4599L201.727 12.6979L202.772 12.0119L204.171 13.7339V22.9879L202.292 24.4019L202.461 24.5699L203.408 23.9259L206.686 26.8939L211.081 23.9959L210.94 23.7859L210.911 23.7719ZM234.41 23.6319L233.365 24.3179L231.725 22.7639V12.9219L233.054 11.9139L232.884 11.7039L231.697 12.5999L228.207 9.51995L224.279 12.5579L220.831 9.51995L216.959 12.5159L214.345 9.51995L210.162 12.4179L210.304 12.6559L211.349 11.9699L212.847 13.6639V22.9179L211.703 24.0519L215.037 26.8519L218.273 23.9539L216.945 22.7219V12.8659L217.807 12.2359L220.209 14.3079V22.9319L219.093 24.0659L222.47 26.8659L225.635 23.9679L224.307 22.7359V12.8799L225.141 12.2219L227.571 14.3219V22.8059L226.596 23.8139L230.002 26.8939L234.495 23.8559L234.354 23.6459H234.382L234.41 23.6319ZM246.562 21.5319L243.228 24.1499L239.398 21.1539V19.2919L246.011 14.6719L242.677 9.53395L235.329 13.5379V23.2399L240.373 26.8659L246.746 21.7979L246.577 21.5599L246.562 21.5319ZM239.384 18.8999V11.6899L242.592 16.6599L239.384 18.8999ZM259.336 17.5419L256.51 15.3999C258.39 13.7759 259.054 11.7179 259.054 10.2339C259.054 10.0239 259.011 9.64595 258.983 9.29595H258.87C258.602 10.0519 257.853 10.7099 256.708 10.7099C255.564 10.7099 254.928 10.0799 254.235 9.32395L247.764 12.8799V18.0879L250.236 20.0199C247.764 22.1899 247.283 23.5339 247.283 24.7799C247.283 26.0259 248.018 27.1179 249.275 27.6079L249.374 27.4399C249.064 27.1739 248.781 26.9919 248.781 26.3339C248.781 25.8579 249.275 25.1019 250.392 25.1019C251.819 25.1019 252.695 26.0679 253.147 26.5859C253.147 26.5439 259.336 22.8199 259.336 22.8199V17.5419ZM257.881 13.2719C256.906 14.9939 254.758 16.6879 253.486 17.6539L251.918 16.3379V11.2699C252.554 12.6559 253.84 13.8179 255.507 13.8179C256.482 13.8179 257.118 13.6499 257.867 13.2719M255.182 24.6539C254.447 23.0299 252.879 21.8539 251.141 21.8539C250.717 21.8539 249.431 21.8119 248.315 22.4979C248.979 21.3919 250.957 19.4039 253.472 17.9059L255.182 19.3199V24.6399V24.6539Z" fill="#434035"/>
</svg>
