<svg width="158" height="53" viewBox="0 0 158 53" fill="none" xmlns="http://www.w3.org/2000/svg">
<g clip-path="url(#clip0_324_3691)">
<path d="M0 39.1131C0 28.7781 6.84667 25.1211 14.378 25.1211C17.5907 25.1211 20.698 25.6511 22.3307 26.3401L22.4887 33.5481H21.7513L17.38 26.6051C16.59 26.2341 15.9053 26.1281 14.536 26.1281C10.5333 26.1281 8.47933 30.7921 8.532 38.4771C8.58467 47.6461 10.1647 51.7801 13.904 51.7801C14.852 51.7801 15.5893 51.6741 16.116 51.4091V41.6041L13.6407 40.1731V39.3781H25.4907V40.2791L23.068 41.6041V51.3031C20.1943 52.3324 17.165 52.8524 14.1147 52.8401C5.53 52.8401 0 48.7591 0 39.1131Z" fill="#434035"/>
<path d="M75.2066 32.2773L75.8386 32.3303V38.1603H75.9966C76.8392 33.9203 78.7352 32.3303 80.9999 32.3303C81.3686 32.3303 81.7899 32.3303 82.0006 32.4363V38.3723C81.6319 38.2663 80.9472 38.2663 80.3679 38.2663C78.5772 38.2663 77.2079 38.5843 76.0492 39.1143V50.6153L77.8399 51.6223V52.3643H67.5699V51.6223L69.4132 50.5623V34.9803L67.2539 34.3443V33.8143L75.1539 32.3303L75.2066 32.2773Z" fill="#434035"/>
<path d="M58.0374 40.8103V38.2133C58.0374 34.2913 57.1947 32.9663 54.772 32.9663L53.9294 33.0723L49.6107 38.9023H49.0314V33.5493C50.8747 32.9663 53.192 32.2773 56.2467 32.2773C61.5134 32.2773 64.568 33.7613 64.568 38.1603V50.8803L66.464 51.4103V51.9403C65.7267 52.3643 64.252 52.7883 62.6194 52.7883C59.986 52.7883 58.7747 51.9403 58.1954 50.5093H57.9847C56.9314 51.9933 55.3514 52.8413 52.876 52.8413C49.716 52.8413 47.6094 50.8803 47.6094 47.5413C47.6094 44.2023 49.6107 42.4003 53.7187 41.6053L57.9847 40.7573L58.0374 40.8103ZM58.0374 49.6083V41.7643L56.7207 41.8703C54.614 42.0293 53.9294 43.3543 53.9294 46.2693C53.9294 49.4493 54.9827 50.2973 56.4047 50.2973C57.1947 50.2973 57.6687 50.0323 58.0374 49.6083Z" fill="#434035"/>
<path d="M25.0156 34.2913V33.7083L32.9156 32.2773L33.811 32.3833V48.0713C33.811 49.9793 34.7063 50.5623 36.2336 50.5623C37.2343 50.5623 38.1296 50.1913 38.8143 49.3433V35.2453L36.655 34.2913V33.7083L44.555 32.2773L45.3976 32.3303V50.3503L47.5043 51.2513V51.7813L39.657 52.7883L38.867 52.7353V50.3503H38.6563C37.0543 51.9042 34.9294 52.7935 32.705 52.8413C28.913 52.8413 27.175 50.6153 27.175 47.1703V35.2453L25.0156 34.2913Z" fill="#434035"/>
<path d="M137.724 50.615V34.98L135.512 34.238V33.443L143.412 32.012H144.202V34.45H144.465C146.15 32.913 148.678 31.959 151.206 31.959C154.63 31.959 156.157 33.549 156.157 37.259V50.562L158 51.622V52.364H147.73V51.622L149.574 50.562V37.63C149.574 35.616 148.678 34.821 147.046 34.821C145.992 34.821 145.15 35.086 144.36 35.669V50.668L146.15 51.675V52.417H135.828V51.675L137.724 50.615Z" fill="#434035"/>
<path d="M112.706 32.2233L113.444 32.3293V50.6143L115.234 51.6213V52.3633H104.964V51.6213L106.808 50.5613V35.1913L104.596 34.3433V33.7073L112.759 32.2233H112.706ZM113.496 27.2943C113.496 29.2553 111.864 30.6863 109.968 30.6863C109.516 30.7005 109.067 30.6233 108.645 30.4592C108.224 30.2951 107.84 30.0475 107.516 29.7311C107.192 29.4147 106.934 29.036 106.758 28.6174C106.582 28.1988 106.491 27.7488 106.492 27.2943C106.492 25.3863 108.019 23.9023 109.968 23.9023C111.864 23.9023 113.496 25.3863 113.496 27.2943Z" fill="#434035"/>
<path d="M126.295 40.8103V38.2133C126.295 34.2913 125.4 32.9663 123.03 32.9663L122.187 33.0723L117.869 38.9023H117.289V33.5493C119.133 32.9663 121.45 32.2773 124.505 32.2773C129.771 32.2773 132.826 33.7613 132.826 38.1603V50.8803L134.722 51.4103V51.9403C133.985 52.3643 132.51 52.7883 130.825 52.7883C128.191 52.7883 126.98 51.9403 126.401 50.5093H126.243C125.189 51.9933 123.609 52.8413 121.134 52.8413C117.974 52.8413 115.867 50.8803 115.867 47.5413C115.867 44.2023 117.869 42.4533 122.029 41.6583L126.243 40.8103H126.295ZM126.295 49.6083V41.7643L124.979 41.8703C122.872 42.0293 122.135 43.3543 122.135 46.2693C122.135 49.4493 123.188 50.2973 124.663 50.2973C125.453 50.2973 125.927 50.0323 126.243 49.6083H126.295Z" fill="#434035"/>
<path d="M95.1147 32.7533V26.6053L92.9553 25.8633V25.3333L100.961 23.9023L101.751 24.0083V50.3493L103.963 51.1443V51.8333L96.0627 52.8933L95.4307 52.7873V50.6673H95.22C94.5402 51.3777 93.7208 51.9378 92.814 52.3119C91.9073 52.686 90.933 52.866 89.9533 52.8403C85.6873 52.8403 82.5273 49.5543 82.5273 42.7703C82.5273 35.6153 86.214 32.1703 91.744 32.1703C93.324 32.1703 94.5353 32.4353 95.1147 32.7533ZM95.1147 49.6073V33.9193C94.588 33.6013 94.2193 33.1773 92.9027 33.2303C90.796 33.3363 89.4267 36.5693 89.4267 42.3463C89.4267 47.5403 90.4273 50.4553 93.2713 50.3493C94.0613 50.3493 94.6933 50.0313 95.1147 49.6603V49.6073Z" fill="#434035"/>
<path d="M35.8649 28.9385L38.6035 27.5075V6.09552H36.4969L31.5989 12.7735H31.0195L31.3355 5.35352H53.0869L53.4029 12.7735H52.6655L47.8202 6.09552H45.7135V27.4545L48.4522 28.8855V29.6805H35.8649V28.9915V28.9385Z" fill="#434035"/>
<path d="M55.511 27.9838V4.23984L53.4043 3.39184V2.96784L61.041 1.58984H61.831V12.8258L62.0416 12.6138C63.727 11.1298 66.1496 10.2288 68.5723 10.2288C71.8903 10.2288 73.365 12.0838 73.365 15.6348V27.9838L75.1556 28.9378V29.6798H65.2016V28.9378L66.9923 27.9838V15.5818C66.9923 13.6208 66.1496 12.8788 64.5696 12.8788C63.6221 12.8554 62.6943 13.1541 61.9363 13.7268V28.0368L63.6743 28.9908V29.6798H53.6676V28.9908L55.511 27.9308V27.9838Z" fill="#434035"/>
<path d="M80.9491 20.6699C81.1598 24.5919 82.8978 27.6129 87.0584 27.6129C89.0598 27.6129 90.4818 26.7119 91.7984 26.0229V26.7649C90.7978 28.1959 88.1644 30.2099 84.5304 30.2099C78.1051 30.2099 74.7871 26.6059 74.7871 20.4049C74.7871 14.3099 78.3684 10.5469 84.2144 10.5469C89.6391 10.5469 92.4831 13.3029 92.4831 20.5109V20.6699H80.9491ZM80.8438 19.7689L86.5318 19.4509C86.5318 14.5749 85.6891 11.3419 84.0038 11.3419C82.2658 11.3419 80.8438 15.0519 80.8438 19.8219V19.7689Z" fill="#434035"/>
</g>
<defs>
<clipPath id="clip0_324_3691">
<rect width="158" height="53" fill="white"/>
</clipPath>
</defs>
</svg>
