<svg width="247" height="48" fill="none" xmlns="http://www.w3.org/2000/svg"><g clip-path="url(#a)" fill="#434035"><path fill-rule="evenodd" clip-rule="evenodd" d="m40.625 30.762-3.049 2.389-5.642-7.857c-2.633-3.667-5.695-12.385-3.092-14.255L45.63 34.414A23.895 23.895 0 0 0 48 24C48 10.745 37.255 0 24 0S0 10.745 0 24c0 3.882.928 7.546 2.565 10.79l4.224-4.697-.219-.198a4.396 4.396 0 0 1-.331-6.208l10.19-10.892a.676.676 0 1 1 1.007.904l-8.388 8.89a.962.962 0 1 0 1.432 1.286l8.168-9.085a.678.678 0 0 1 .957-.052l.235.213c.279.249.3.679.051.956l-8.169 9.086a.964.964 0 0 0 1.433 1.288l8.168-9.086a.678.678 0 0 1 .957-.052l.235.212c.278.25.301.678.052.957l-8.17 9.086a.962.962 0 1 0 1.433 1.288l8.169-9.086a.675.675 0 0 1 .955-.051c.28.249.302.677.052.955l-9.97 11.09a4.395 4.395 0 0 1-6.207.332l-.22-.198-4.762 5.297C8.122 43.627 15.549 48 24 48c8.755 0 16.414-4.691 20.606-11.695l-3.98-5.543Z"/><path d="m56.36 20 3.96-12.96h3.654L67.934 20h-2.52L61.886 8.57h.468L58.88 20h-2.52Zm2.376-2.7v-2.286h6.84V17.3h-6.84ZM69.187 20V7.04h2.448v5.976l4.932-5.976h2.988l-5.418 6.39 5.76 6.57h-3.096l-5.166-5.904V20h-2.448Zm10.71 0 3.96-12.96h3.655L91.472 20h-2.52L85.424 8.57h.468L82.418 20h-2.52Zm2.377-2.7v-2.286h6.84V17.3h-6.84Zm10.276 4.86v-4.446c.39 0 .72-.096.99-.288.276-.198.5-.474.675-.828.174-.36.312-.78.414-1.26.102-.48.177-1.002.225-1.566.06-.72.114-1.428.162-2.124.048-.702.096-1.428.144-2.178.048-.756.102-1.572.162-2.448l8.604.018v10.674h.99v4.446h-2.448V20h-7.47v2.16H92.55Zm3.654-4.446h5.274V9.326l-3.924-.018c-.042.594-.078 1.14-.108 1.638a67.882 67.882 0 0 1-.234 3.222c-.06.63-.12 1.149-.18 1.557-.06.402-.153.753-.28 1.053-.12.3-.302.612-.548.936ZM106.533 20V7.04h8.46v2.286h-6.012v2.772h4.932v2.286h-4.932v3.33h6.012V20h-8.46Zm10.257 0V7.04h2.196l4.284 8.604 4.284-8.604h2.196V20h-2.286v-7.74L123.702 20h-.864l-3.762-7.74V20h-2.286Zm25.728 0h-2.484v-8.64L134.4 20h-2.484V7.04h2.484v8.64l5.634-8.64h2.484V20Zm11.692 0h-2.448v-4.392h-3.024l-1.08-.072c-1.152-.18-1.998-.654-2.538-1.422-.54-.774-.81-1.704-.81-2.79 0-.726.117-1.383.351-1.971a3.543 3.543 0 0 1 1.098-1.476c.492-.39 1.125-.645 1.899-.765a4.09 4.09 0 0 1 .576-.054 9.28 9.28 0 0 1 .504-.018h5.472V20Zm-7.308 0h-2.772l2.808-5.76 2.52.486L146.902 20Zm4.86-6.678V9.326h-2.916c-.126 0-.264.006-.414.018-.15.012-.288.036-.414.072-.33.09-.585.243-.765.459-.18.21-.306.447-.378.711a2.979 2.979 0 0 0-.099.738c0 .234.033.483.099.747a1.9 1.9 0 0 0 .378.711c.18.21.435.36.765.45.126.036.264.06.414.072.15.012.288.018.414.018h2.916Zm7.85 6.678V7.04h10.692V20h-2.448V9.326h-5.796V20h-2.448Zm23.461 0h-2.484v-8.64L174.955 20h-2.484V7.04h2.484v8.64l5.634-8.64h2.484V20Zm5.157 0V9.326h-4.086V7.04h10.62v2.286h-4.086V20h-2.448Zm6.369 0 3.96-12.96h3.654l3.96 12.96h-2.52l-3.528-11.43h.468L197.119 20h-2.52Zm2.376-2.7v-2.286h6.84V17.3h-6.84Zm10.451 2.7V7.04h2.448v5.328h5.796V7.04h2.448V20h-2.448v-5.346h-5.796V20h-2.448Zm23.46 0h-2.484v-8.64L222.768 20h-2.484V7.04h2.484v8.64l5.634-8.64h2.484V20Zm11.692 0h-2.448v-4.392h-3.024l-1.08-.072c-1.152-.18-1.998-.654-2.538-1.422-.54-.774-.81-1.704-.81-2.79 0-.726.117-1.383.351-1.971a3.543 3.543 0 0 1 1.098-1.476c.492-.39 1.125-.645 1.899-.765a4.09 4.09 0 0 1 .576-.054 9.28 9.28 0 0 1 .504-.018h5.472V20Zm-7.308 0h-2.772l2.808-5.76 2.52.486L235.27 20Zm4.86-6.678V9.326h-2.916c-.126 0-.264.006-.414.018-.15.012-.288.036-.414.072-.33.09-.585.243-.765.459-.18.21-.306.447-.378.711a2.979 2.979 0 0 0-.099.738c0 .234.033.483.099.747a1.9 1.9 0 0 0 .378.711c.18.21.435.36.765.45.126.036.264.06.414.072.15.012.288.018.414.018h2.916ZM67.862 42h-2.484v-8.64L59.744 42H57.26V29.04h2.484v8.64l5.634-8.64h2.484V42Zm5.395 0V29.04h2.448v5.328H81.5V29.04h2.448V42H81.5v-5.346h-5.796V42h-2.448Zm14.406 0 1.8-3.636-4.427-9.324h2.772l2.933 6.75 3.043-6.75h2.61L90.273 42h-2.61Zm13.175 0V31.326h-4.086V29.04h10.62v2.286h-4.086V42h-2.448Zm7.62 0V29.04h5.472c.126 0 .294.006.504.018.216.006.408.024.576.054.774.12 1.407.375 1.899.765.498.39.864.882 1.098 1.476.234.588.351 1.245.351 1.971s-.12 1.386-.36 1.98a3.453 3.453 0 0 1-1.098 1.467c-.492.39-1.122.645-1.89.765a9.696 9.696 0 0 1-1.08.072h-3.024V42h-2.448Zm2.448-6.678h2.916c.126 0 .264-.006.414-.018.15-.012.288-.036.414-.072.33-.09.585-.24.765-.45.18-.216.303-.453.369-.711.072-.264.108-.513.108-.747 0-.234-.036-.48-.108-.738a1.72 1.72 0 0 0-.369-.711c-.18-.216-.435-.369-.765-.459a2.123 2.123 0 0 0-.414-.072 5.221 5.221 0 0 0-.414-.018h-2.916v3.996ZM130.407 42h-2.484v-8.64L122.289 42h-2.484V29.04h2.484v8.64l5.634-8.64h2.484V42Zm11.961 2.16V42h-9.81V29.04h2.448v10.8h5.904V29.4h2.448v10.44h1.458v4.32h-2.448ZM156.494 42h-2.484v-8.64L148.376 42h-2.484V29.04h2.484v8.64l5.634-8.64h2.484V42Zm7.713.27c-1.296 0-2.415-.282-3.357-.846-.936-.564-1.659-1.353-2.169-2.367-.504-1.014-.756-2.193-.756-3.537 0-1.344.252-2.523.756-3.537.51-1.014 1.233-1.803 2.169-2.367.942-.564 2.061-.846 3.357-.846 1.296 0 2.412.282 3.348.846a5.597 5.597 0 0 1 2.169 2.367c.51 1.014.765 2.193.765 3.537 0 1.344-.255 2.523-.765 3.537a5.597 5.597 0 0 1-2.169 2.367c-.936.564-2.052.846-3.348.846Zm0-2.304c.822.012 1.506-.165 2.052-.531s.954-.885 1.224-1.557c.276-.672.414-1.458.414-2.358 0-.9-.138-1.68-.414-2.34-.27-.66-.678-1.173-1.224-1.539-.546-.366-1.23-.555-2.052-.567-.822-.012-1.506.165-2.052.531s-.957.885-1.233 1.557c-.27.672-.405 1.458-.405 2.358 0 .9.135 1.68.405 2.34.276.66.687 1.173 1.233 1.539.546.366 1.23.555 2.052.567ZM170.674 42v-2.034c.276.018.51-.006.702-.072.192-.066.354-.186.486-.36.138-.18.258-.426.36-.738.102-.318.198-.714.288-1.188.144-.75.264-1.539.36-2.367.102-.834.186-1.65.252-2.448s.117-1.524.153-2.178c.036-.66.063-1.185.081-1.575h8.838V42h-2.448V31.326h-4.14c-.024.336-.057.774-.099 1.314a58.037 58.037 0 0 1-.396 3.825 29.534 29.534 0 0 1-.351 2.043 11.661 11.661 0 0 1-.459 1.71c-.18.492-.42.897-.72 1.215-.294.312-.675.519-1.143.621-.468.102-1.056.084-1.764-.054Zm19.251.27c-1.296 0-2.415-.282-3.357-.846-.936-.564-1.659-1.353-2.169-2.367-.504-1.014-.756-2.193-.756-3.537 0-1.344.252-2.523.756-3.537.51-1.014 1.233-1.803 2.169-2.367.942-.564 2.061-.846 3.357-.846 1.296 0 2.412.282 3.348.846a5.597 5.597 0 0 1 2.169 2.367c.51 1.014.765 2.193.765 3.537 0 1.344-.255 2.523-.765 3.537a5.597 5.597 0 0 1-2.169 2.367c-.936.564-2.052.846-3.348.846Zm0-2.304c.822.012 1.506-.165 2.052-.531s.954-.885 1.224-1.557c.276-.672.414-1.458.414-2.358 0-.9-.138-1.68-.414-2.34-.27-.66-.678-1.173-1.224-1.539-.546-.366-1.23-.555-2.052-.567-.822-.012-1.506.165-2.052.531s-.957.885-1.233 1.557c-.27.672-.405 1.458-.405 2.358 0 .9.135 1.68.405 2.34.276.66.687 1.173 1.233 1.539.546.366 1.23.555 2.052.567ZM197.643 42V29.04h8.46v2.286h-6.012V42h-2.448Zm20.139 0h-2.484v-8.64L209.664 42h-2.484V29.04h2.484v8.64l5.634-8.64h2.484V42Zm12.753 0h-2.484v-8.64L222.417 42h-2.484V29.04h2.484v8.64l5.634-8.64h2.484V42Z"/></g><defs><clipPath id="a"><path fill="#fff" d="M0 0h247v48H0z"/></clipPath></defs></svg>