<svg width="247" height="48" viewBox="0 0 247 48" fill="none" xmlns="http://www.w3.org/2000/svg">
<g clip-path="url(#clip0_324_4297)">
<path fill-rule="evenodd" clip-rule="evenodd" d="M40.6251 30.7623L37.576 33.1509L31.9337 25.2937C29.3006 21.6274 26.2389 12.9086 28.8423 11.0389L45.6286 34.4137C47.1486 31.264 48 27.7314 48 24C48 10.7451 37.2549 0 24 0C10.7451 0 0 10.7451 0 24C0 27.8823 0.928 31.5463 2.56457 34.7909L6.78857 30.0926L6.57029 29.8949C4.76457 28.272 4.616 25.4926 6.23886 23.6869L16.4297 12.7954C16.68 12.5166 17.1074 12.4937 17.3851 12.744C17.664 12.9931 17.6857 13.4217 17.4366 13.6994L9.048 22.5886C8.69143 22.984 8.72457 23.5931 9.12 23.9486C9.51543 24.3029 10.1246 24.2709 10.48 23.8754L18.648 14.7897C18.8994 14.512 19.3269 14.488 19.6046 14.7383L19.84 14.9509C20.1189 15.2 20.1406 15.6297 19.8914 15.9074L11.7223 24.9931C11.368 25.3886 11.4 25.9989 11.7954 26.3531C12.1909 26.7086 12.7989 26.6766 13.1554 26.2811L21.3234 17.1954C21.5749 16.9166 22.0023 16.8937 22.28 17.1429L22.5154 17.3554C22.7931 17.6057 22.816 18.0331 22.5669 18.312L14.3977 27.3977C14.0411 27.7931 14.0743 28.4023 14.4697 28.7577C14.8651 29.1131 15.4754 29.0811 15.8297 28.6857L23.9989 19.6C24.248 19.3211 24.6766 19.2983 24.9543 19.5486C25.2331 19.7977 25.256 20.2263 25.0057 20.504L15.0354 31.5943C13.4126 33.4 10.6343 33.5486 8.82857 31.9257L8.60914 31.728L3.84686 37.0251C8.12229 43.6274 15.5486 48 24 48C32.7554 48 40.4137 43.3086 44.6057 36.3051L40.6251 30.7623Z" fill="#434035"/>
<path d="M56.36 20L60.32 7.04H63.974L67.934 20H65.414L61.886 8.57H62.354L58.88 20H56.36ZM58.736 17.3V15.014H65.576V17.3H58.736ZM69.1871 20V7.04H71.6351V13.016L76.5671 7.04H79.5551L74.1371 13.43L79.8971 20H76.8011L71.6351 14.096V20H69.1871ZM79.8978 20L83.8578 7.04H87.5118L91.4718 20H88.9518L85.4238 8.57H85.8918L82.4178 20H79.8978ZM82.2738 17.3V15.014H89.1138V17.3H82.2738ZM92.5498 22.16V17.714C92.9398 17.714 93.2698 17.618 93.5398 17.426C93.8158 17.228 94.0408 16.952 94.2148 16.598C94.3888 16.238 94.5268 15.818 94.6288 15.338C94.7308 14.858 94.8058 14.336 94.8538 13.772C94.9138 13.052 94.9678 12.344 95.0158 11.648C95.0638 10.946 95.1118 10.22 95.1598 9.47C95.2078 8.714 95.2618 7.898 95.3218 7.022L103.926 7.04V17.714H104.916V22.16H102.468V20H94.9978V22.16H92.5498ZM96.2038 17.714H101.478V9.326L97.5538 9.308C97.5118 9.902 97.4758 10.448 97.4458 10.946C97.4218 11.444 97.3918 11.948 97.3558 12.458C97.3198 12.968 97.2718 13.538 97.2118 14.168C97.1518 14.798 97.0918 15.317 97.0318 15.725C96.9718 16.127 96.8788 16.478 96.7528 16.778C96.6328 17.078 96.4498 17.39 96.2038 17.714ZM106.533 20V7.04H114.993V9.326H108.981V12.098H113.913V14.384H108.981V17.714H114.993V20H106.533ZM116.79 20V7.04H118.986L123.27 15.644L127.554 7.04H129.75V20H127.464V12.26L123.702 20H122.838L119.076 12.26V20H116.79ZM142.518 20H140.034V11.36L134.4 20H131.916V7.04H134.4V15.68L140.034 7.04H142.518V20ZM154.21 20H151.762V15.608H148.738L147.658 15.536C146.506 15.356 145.66 14.882 145.12 14.114C144.58 13.34 144.31 12.41 144.31 11.324C144.31 10.598 144.427 9.941 144.661 9.353C144.901 8.759 145.267 8.267 145.759 7.877C146.251 7.487 146.884 7.232 147.658 7.112C147.832 7.082 148.024 7.064 148.234 7.058C148.444 7.046 148.612 7.04 148.738 7.04H154.21V20ZM146.902 20H144.13L146.938 14.24L149.458 14.726L146.902 20ZM151.762 13.322V9.326H148.846C148.72 9.326 148.582 9.332 148.432 9.344C148.282 9.356 148.144 9.38 148.018 9.416C147.688 9.506 147.433 9.659 147.253 9.875C147.073 10.085 146.947 10.322 146.875 10.586C146.809 10.844 146.776 11.09 146.776 11.324C146.776 11.558 146.809 11.807 146.875 12.071C146.947 12.329 147.073 12.566 147.253 12.782C147.433 12.992 147.688 13.142 148.018 13.232C148.144 13.268 148.282 13.292 148.432 13.304C148.582 13.316 148.72 13.322 148.846 13.322H151.762ZM159.612 20V7.04H170.304V20H167.856V9.326H162.06V20H159.612ZM183.073 20H180.589V11.36L174.955 20H172.471V7.04H174.955V15.68L180.589 7.04H183.073V20ZM188.23 20V9.326H184.144V7.04H194.764V9.326H190.678V20H188.23ZM194.599 20L198.559 7.04H202.213L206.173 20H203.653L200.125 8.57H200.593L197.119 20H194.599ZM196.975 17.3V15.014H203.815V17.3H196.975ZM207.426 20V7.04H209.874V12.368H215.67V7.04H218.118V20H215.67V14.654H209.874V20H207.426ZM230.886 20H228.402V11.36L222.768 20H220.284V7.04H222.768V15.68L228.402 7.04H230.886V20ZM242.578 20H240.13V15.608H237.106L236.026 15.536C234.874 15.356 234.028 14.882 233.488 14.114C232.948 13.34 232.678 12.41 232.678 11.324C232.678 10.598 232.795 9.941 233.029 9.353C233.269 8.759 233.635 8.267 234.127 7.877C234.619 7.487 235.252 7.232 236.026 7.112C236.2 7.082 236.392 7.064 236.602 7.058C236.812 7.046 236.98 7.04 237.106 7.04H242.578V20ZM235.27 20H232.498L235.306 14.24L237.826 14.726L235.27 20ZM240.13 13.322V9.326H237.214C237.088 9.326 236.95 9.332 236.8 9.344C236.65 9.356 236.512 9.38 236.386 9.416C236.056 9.506 235.801 9.659 235.621 9.875C235.441 10.085 235.315 10.322 235.243 10.586C235.177 10.844 235.144 11.09 235.144 11.324C235.144 11.558 235.177 11.807 235.243 12.071C235.315 12.329 235.441 12.566 235.621 12.782C235.801 12.992 236.056 13.142 236.386 13.232C236.512 13.268 236.65 13.292 236.8 13.304C236.95 13.316 237.088 13.322 237.214 13.322H240.13ZM67.862 42H65.378V33.36L59.744 42H57.26V29.04H59.744V37.68L65.378 29.04H67.862V42ZM73.2568 42V29.04H75.7048V34.368H81.5008V29.04H83.9488V42H81.5008V36.654H75.7048V42H73.2568ZM87.6635 42L89.4635 38.364L85.0355 29.04H87.8075L90.7415 35.79L93.7835 29.04H96.3935L90.2735 42H87.6635ZM100.838 42V31.326H96.7517V29.04H107.372V31.326H103.286V42H100.838ZM108.458 42V29.04H113.93C114.056 29.04 114.224 29.046 114.434 29.058C114.65 29.064 114.842 29.082 115.01 29.112C115.784 29.232 116.417 29.487 116.909 29.877C117.407 30.267 117.773 30.759 118.007 31.353C118.241 31.941 118.358 32.598 118.358 33.324C118.358 34.05 118.238 34.71 117.998 35.304C117.764 35.892 117.398 36.381 116.9 36.771C116.408 37.161 115.778 37.416 115.01 37.536C114.842 37.56 114.65 37.578 114.434 37.59C114.218 37.602 114.05 37.608 113.93 37.608H110.906V42H108.458ZM110.906 35.322H113.822C113.948 35.322 114.086 35.316 114.236 35.304C114.386 35.292 114.524 35.268 114.65 35.232C114.98 35.142 115.235 34.992 115.415 34.782C115.595 34.566 115.718 34.329 115.784 34.071C115.856 33.807 115.892 33.558 115.892 33.324C115.892 33.09 115.856 32.844 115.784 32.586C115.718 32.322 115.595 32.085 115.415 31.875C115.235 31.659 114.98 31.506 114.65 31.416C114.524 31.38 114.386 31.356 114.236 31.344C114.086 31.332 113.948 31.326 113.822 31.326H110.906V35.322ZM130.407 42H127.923V33.36L122.289 42H119.805V29.04H122.289V37.68L127.923 29.04H130.407V42ZM142.368 44.16V42H132.558V29.04H135.006V39.84H140.91V29.4H143.358V39.84H144.816V44.16H142.368ZM156.494 42H154.01V33.36L148.376 42H145.892V29.04H148.376V37.68L154.01 29.04H156.494V42ZM164.207 42.27C162.911 42.27 161.792 41.988 160.85 41.424C159.914 40.86 159.191 40.071 158.681 39.057C158.177 38.043 157.925 36.864 157.925 35.52C157.925 34.176 158.177 32.997 158.681 31.983C159.191 30.969 159.914 30.18 160.85 29.616C161.792 29.052 162.911 28.77 164.207 28.77C165.503 28.77 166.619 29.052 167.555 29.616C168.497 30.18 169.22 30.969 169.724 31.983C170.234 32.997 170.489 34.176 170.489 35.52C170.489 36.864 170.234 38.043 169.724 39.057C169.22 40.071 168.497 40.86 167.555 41.424C166.619 41.988 165.503 42.27 164.207 42.27ZM164.207 39.966C165.029 39.978 165.713 39.801 166.259 39.435C166.805 39.069 167.213 38.55 167.483 37.878C167.759 37.206 167.897 36.42 167.897 35.52C167.897 34.62 167.759 33.84 167.483 33.18C167.213 32.52 166.805 32.007 166.259 31.641C165.713 31.275 165.029 31.086 164.207 31.074C163.385 31.062 162.701 31.239 162.155 31.605C161.609 31.971 161.198 32.49 160.922 33.162C160.652 33.834 160.517 34.62 160.517 35.52C160.517 36.42 160.652 37.2 160.922 37.86C161.198 38.52 161.609 39.033 162.155 39.399C162.701 39.765 163.385 39.954 164.207 39.966ZM170.674 42V39.966C170.95 39.984 171.184 39.96 171.376 39.894C171.568 39.828 171.73 39.708 171.862 39.534C172 39.354 172.12 39.108 172.222 38.796C172.324 38.478 172.42 38.082 172.51 37.608C172.654 36.858 172.774 36.069 172.87 35.241C172.972 34.407 173.056 33.591 173.122 32.793C173.188 31.995 173.239 31.269 173.275 30.615C173.311 29.955 173.338 29.43 173.356 29.04H182.194V42H179.746V31.326H175.606C175.582 31.662 175.549 32.1 175.507 32.64C175.471 33.18 175.42 33.777 175.354 34.431C175.288 35.085 175.207 35.763 175.111 36.465C175.015 37.167 174.898 37.848 174.76 38.508C174.634 39.15 174.481 39.72 174.301 40.218C174.121 40.71 173.881 41.115 173.581 41.433C173.287 41.745 172.906 41.952 172.438 42.054C171.97 42.156 171.382 42.138 170.674 42ZM189.925 42.27C188.629 42.27 187.51 41.988 186.568 41.424C185.632 40.86 184.909 40.071 184.399 39.057C183.895 38.043 183.643 36.864 183.643 35.52C183.643 34.176 183.895 32.997 184.399 31.983C184.909 30.969 185.632 30.18 186.568 29.616C187.51 29.052 188.629 28.77 189.925 28.77C191.221 28.77 192.337 29.052 193.273 29.616C194.215 30.18 194.938 30.969 195.442 31.983C195.952 32.997 196.207 34.176 196.207 35.52C196.207 36.864 195.952 38.043 195.442 39.057C194.938 40.071 194.215 40.86 193.273 41.424C192.337 41.988 191.221 42.27 189.925 42.27ZM189.925 39.966C190.747 39.978 191.431 39.801 191.977 39.435C192.523 39.069 192.931 38.55 193.201 37.878C193.477 37.206 193.615 36.42 193.615 35.52C193.615 34.62 193.477 33.84 193.201 33.18C192.931 32.52 192.523 32.007 191.977 31.641C191.431 31.275 190.747 31.086 189.925 31.074C189.103 31.062 188.419 31.239 187.873 31.605C187.327 31.971 186.916 32.49 186.64 33.162C186.37 33.834 186.235 34.62 186.235 35.52C186.235 36.42 186.37 37.2 186.64 37.86C186.916 38.52 187.327 39.033 187.873 39.399C188.419 39.765 189.103 39.954 189.925 39.966ZM197.643 42V29.04H206.103V31.326H200.091V42H197.643ZM217.782 42H215.298V33.36L209.664 42H207.18V29.04H209.664V37.68L215.298 29.04H217.782V42ZM230.535 42H228.051V33.36L222.417 42H219.933V29.04H222.417V37.68L228.051 29.04H230.535V42Z" fill="#434035"/>
</g>
<defs>
<clipPath id="clip0_324_4297">
<rect width="247" height="48" fill="white"/>
</clipPath>
</defs>
</svg>
