<svg width="288" height="55" viewBox="0 0 288 55" fill="none" xmlns="http://www.w3.org/2000/svg">
<path d="M16.5056 18.8238V34.714C18.6102 33.5545 20.0838 31.5361 20.7991 29.2593L20.9678 29.3466C20.504 35.0153 16.7157 40.6833 10.8227 40.6833C4.88765 40.6833 0.509766 36.1741 0.509766 28.9587C0.509766 23.5484 3.96148 20.155 8.38153 17.1052C7.73566 16.9324 7.07048 16.8458 6.40269 16.8476C3.37119 16.8476 1.60388 18.9519 1.60388 21.0998H1.35018C1.30802 20.7992 1.30802 20.4986 1.30802 20.198C1.30802 16.3759 3.28686 11.7372 8.08567 11.7372C11.1586 11.7372 13.5162 14.6145 17.0937 14.6145C18.5251 14.6145 20.2932 13.9273 21.0085 12.3384H21.135C21.0928 15.1305 20.2524 18.0085 16.5056 18.8238ZM18.7781 35.1005C16.6735 37.3765 14.4009 39.309 11.4545 39.309C5.98248 39.309 1.77325 34.9287 1.77325 28.5729C1.77325 24.8367 3.28829 22.8183 4.97198 20.4556H4.80332C3.75066 21.5293 0.972853 24.2348 0.972853 28.8298C0.972853 35.8735 5.30857 40.2109 10.9914 40.2109C14.9484 40.2109 17.6418 37.4202 18.8632 35.1441L18.7781 35.1005ZM20.4618 14.2716C19.7465 15.6459 18.2314 17.4066 15.1585 17.4066C12.0855 17.4066 9.26554 15.2594 6.78145 15.2594C4.50818 15.2594 2.95098 16.8054 2.3614 17.9649L2.40428 18.0507C3.20324 17.2355 4.42385 16.4189 6.40269 16.4189C9.68575 16.4189 11.7911 18.4809 15.1163 18.4809C18.6523 18.4809 20.2517 16.1182 20.5461 14.3153L20.4618 14.2716ZM8.75957 17.2348C6.61279 19.5116 4.63395 22.0024 4.63395 26.8551C4.63395 29.517 5.51796 32.2661 7.4968 33.9839L8.71741 33.339V21.8291L7.58113 22.4304L7.37031 22.0009L13.264 18.7364C11.6646 18.3943 10.2332 17.6635 8.75957 17.2341V17.2348ZM16.0418 18.9096C15.7473 18.9519 15.4529 18.9519 15.1163 18.9519C14.5267 18.9519 13.98 18.9096 13.4326 18.7801V31.3206L7.91773 34.3719C9.054 35.2308 10.4433 35.7454 12.2113 35.7454C13.6427 35.7454 14.9055 35.4448 16.0418 34.9294V18.9096ZM9.98089 21.1005L9.1805 21.5722V33.0828L9.98089 32.6534V21.1005ZM34.185 22.7317V37.5913C34.185 41.7139 30.6068 44.5061 26.6084 45.3213L26.5241 45.1495C28.5029 44.1618 29.6399 42.1434 29.6399 39.9962V24.6213L27.3667 22.5177L26.4826 23.5047V35.487L27.7454 36.6465V36.7331L24.3359 40.5122L20.4211 36.8619V36.6894L21.9361 35.0575V16.0753L26.3983 11.224L26.4826 11.2662V22.7754L30.1452 18.7386L33.9757 22.2608L34.6903 21.487L35.0276 21.7884L34.185 22.7317ZM22.3985 36.7753V36.6894L23.2825 35.7869V15.346L22.3985 16.29V35.3574L21.0514 36.7324V36.8175L24.3344 39.8237L24.9233 39.1365L22.3985 36.7753ZM30.9863 23.9342L28.2507 21.5293L27.6611 22.1734L30.103 24.408V39.8681C30.103 40.8987 29.8922 41.9716 29.5134 42.5736L29.5563 42.6165C30.6083 41.8428 30.987 40.6833 30.987 39.1809L30.9863 23.9342ZM40.8784 31.3643V33.5537L44.9611 36.8183L47.3187 34.2416L47.656 34.5844L42.184 40.5537L36.627 36.0016L35.7858 36.9042L35.4485 36.5606L36.4169 35.5299V24.6642L44.373 18.7379L48.54 25.609L40.8784 31.3643ZM37.7625 35.1441V24.2348L36.8792 24.8797V35.5736L42.099 39.911L42.7729 39.1809L37.7625 35.1441ZM40.9627 21.9158L40.8784 21.9594V30.7631L44.6245 27.9717L40.9627 21.9158ZM42.0568 21.0569L41.2993 21.6152L45.004 27.6711L45.7615 27.1121L42.0568 21.0569ZM75.9786 40.5115L70.1272 35.3581L65.6657 40.5115L59.6034 35.1856V26.7685H58.4249C57.3723 26.7685 56.8256 27.4563 56.5726 28.2716H56.4461C56.3118 27.7382 56.2412 27.1903 56.236 26.6397C56.236 25.5231 56.5311 22.6029 59.6034 22.6029V15.2164C59.6034 13.7992 57.9618 13.241 57.9618 11.3514C57.9618 8.90355 60.2344 6.49866 64.4029 4.99414L64.5715 5.12297C63.0565 6.02554 62.2561 6.88443 62.2561 8.73105C62.2561 11.5661 64.9503 10.8353 64.9503 15.3016V17.0194L69.8756 11.7372L75.0532 16.9342L79.9363 11.7372L84.6501 16.4611V32.3513L75.9786 40.5115ZM60.9512 34.4993V25.4379H58.5929C57.3723 25.4379 56.8256 26.2532 56.7412 26.984L56.7827 27.0276C57.2043 26.5545 57.6252 26.2976 58.5929 26.2976H60.0657V34.9724L65.6228 39.8688L66.2538 39.0951L60.9512 34.4993ZM60.9512 14.7862C60.9512 13.0262 59.4361 12.4243 59.4361 11.3084C59.4361 9.76172 60.025 8.47411 60.9512 7.27166L60.8669 7.22871C59.6041 8.21717 58.4256 9.80612 58.4256 11.3514C58.4256 12.8981 60.0672 13.6275 60.0672 15.0024V22.6036H60.9512V14.7862ZM69.8327 19.0814L66.634 15.9035L64.9503 17.6642V32.8666L68.7808 36.1741L69.8327 34.9709V19.0814ZM71.1798 34.4141V18.4809L67.6016 14.8736L66.9284 15.5607L70.2958 18.8674V34.8865L75.9786 39.911L76.6525 39.2661L71.1798 34.4141ZM79.346 18.5246L76.6947 15.9465L75.1797 17.5361V32.8251L79.3046 36.5176L79.346 36.4754V18.5231V18.5246ZM80.6931 17.9226L77.6202 14.8736L76.9891 15.5607L79.8091 18.3091V36.2607L80.6931 35.4018V17.9219V17.9226ZM98.5798 40.5115L94.5807 36.8183L91.0025 40.5115L86.6246 36.5606L86.0351 37.204L85.6985 36.8612L86.456 36.0453V24.5361L94.3699 18.6949L98.9164 22.303L99.7168 21.4441L100.053 21.7877L99.1273 22.7754V34.6718L101.358 36.7753L102.074 36.0023L102.41 36.3029L98.5798 40.5115ZM87.8031 35.7446V24.1496L86.9198 24.793V36.1741L90.9611 39.8681L91.6343 39.1809L87.8038 35.7454L87.8031 35.7446ZM94.5807 24.4502L91.129 21.701L91.0025 21.7877V34.2845L93.8654 36.8175L94.58 36.0882V24.4495L94.5807 24.4502ZM95.9278 36.1311V23.8061L92.3496 20.8421L91.5085 21.4434L95.0438 24.2777V36.5613L98.5798 39.8251L99.2116 39.1373L95.9278 36.1311ZM110.829 26.5108H115.165V35.7024L108.472 40.5122C107.588 39.4815 106.324 38.7515 104.767 38.7515C103.504 38.7515 102.494 39.1809 101.148 40.3404L100.937 40.2546L106.662 31.7515H103.126V23.7624L110.156 18.7808C110.997 19.4679 111.628 19.8537 112.724 19.8537C113.566 19.8537 114.786 19.6819 115.713 18.9096L115.881 18.9955L110.829 26.5108ZM106.115 37.5054C104.894 37.5054 103.926 37.9348 103.084 38.536V38.6219C103.757 38.3213 104.431 38.2362 105.062 38.2362C106.03 38.2362 107.546 38.7085 108.556 39.911L109.525 39.1809C108.724 38.2354 107.757 37.5054 106.115 37.5054ZM110.618 30.29H108.261L103.336 37.549L103.378 37.6349C104.599 36.7324 105.777 36.1319 107.208 36.1319C108.471 36.1319 109.776 36.7331 110.576 37.7638L110.619 37.7208L110.618 30.29ZM104.472 30.29V23.3766L103.589 24.0208V31.2355H106.998L107.672 30.2907H104.473L104.472 30.29ZM113.271 21.8728C112.387 22.5177 111.881 22.8605 110.408 22.8605C109.566 22.8605 108.556 22.4748 107.757 21.6152L107.672 21.6588V27.928H109.272L113.313 21.9158L113.27 21.8721L113.271 21.8728ZM111.25 21.4863C110.493 21.4863 109.525 21.1005 108.892 20.2417L107.84 20.971C108.641 21.9587 109.398 22.3882 110.576 22.3882C111.333 22.3882 112.428 22.1727 113.565 21.185L113.607 21.0569C112.892 21.3582 112.008 21.4863 111.25 21.4863ZM111.965 28.8742H109.229L108.598 29.7753H111.082V38.1066L111.966 37.4624V28.8735L111.965 28.8742ZM129.687 22.7317V37.5913C129.687 41.7139 126.109 44.5061 122.11 45.3213L122.026 45.1495C124.005 44.1618 125.142 42.1434 125.142 39.9962V24.6213L122.869 22.5177L121.984 23.5047V35.487L123.247 36.6465V36.7331L119.838 40.5122L115.923 36.8619V36.6894L117.438 35.0575V16.0753L121.901 11.2233L121.984 11.2655V22.7754L125.647 18.7386L129.477 22.2608L130.193 21.487L130.53 21.7884L129.687 22.7317H129.687ZM117.901 36.7753V36.6894L118.785 35.7869V15.346L117.901 16.29V35.3574L116.554 36.7324V36.8183L119.837 39.8244L120.426 39.1365L117.901 36.7753ZM126.488 23.9342L123.752 21.5293L123.163 22.1734L125.604 24.408V39.8681C125.604 40.8987 125.394 41.9716 125.015 42.5736L125.058 42.6165C126.11 41.8428 126.489 40.6833 126.489 39.1809L126.488 23.9342ZM137.349 40.5115L133.729 37.1189L132.886 38.0207L132.549 37.6764L133.518 36.6035V24.1926L131.75 22.4748L131.076 23.2478L130.739 22.9042L134.527 18.6949L137.895 21.7877L138.737 20.8429L139.116 21.1435L138.064 22.303V34.8443L140.085 36.776L141.011 35.7876L141.347 36.1319L137.349 40.5115ZM134.865 36.3029V23.5047L132.676 21.4434L132.087 22.1312L133.981 23.9778V36.7331L137.349 39.8244L137.98 39.1373L134.865 36.3029ZM136.128 18.3521L132.676 15.1312L135.833 11.6957L139.285 14.9158L136.128 18.3514V18.3521ZM133.981 14.4434L133.35 15.0876L136.086 17.7072L136.717 16.9771L133.981 14.4434ZM155.148 40.5115L151.485 37.1189V24.5791L149.254 22.5177L148.075 23.8061V35.4011L149.381 36.6458V36.8183L145.929 40.5115L142.014 36.8612V36.7324L143.529 35.1005V24.2777L141.551 22.4311L140.751 23.3329L140.415 22.9894L144.245 18.7379L148.076 22.2171V23.076L152.075 18.7379L155.82 22.1734L156.663 21.2716L157.042 21.6152L156.031 22.6888V34.9709L157.925 36.7746L158.852 35.7439L159.188 36.0875L155.148 40.5115ZM144.035 36.7753V36.6894C144.035 36.7753 144.877 35.8305 144.877 35.8305V23.6328L142.477 21.3997L141.888 22.0439L143.992 24.0193V35.3567L142.687 36.7316V36.8175L145.929 39.8237L146.602 39.0936L144.035 36.7753ZM152.832 36.4318V23.849L150.223 21.4434L149.549 22.1734L151.948 24.3636V36.8612L155.105 39.8673L155.779 39.1365L152.832 36.4318ZM167.018 48.2415C165.63 46.6955 164.661 46.0513 163.356 46.0513C161.968 46.0513 160.368 46.6104 158.726 47.5115L158.6 47.3834L164.409 40.5122L160.283 37.1625L159.484 38.0214L159.148 37.7208L160.072 36.6902V24.5368L168.071 18.6956L172.533 22.3037L173.29 21.4448L173.628 21.7884L172.744 22.7761V37.4646C172.744 39.697 173.964 39.6118 173.964 41.286C173.964 43.2177 171.227 45.0207 167.018 48.2415ZM161.42 36.3459V24.1926L160.536 24.8367V36.7331L164.703 40.1687L165.335 39.3949L161.42 36.3459ZM164.367 44.9348C162.978 44.9348 161.714 45.3642 160.536 46.1802V46.2668C161.294 45.9662 162.136 45.5797 163.566 45.5797C164.872 45.5797 165.966 46.309 167.061 47.5981L167.903 46.911C166.85 45.6663 165.587 44.9355 164.367 44.9355V44.9348ZM169.502 40.8121C168.45 40.125 168.197 39.3949 168.197 37.5483V36.7746L161.209 45.0199L161.252 45.0629C162.598 44.2477 163.819 43.6464 165.798 43.6464C167.482 43.6464 168.618 44.3328 169.923 45.4501C170.723 44.763 171.27 44.0759 171.27 43.0023C171.27 42.1434 170.554 41.4992 169.502 40.8121ZM168.197 24.4495L164.703 21.6588L164.618 21.7447V34.9287L167.313 37.0759L168.197 36.0453V24.4502V24.4495ZM170.765 40.2109C169.67 39.352 169.544 38.6219 169.544 36.7753V23.7202L166.008 20.7999L165.209 21.3582L168.66 24.1489V37.3765C168.66 39.2232 168.745 39.7392 169.881 40.5115C170.891 41.1986 171.69 41.9287 171.69 42.9164C171.69 43.1733 171.649 43.6035 171.649 43.6035L171.69 43.6464C171.901 43.431 172.154 43.0882 172.154 42.5292C172.154 41.5851 171.691 40.9409 170.765 40.2109ZM180.868 40.5115L176.994 37.4195L176.195 38.3213L175.859 37.977L176.784 36.9471V21.9165H174.342L174.258 21.8299L175.732 19.596H176.784V16.7195L181.246 11.8667L181.33 11.9533V19.5968H184.698L184.783 19.6834L183.309 21.9165H181.329V34.9294L183.646 36.7338L184.53 35.7454L184.866 36.0889L180.868 40.5115ZM178.131 15.9894L177.247 16.9771V19.5975H178.131V15.9894ZM178.131 36.5176V21.9165H177.247V37.033L180.826 39.8681L181.457 39.1809L178.131 36.5176ZM198.631 23.1612V35.1856L191.517 40.5544L186.17 36.4318L185.539 37.1618L185.203 36.8183L185.96 35.9594V24.1926L193.412 18.7379L198.379 22.6895L199.178 21.8306L199.515 22.1734L198.631 23.1612ZM187.308 35.5299V23.8061L186.424 24.4502V36.0023L191.475 39.9532L192.276 39.3527L187.309 35.5299H187.308ZM194.085 24.5791L190.549 21.744L190.508 21.7877V34.5844L194.085 37.3329V24.5791ZM195.433 23.8061L191.517 20.7126L190.718 21.3145L194.549 24.3207V37.6772L195.433 36.9908V23.8061ZM214.712 40.5108L211.049 37.1189V24.5791L208.818 22.5177L207.639 23.8061V35.4011L208.945 36.6458V36.8183L205.493 40.5115L201.578 36.8612V36.7324L203.093 35.1005V24.2777L201.115 22.4311L200.315 23.3329L199.979 22.9894L203.809 18.7379L207.64 22.2171V23.076L211.639 18.7379L215.385 22.1734L216.227 21.2716L216.606 21.6152L215.595 22.6888V34.9709L217.489 36.7746L218.416 35.7439L218.752 36.0875L214.712 40.5108ZM203.598 36.7753V36.6894C203.598 36.7753 204.44 35.8305 204.44 35.8305V23.6328L202.041 21.3997L201.452 22.0439L203.557 24.0193V35.3567L202.252 36.7316V36.8175L205.494 39.8237L206.167 39.0936L203.598 36.7753ZM212.396 36.4318V23.849L209.787 21.4434L209.113 22.1734L211.512 24.3636V36.8612L214.669 39.8673L215.343 39.1365L212.396 36.4318H212.396ZM240.717 40.5115C239.538 39.2232 239.117 38.7937 237.727 38.4072V46.8243L237.643 46.8673L235.959 45.3206L231.076 49.9156L230.992 49.8734V38.3213C229.518 38.6649 227.961 39.4379 226.445 40.9832L226.361 40.9409C226.656 37.6342 228.255 35.1864 230.991 34.2416V25.8667H230.107C228.887 25.8667 228.213 26.5108 227.624 27.6703H227.498C227.372 27.2846 227.287 26.6826 227.287 25.6956C227.287 23.8912 228.592 22.0024 230.739 22.0024H230.991V17.3636L229.265 15.7747L228.424 16.6336L228.128 16.333L232.381 11.7379L236.337 15.4311V19.3398L237.263 18.3084V13.3698H237.726V17.879L243.324 11.7372L248.08 16.1612V34.8428L240.717 40.5115ZM230.993 36.7324C229.268 37.0752 228.047 38.1495 227.247 39.5667L227.289 39.6526C228.468 38.6219 229.561 38.1503 230.993 37.806V36.7324ZM232.34 24.4073H230.025C228.425 24.4073 227.794 25.4379 227.753 26.6404L227.794 26.6833C228.299 25.8244 228.804 25.5238 229.814 25.395H231.456V48.8005L232.34 47.9416V24.4073ZM232.34 16.6765L230.235 14.7018L229.562 15.4311L231.456 17.1489V22.0017H232.34V16.6758V16.6765ZM237.266 19.1244L236.34 20.1121V44.9785L237.266 45.8373V19.1244ZM242.78 18.1366L240.296 15.8176L237.728 18.6527V33.7692C239.917 33.9846 241.432 34.6281 242.738 36.0882L242.78 36.0453V18.1366ZM237.728 36.7324V37.8489C239.16 38.1925 239.748 38.6219 240.758 39.8244L241.727 39.0514C240.717 37.763 239.706 36.9908 237.728 36.7324ZM244.126 17.4503L241.264 14.744L240.59 15.4741L243.242 17.9649V37.9348L244.126 37.2477V17.4503ZM262.774 23.1619V35.1864L255.659 40.5544L250.314 36.4318L249.682 37.1618L249.345 36.8183L250.103 35.9594V24.1926L257.554 18.7379L262.521 22.6895L263.32 21.8306L263.657 22.1734L262.774 23.1619ZM251.451 35.5299V23.8061L250.567 24.4502V36.0023L255.618 39.9532L256.418 39.3527L251.451 35.5299H251.451ZM258.228 24.5791L254.692 21.744L254.649 21.7877V34.5844L258.228 37.3329V24.5791ZM259.575 23.8061L255.66 20.7126L254.861 21.3145L258.691 24.3207V37.6772L259.575 36.9908V23.8061ZM272.539 26.5108H276.875V35.7024L270.183 40.5122C269.299 39.4815 268.036 38.7515 266.479 38.7515C265.216 38.7515 264.206 39.1809 262.859 40.3404L262.648 40.2546L268.373 31.7515H264.837V23.7624L271.867 18.7808C272.709 19.4679 273.339 19.8537 274.434 19.8537C275.277 19.8537 276.497 19.6819 277.423 18.9096L277.592 18.9955L272.539 26.5108ZM267.825 37.5054C266.605 37.5054 265.636 37.9348 264.795 38.536V38.6219C265.468 38.3213 266.142 38.2362 266.773 38.2362C267.742 38.2362 269.257 38.7085 270.266 39.911L271.236 39.1809C270.436 38.2354 269.467 37.5054 267.825 37.5054ZM272.33 30.29H269.973L265.048 37.549L265.09 37.6349C266.31 36.7324 267.489 36.1319 268.92 36.1319C270.183 36.1319 271.488 36.7331 272.287 37.7638L272.33 37.7208V30.29ZM266.184 30.29V23.3766L265.3 24.0208V31.2355H268.709L269.382 30.2907H266.184L266.184 30.29ZM274.982 21.8728C274.097 22.5177 273.592 22.8605 272.119 22.8605C271.276 22.8605 270.266 22.4748 269.467 21.6152L269.382 21.6588V27.928H270.981L275.022 21.9158L274.982 21.8721V21.8728ZM272.961 21.4863C272.203 21.4863 271.236 21.1005 270.604 20.2417L269.551 20.971C270.352 21.9587 271.109 22.3882 272.288 22.3882C273.046 22.3882 274.14 22.1727 275.277 21.185L275.318 21.0569C274.603 21.3582 273.719 21.4863 272.961 21.4863ZM273.677 28.8742H270.941L270.309 29.7753H272.793V38.1066L273.677 37.4624V28.8742ZM283.864 40.5115L279.991 37.4195L279.191 38.3213L278.855 37.977L279.78 36.9471V21.9165H277.339L277.255 21.8299L278.727 19.596H279.78V16.7195L284.242 11.8667L284.326 11.9533V19.5968H287.694L287.778 19.6834L286.304 21.9165H284.326V34.9294L286.642 36.7338L287.526 35.7454L287.862 36.0889L283.864 40.5115ZM281.127 15.9894L280.244 16.9771V19.5975H281.128V15.9894H281.127ZM281.127 36.5176V21.9165H280.244V37.033L283.821 39.8681L284.453 39.1809L281.128 36.5176H281.127Z" fill="#111111"/>
</svg>
