<svg width="260" height="35" fill="none" xmlns="http://www.w3.org/2000/svg"><path d="M20.589 3.598C20.589.77 17.876-.084 15.6.014v.252c1.356.098 2.402.644 2.402 1.554 0 .63-.453 1.414-1.809 1.414-1.074 0-2.854-.63-4.522-1.176C9.835 1.428 8.083.84 6.628.84 3.773.84 1.61 2.94 1.61 5.544c0 2.1 1.64 2.828 2.304 3.094l.042-.098c-.424-.28-.692-.588-.692-1.484 0-.756.55-1.764 2.02-1.764 1.329 0 3.067.588 5.37 1.232 1.978.546 4.112 1.064 5.299 1.218v4.592l-2.233 1.82 2.233 1.904v6.286c-1.145.644-2.473.854-3.618.854-2.12 0-4.07-.588-5.68-2.352l6.02-2.898V8.022L5.327 11.27c.763-1.932 2.19-3.374 3.758-4.312l-.042-.112C4.678 8.022.707 11.984.707 16.884c0 5.866 4.734 10.22 10.202 10.22 5.92 0 9.397-4.592 9.34-9.45h-.113c-.862 1.862-2.303 3.626-3.928 4.55v-6.132l2.332-1.862-2.332-1.862V7.756c2.162 0 4.395-1.414 4.395-4.144M8.196 19.782l-1.71.854c-1.045-1.344-1.738-3.248-1.738-5.698 0-1.008.113-2.38.453-3.346l3.023-1.344-.042 9.52.014.014Zm27.512-8.064-1.145.896-3.49-3.08-4.041 3.094V.672l-5.497 3.766c.636.21 1.4.546 1.4 2.002v16.534l-1.88 1.414.17.168.946-.644 3.278 2.968 4.395-2.898-.141-.21-1.117.728-1.526-1.512V13.02l1.046-.756 2.402 2.072v8.666c0 5.488-1.23 6.622-3.716 7.518v.14c4.14.168 7.87-1.218 7.87-8.246v-9.45l1.244-1.008-.17-.21-.028-.028Zm7.376 15.12 6.373-5.068-.17-.238-3.334 2.618-3.83-2.996v-1.862l6.613-4.62-3.334-5.138-7.348 4.004v9.52l-1.427 1.106.17.21 1.356-1.064 4.945 3.556h-.014v-.028ZM42.11 18.9v-7.21l3.208 4.97-3.208 2.24ZM75.81 2.254c0-.448-.113-.826-.282-1.344h-.1c-.451 1.218-.946 1.862-2.373 1.862-1.244 0-2.233-.756-2.756-1.316 0 .042-4.182 4.788-4.182 4.788l.212.168 1.187-1.344c.904.686 1.71 1.484 3.716 1.512v12.096l-8.563-14.7c-.664-1.106-1.809-2.758-3.759-2.758-2.303 0-4.041 1.96-3.758 5.278h.14c.17-.826.665-1.862 1.668-1.862.806 0 1.456.756 1.837 1.442v4.732c-2.642 0-4.14 1.218-4.14 3.276 0 .854.636 2.716 2.43 3.038v-.098c-.24-.238-.48-.448-.48-.938 0-.798.593-1.232 1.667-1.232.17 0 .424.042.523.07v6.132c-3.108.042-5.496 1.722-5.496 4.634 0 2.912 2.402 4.032 4.903 3.892v-.098c-1.569-.168-2.374-.966-2.374-2.1 0-1.232.904-1.904 2.049-1.904 1.144 0 2.02.728 2.755 1.554l4.183-4.662-.17-.168-1.074 1.218c-1.61-1.414-2.642-2.072-4.493-2.352V6.538l11.813 20.398h.636V6.608c2.26-.14 4.281-1.82 4.281-4.354Zm3.97 24.556 6.374-5.068-.17-.238-3.335 2.618-3.829-2.996v-1.862l6.613-4.62-3.335-5.138-7.347 4.004v9.52l-1.428 1.106.17.21 1.356-1.064 4.946 3.556-.014-.028Zm-.974-7.938v-7.21l3.207 4.97-3.207 2.24Zm29.985-7.728-.975.728-2.784-2.352-3.236 2.898 1.328 1.232v10.808l-3.306-2.24v-8.764l1.144-.798-3.405-3.136-3.165 2.898 1.328 1.232v10.444l-.212.14-3.109-2.24v-8.582c0-2.002-1.017-2.59-2.303-3.374-1.074-.658-1.639-1.274-1.639-2.282 0-1.106.975-1.554 1.286-1.722-1.116-.042-4.211 1.064-4.282 3.864-.042 1.442.665 2.072 1.4 2.758.734.686 1.426 1.344 1.426 2.562v8.414l-1.497 1.176.17.168 1.426-1.106 3.717 2.996 3.546-2.45 3.9 2.45 7.659-4.48v-9.73l1.71-1.316-.141-.21.014.014Zm25.646-8.176-1.455 1.316-3.278-2.828-4.423 3.514V1.666h-.269v23.702c-.48-.07-1.497-.35-2.614-.518V5.012c0-1.442-1.045-3.458-3.659-3.458-2.615 0-4.254 2.184-4.254 4.074h.113c.142-.854.735-1.624 1.597-1.624s1.667.546 1.667 2.492v5.656c-2.472.098-3.97 1.624-3.97 3.276 0 .938.593 2.688 2.473 2.758v-.14c-.636-.266-.763-.588-.763-.938 0-.826.805-1.106 1.921-1.106h.269v9.114c-2.12.728-3.109 2.142-3.109 3.892 0 2.408 1.95 4.27 4.804 4.27 2.021 0 3.448-.35 5.299-.756 1.498-.308 3.123-.658 3.999-.658 1.117 0 1.611.49 1.611 1.274 0 1.008-.381 1.512-.975 1.694v.14c2.402-.448 3.801-1.82 3.801-3.962 0-2.142-2.119-3.556-4.493-3.556-1.23 0-3.448.378-5.257.798-2.02.448-3.758.658-4.394.658-1.018 0-2.261-.448-2.261-1.792 0-1.218 1.017-2.184 3.518-2.184 1.357 0 2.685.21 4.352.588 1.781.378 2.996.896 4.522.896 2.12 0 3.83-.756 3.83-3.836V4.606l1.568-1.414-.17-.21v-.014Zm-5.991 9.492c-.381.42-.834.756-1.568.756-.806 0-1.23-.42-1.611-.756V5.334l1.045-.826 2.12 1.792v6.174l.014-.014Zm0 3.374c-.353-.35-.805-.658-1.568-.658s-1.286.378-1.611.658v-3.038c.311.266.834.686 1.611.686s1.229-.35 1.568-.686v3.038Zm0 7.14c0 1.176-.593 2.492-2.119 2.492-.241 0-.806-.042-1.046-.07v-9.212c.353-.308.805-.728 1.611-.728.735 0 1.144.35 1.568.728v6.804l-.014-.014Zm12.407 3.836 7.107-4.382v-9.59l-4.592-3.346-7.108 4.032v9.492l-1.399 1.106.142.21 1.144-.938 4.706 3.416Zm-.523-4.97V11.62l3.547 2.618v10.22l-3.547-2.618Zm21.21-12.11c-.551.378-1.046.588-1.569.588-.551 0-1.243-.35-1.611-.798 0 .042-2.642 2.828-2.642 2.828l-2.642-2.828-4.31 2.968.141.238 1.145-.756 1.568 1.694v9.282l-1.879 1.414.169.168.947-.644 3.519 2.968 4.451-2.926-.142-.21-1.144.686-1.809-1.624V12.586c.735.798 1.568 1.484 2.572 1.484 1.808 0 3.024-2.142 3.236-4.354m16.787 13.734-1.329.826-7.348-10.864.382-.518c.805.476 1.526 1.134 3.066 1.134 1.541 0 3.491-1.596 3.66-4.522-.381.518-1.144 1.134-2.402 1.134-.904 0-1.809-.588-2.36-1.134l-5.016 7.308 6.655 10.038 4.833-3.178-.141-.238v.014Zm-8.917.266-1.116.728-1.526-1.512V.672l-5.497 3.766c.636.21 1.399.546 1.399 2.002v16.534l-1.879 1.414.169.168.947-.644 3.278 2.968 4.395-2.898-.141-.21-.029-.056ZM201.755 3.57c0-2.828-2.713-3.682-4.988-3.584v.28c1.356.098 2.402.644 2.402 1.554 0 .63-.452 1.414-1.809 1.414-1.074 0-2.854-.63-4.521-1.176-1.837-.63-3.59-1.218-5.045-1.218-2.854 0-5.016 2.1-5.016 4.69 0 2.1 1.639 2.828 2.303 3.094l.042-.098c-.424-.28-.692-.588-.692-1.484 0-.756.551-1.764 2.021-1.764 1.328 0 3.066.588 5.369 1.232 1.978.546 4.112 1.064 5.299 1.218v4.592l-2.233 1.82 2.233 1.904v6.286c-1.145.644-2.473.854-3.617.854-2.12 0-4.084-.588-5.681-2.352l6.02-2.898V8.022l-7.348 3.248c.763-1.932 2.19-3.374 3.759-4.312l-.043-.112c-4.352 1.176-8.323 5.138-8.323 10.038 0 5.866 4.734 10.22 10.203 10.22 5.92 0 9.396-4.592 9.34-9.45h-.099c-.862 1.862-2.303 3.626-3.928 4.55v-6.132l2.331-1.862-2.331-1.862V7.756c2.162 0 4.394-1.414 4.394-4.144m-12.406 16.184-1.71.854c-1.046-1.344-1.738-3.248-1.738-5.698 0-1.008.099-2.38.452-3.346l3.024-1.344-.042 9.52.014.014Zm16.857-17.234-3.066 2.548 2.614 2.926 3.066-2.548-2.614-2.926Zm4.663 21.21-1.116.728-1.526-1.512V12.95l1.286-1.008-.17-.21-1.074.826-2.543-2.996-4.183 2.898.142.238 1.045-.686 1.399 1.722v9.254l-1.879 1.414.169.168.947-.644 3.278 2.968 4.395-2.898-.141-.21-.029-.014Zm23.499-.14-1.045.686-1.64-1.554v-9.842l1.329-1.008-.17-.21-1.187.896-3.49-3.08-3.928 3.038-3.448-3.038-3.872 2.996-2.614-2.996-4.183 2.898.142.238 1.045-.686 1.498 1.694v9.254l-1.144 1.134 3.334 2.8 3.236-2.898-1.328-1.232v-9.856l.862-.63 2.402 2.072v8.624l-1.116 1.134 3.377 2.8 3.165-2.898-1.328-1.232V12.88l.834-.658 2.43 2.1v8.484l-.975 1.008 3.406 3.08 4.493-3.038-.141-.21h.028l.028-.014Zm12.152-2.1-3.334 2.618-3.83-2.996v-1.862l6.613-4.62-3.334-5.138-7.348 4.004v9.702l5.044 3.626 6.373-5.068-.169-.238-.015-.028Zm-7.178-2.632v-7.21l3.208 4.97-3.208 2.24Zm19.952-1.358L256.51 15.4c1.88-1.624 2.544-3.682 2.544-5.166 0-.21-.043-.588-.071-.938h-.113c-.268.756-1.017 1.414-2.162 1.414-1.144 0-1.78-.63-2.473-1.386l-6.471 3.556v5.208l2.472 1.932c-2.472 2.17-2.953 3.514-2.953 4.76s.735 2.338 1.992 2.828l.099-.168c-.31-.266-.593-.448-.593-1.106 0-.476.494-1.232 1.611-1.232 1.427 0 2.303.966 2.755 1.484 0-.042 6.189-3.766 6.189-3.766v-5.278Zm-1.455-4.27c-.975 1.722-3.123 3.416-4.395 4.382l-1.568-1.316V11.27c.636 1.386 1.922 2.548 3.589 2.548.975 0 1.611-.168 2.36-.546m-2.685 11.382c-.735-1.624-2.303-2.8-4.041-2.8-.424 0-1.71-.042-2.826.644.664-1.106 2.642-3.094 5.157-4.592l1.71 1.414V24.654Z" fill="#434035"/></svg>