<svg width="158" height="53" fill="none" xmlns="http://www.w3.org/2000/svg"><g clip-path="url(#a)" fill="#434035"><path d="M0 39.113c0-10.335 6.847-13.992 14.378-13.992 3.213 0 6.32.53 7.953 1.22l.158 7.207h-.738l-4.371-6.943c-.79-.37-1.475-.477-2.844-.477-4.003 0-6.057 4.664-6.004 12.35.053 9.168 1.633 13.302 5.372 13.302.948 0 1.685-.106 2.212-.37v-9.806l-2.475-1.43v-.796h11.85v.901l-2.423 1.325v9.7a26.236 26.236 0 0 1-8.953 1.536C5.53 52.84 0 48.76 0 39.113ZM75.207 32.277l.632.053v5.83h.158c.842-4.24 2.738-5.83 5.003-5.83.369 0 .79 0 1 .106v5.936c-.368-.106-1.053-.106-1.632-.106-1.79 0-3.16.318-4.319.848v11.501l1.79 1.007v.742H67.57v-.742l1.844-1.06V34.98l-2.16-.636v-.53l7.9-1.484.054-.053ZM58.037 40.81v-2.597c0-3.922-.842-5.247-3.265-5.247l-.843.106-4.318 5.83h-.58V33.55c1.844-.583 4.161-1.272 7.216-1.272 5.266 0 8.321 1.484 8.321 5.883v12.72l1.896.53v.53c-.737.424-2.212.848-3.845.848-2.633 0-3.844-.848-4.424-2.279h-.21c-1.054 1.484-2.634 2.332-5.109 2.332-3.16 0-5.267-1.96-5.267-5.3 0-3.339 2.002-5.14 6.11-5.936l4.266-.848.052.053Zm0 8.798v-7.844l-1.316.106c-2.107.16-2.792 1.484-2.792 4.4 0 3.18 1.054 4.027 2.476 4.027.79 0 1.264-.265 1.632-.689ZM25.016 34.291v-.583l7.9-1.43.895.105v15.688c0 1.908.895 2.491 2.423 2.491 1 0 1.896-.37 2.58-1.219V35.245l-2.159-.954v-.583l7.9-1.43.843.052v18.02l2.106.901v.53l-7.847 1.007-.79-.053V50.35h-.21a8.82 8.82 0 0 1-5.952 2.491c-3.792 0-5.53-2.226-5.53-5.67V35.244l-2.16-.954ZM137.724 50.615V34.98l-2.212-.742v-.795l7.9-1.431h.79v2.438h.263c1.685-1.537 4.213-2.491 6.741-2.491 3.424 0 4.951 1.59 4.951 5.3v13.303l1.843 1.06v.742h-10.27v-.742l1.844-1.06V37.63c0-2.014-.896-2.809-2.528-2.809-1.054 0-1.896.265-2.686.848v14.999l1.79 1.007v.742h-10.322v-.742l1.896-1.06ZM112.706 32.223l.738.106v18.285l1.79 1.007v.742h-10.27v-.742l1.844-1.06v-15.37l-2.212-.848v-.636l8.163-1.484h-.053Zm.79-4.929c0 1.961-1.632 3.392-3.528 3.392a3.356 3.356 0 0 1-2.452-.955 3.397 3.397 0 0 1-1.024-2.437c0-1.908 1.527-3.392 3.476-3.392 1.896 0 3.528 1.484 3.528 3.392ZM126.295 40.81v-2.597c0-3.922-.895-5.247-3.265-5.247l-.843.106-4.318 5.83h-.58V33.55c1.844-.583 4.161-1.272 7.216-1.272 5.266 0 8.321 1.484 8.321 5.883v12.72l1.896.53v.53c-.737.424-2.212.848-3.897.848-2.634 0-3.845-.848-4.424-2.279h-.158c-1.054 1.484-2.634 2.332-5.109 2.332-3.16 0-5.267-1.96-5.267-5.3 0-3.339 2.002-5.088 6.162-5.883l4.214-.848h.052Zm0 8.798v-7.844l-1.316.106c-2.107.16-2.844 1.484-2.844 4.4 0 3.18 1.053 4.027 2.528 4.027.79 0 1.264-.265 1.58-.689h.052ZM95.115 32.753v-6.148l-2.16-.742v-.53l8.006-1.43.79.105V50.35l2.212.795v.69l-7.9 1.06-.632-.107v-2.12h-.211c-.68.71-1.5 1.27-2.406 1.645a7.017 7.017 0 0 1-2.86.528c-4.267 0-7.427-3.286-7.427-10.07 0-7.155 3.687-10.6 9.217-10.6 1.58 0 2.791.265 3.37.583Zm0 16.854V33.92c-.527-.318-.896-.742-2.212-.689-2.107.106-3.476 3.34-3.476 9.116 0 5.194 1 8.11 3.844 8.003.79 0 1.422-.318 1.844-.689v-.053ZM35.865 28.939l2.738-1.431V6.096h-2.106l-4.898 6.678h-.58l.317-7.42h21.75l.317 7.42h-.737L47.82 6.096h-2.106v21.358l2.738 1.431v.795H35.865v-.741ZM55.511 27.984V4.24l-2.107-.848v-.424l7.637-1.378h.79v11.236l.21-.212c1.686-1.484 4.109-2.385 6.531-2.385 3.318 0 4.793 1.855 4.793 5.406v12.349l1.79.954v.742h-9.953v-.742l1.79-.954V15.582c0-1.961-.842-2.703-2.422-2.703a4.196 4.196 0 0 0-2.634.848v14.31l1.738.954v.689H53.668v-.69l1.843-1.06v.054Z"/><path d="M80.95 20.67c.21 3.922 1.948 6.943 6.108 6.943 2.002 0 3.424-.901 4.74-1.59v.742c-1 1.43-3.634 3.445-7.268 3.445-6.425 0-9.743-3.604-9.743-9.805 0-6.095 3.581-9.858 9.427-9.858 5.425 0 8.27 2.756 8.27 9.964v.159H80.948Zm-.106-.901 5.688-.318c0-4.876-.843-8.11-2.528-8.11-1.738 0-3.16 3.71-3.16 8.48v-.052Z"/></g><defs><clipPath id="a"><path fill="#fff" d="M0 0h158v53H0z"/></clipPath></defs></svg>